<svg xmlns="http://www.w3.org/2000/svg" viewBox="0 0 1024 1024"><defs><style>.cls-1{opacity:0.31;}.cls-2{fill:#eaeaea;stroke:#d7d7d7;stroke-miterlimit:10;stroke-width:3px;}</style></defs><g id="Papír_do_kuličky" data-name="Papír do kuličky"><path class="cls-2" d="M764.66,448.62S701.76,334.69,691.08,324c0,0-90.2-105.63-90.2-102.07s-81.89,42.73-89,59.34c0,0-71.21,4.16-83.08,15.73a400.92,400.92,0,0,0,11.87,43.32s-2.84,7.42-40,27.59c0,0-25.55-20.44-26.08-22V331.12s-15.29-1.58-29.54,6.33c0,0-7.38-11.6-9.49-11.6,0,0-22.68,2.11-26.9,4.74,0,0-20.57,26.9-29,36.4,0,0,3.16,19,0,24.79,0,0-5.28,2.11-10,4.22,0,0-35.87,86-36.4,93.36,0,0,24.26,18.46,24.26,22.68,0,0-2.11,45.89,3.7,58.55,0,0,25.84,118.16,33.76,118.68,0,0,46.41,22.69,65.93,40.09,0,0,36.92-17.93,42.72-32.7,0,0,45.37,11.08,59.61,8.44,0,0,3.16,10,14.24,6.86,0,0,34.81-7.39,38.51-16.36,0,0,6.33,6.86,2.11,15.3,0,0-17.67,21.63-19.12,28.48,0,0,1.71,15.83,20.17,19,0,0,43.25,4.75,51.17,9,0,0,30.06,25.32,29,34.81,0,0,11.6,0,13.18-2.11,0,0-4.22-7.91-3.16-11.07,0,0,13.19-13.72,12.13-16.88,0,0-8.11-21-6.72-31.12,0,0-11.87-15-13.06-17,0,0,22.35-8.41,34.62-4.6,0,0,31.45,4.9,42.13,0,0,0,52.81-2.52,75.36,1.63,0,0,.2-29.87,1.78-34.22,0,0,27.69-40.35,35.21-42.73,0,0-19.78-91.78-24.92-97.31,0,0-7.92-11.87-23-13.06,0,0,8.31-26.9,7.12-42.72,0,0,7.91-33.63,16.22-31.65C766.24,459.3,766.15,451.3,764.66,448.62Z"/><path class="cls-2" d="M233.23,489.36S349.27,522.59,358,536c0,0-8.71-96.66-15.83-100.55"/><path class="cls-2" d="M516,695.6s-41.67-101.8-39.3-131.86"/><path class="cls-2" d="M424.53,383.31l92.79-46.65,9.55-55.39,80.34,22.16-50.64,34.81c53-.79,99.69,32.44,99.69,32.44,49.85,4,43.52,19,43.52,19-3.16,3.17-14.24,109.2-14.24,109.2,20.57,3.17,57.36,34.8,57.36,34.8"/><path class="cls-2" d="M496.26,542.37s66.64,15,93.54,13.45c0,0,76.75-34.81,91.78-30.85,0,0,58.55,33.23,71.21,22.15"/><path class="cls-2" d="M269.63,396s114.46-26.9,184.88-7.12c0,0-5.54,68,11.86,100.48"/><path class="cls-2" d="M496.26,519.05s18.4-53.42,35.4-52.63c0,0-14.39-11.08-15.7-38.77,0,0,9.75-53,22.41-59.34"/><path class="cls-2" d="M512,685.69s-85.25-43.62-111.33-47.58c0,0,64.91-4,70.45-14.24"/><path class="cls-2" d="M333.45,608S345.32,657.1,354,664.22c0,0,11.08,15.82,58.55,13.45,0,0,36.1,4.75,43.76,13.45"/><path class="cls-2" d="M523.34,719.36s46.68-11.62,51.43-15.58c0,0,24.53-26.9,32.44-22.94"/><path class="cls-2" d="M288.35,555.94s-7.1,53.86,27.69,79L301.9,654.78,358,715.65h15l8.7-20,21.89,1.06"/><path class="cls-2" d="M476.59,567.74s64.16,61.4,83.15,61.93c0,0,54.41,13.19,64.79,46.42,0,0,42.81,39.86,53.89,43.27"/><path class="cls-2" d="M739.41,719.36s-19.06-69.27-13.52-83.57c0,0,26.9-71,26.9-79.85"/><path class="cls-2" d="M454.51,388.88s24.52-8.19,46.68-7.26c0,0,22.88-9.36,25.68-19.64,0,0,19.42-6.33,29.7,0,0,0,26.11,22.66,57.76,19.64,0,0,42.72.93,49,13.59,0,0,29.28-10.29,36.4-5.54"/><path class="cls-2" d="M565.27,631.25S572.09,608,583.72,608c0,0,24.28-33.23,19.53-48.26"/><path class="cls-2" d="M638.86,672.13a83.73,83.73,0,0,0,5.54-17.35s23.73,4.69,24.52,12.6"/><path class="cls-2" d="M738.41,715.65S685.54,688,684,680.44"/><path class="cls-2" d="M454.12,395.21S431.56,426.07,415,426.86"/><path class="cls-2" d="M358,555.94s32.48,79.64,42.69,82.17"/><path class="cls-2" d="M342.15,578s24.53,68,41.94,71.6c0,0,39.74,13.87,40.44,30.08"/><path class="cls-2" d="M556.18,763.62s36-27.89,36-44.26c0,0,31.69-11.69,35.62-1"/><path class="cls-2" d="M614.73,741s-2,19.38-19.39,35.21"/><path class="cls-2" d="M609.19,574.81l18.61-21s-2.35,21.36,0,29.27"/><path class="cls-2" d="M518.31,330.89s-43.5-7.15-49.83-13.48l-12.15-17.94s-13.17-.52-16.86,4.75"/><path class="cls-2" d="M306.85,389a90.21,90.21,0,0,0,5.06-18c1-6,1.21-12.45-.61-17.72"/><path class="cls-2" d="M342.15,377.19s-28-2.19-30.24-6.2"/><path class="cls-2" d="M368,533.67s14.51-30.59,18.73-30.59h25.84"/><path class="cls-2" d="M269.63,578s15.15,30.51,29.2,37.41"/><path class="cls-2" d="M342.15,665s24.06,47.58,30.86,50.64"/><path class="cls-2" d="M295,689.27l6.85-6.85s20.51,12.47,20.74,21.46"/><path class="cls-2" d="M761.92,443.68l-9.13,10.87L695.3,363.3c-16.35-16.88-16.88-54.08-16.88-54.08"/><path class="cls-2" d="M709.82,509.47s31.41-47,29-58.09c0,0,7.62,2.11,13.95,3.17"/><path class="cls-2" d="M607.21,303.43s61.71,41.35,71.21,70.39"/><path class="cls-2" d="M345.05,337.45s28.49,15.82,30.6,28"/><path class="cls-2" d="M504.54,729s65.22,9.37,76.82-7"/><path class="cls-2" d="M627.8,703.88s-28-6.17-39.58,3.86"/><path class="cls-2" d="M538.37,512s43.52-44.4,38.77-57.45"/><path class="cls-2" d="M531.66,426.86,543,411s-.61,17.27,13.23,24.46"/><path class="cls-2" d="M663.78,498.87s-53.36-26.52-59.91-44.32"/><path class="cls-2" d="M609.19,407.47s23.73,31.51,29.67,28"/><path class="cls-2" d="M369.85,395.21S363,445.06,368,449.27"/><path class="cls-2" d="M394.89,432.4s.37,38.51-11.55,44.31"/></g></svg>