<svg xmlns="http://www.w3.org/2000/svg" viewBox="0 0 1024 1024"><defs><style>.cls-1{fill:#757777;stroke:#575656;stroke-miterlimit:10;stroke-width:2px;}.cls-2{fill:#4689c6;}.cls-3{opacity:0.31;}</style></defs><g id="Kapající_kohoutek" data-name="Kapající kohoutek"><path class="cls-1" d="M705.84,675v12.26H536.52V675a33.63,33.63,0,0,1,33.23-33.63H672.21A33.63,33.63,0,0,1,705.84,675Z"/><path class="cls-1" d="M671,432.47V641.35H569.75V585.18C556.3,555.11,516,552.74,516,552.74H309.44a5.53,5.53,0,0,1-5.54-5.54A75.17,75.17,0,0,1,379.07,472H512s45.88-3.16,57.75-39.56Z"/><rect class="cls-1" x="326.85" y="552.74" width="79.91" height="18.99"/><path class="cls-1" d="M671,432.47H569.75c0-87.82-210.46-59.34-210.46-59.34-53.81,4.75-43.52-15.82-43.52-15.82,5.54-7.39,16.43-11.54,25.58-14C665.75,256.82,671,432.47,671,432.47Z"/><circle class="cls-2" cx="366.8" cy="643.23" r="22.23"/><path class="cls-2" d="M366.8,600.36s-22.23,23.28-22.23,42.87H389S387.18,616.76,366.8,600.36Z"/></g></svg>