<svg xmlns="http://www.w3.org/2000/svg" viewBox="0 0 1024 1024"><defs><style>.cls-1{fill:#6699c1;}.cls-2{fill:#4689c6;}.cls-3{fill:#757777;stroke:#575656;stroke-miterlimit:10;stroke-width:2px;}.cls-4{opacity:0.31;}</style></defs><g id="Tekoucí_kohoutek" data-name="Tekoucí kohoutek"><ellipse class="cls-1" cx="381.01" cy="780.98" rx="63.33" ry="10.29"/><ellipse class="cls-2" cx="381.01" cy="780.98" rx="55.42" ry="9"/><polygon class="cls-2" points="394.66 772.69 367.36 772.69 360.99 580.8 401.03 580.8 394.66 772.69"/><path class="cls-3" d="M720,684.05v12.27H550.72V684.05A33.63,33.63,0,0,1,584,650.43H686.42A33.62,33.62,0,0,1,720,684.05Z"/><path class="cls-3" d="M685.23,441.55V650.43H584V594.25c-13.45-30.07-53.8-32.44-53.8-32.44H323.65a5.53,5.53,0,0,1-5.54-5.54,75.16,75.16,0,0,1,75.16-75.16H526.21s45.88-3.17,57.74-39.56Z"/><rect class="cls-3" x="341.05" y="561.81" width="79.92" height="18.99"/><path class="cls-3" d="M685.23,441.55H584c0-87.83-210.46-59.34-210.46-59.34C319.69,387,330,366.38,330,366.38c5.54-7.38,16.43-11.54,25.58-14C680,265.9,685.23,441.55,685.23,441.55Z"/></g></svg>