<svg xmlns="http://www.w3.org/2000/svg" viewBox="0 0 1024 1024"><defs><style>.cls-1{opacity:0.31;}.cls-2{opacity:0.15;}.cls-3{fill:#3f3f3f;}.cls-4{fill:#848483;}</style></defs><g id="Bouchání_hřebíku" data-name="Bouchání hřebíku"><g id="Efekt" class="cls-2"><polygon class="cls-3" points="741.58 316.7 736.69 367.75 775.97 400.71 725.91 411.84 706.69 459.38 680.64 415.21 629.49 411.63 663.45 373.2 651.05 323.44 698.08 343.87 741.58 316.7"/><polygon points="704.83 306.25 727.53 352.24 778.27 359.61 741.55 395.41 750.22 445.95 704.83 422.09 659.44 445.95 668.11 395.41 631.39 359.61 682.14 352.24 704.83 306.25"/></g><g id="Kladivo"><path class="cls-3" d="M453.75,580.36c.89,5.51,1.53,11.46,1.92,17.8,1.66,26.76-1.21,60.28-9.12,95.84S427,761.15,414.19,784.69A180.38,180.38,0,0,1,404,801.35a25.83,25.83,0,0,1-21,4.44l-23.71-5.27a25.88,25.88,0,0,1-17.91-14.47v0c-.81-5-1.42-10.28-1.82-15.92-1.93-27.08.88-61.42,9-97.89s20.19-69,33.47-92.72q3.51-6.29,7.11-11.72h0a27.5,27.5,0,0,1,25.17-7.13l20.5,4.56A27.41,27.41,0,0,1,453.75,580.36Z"/><rect class="cls-4" x="367.21" y="471.93" width="150.67" height="46.5" transform="translate(-139.15 815.61) rotate(-77.06)"/><path class="cls-4" d="M571.39,328.74l-3,11.17-7.2,26.76-2.74,10.23-55.22-3.38h0C497,372.23,482.07,427,482.07,427l-45.32-10.41s7.86-30-.56-53.44c-33.5-10.06-58.07-22.42-96.53-3.59C370.61,316.35,441.83,282.78,571.39,328.74Z"/><path class="cls-4" d="M631.82,354.69l-6.2,27-15.2-3.7c-24.86-5.57-52-1.08-52-1.08l2.74-10.23,7.2-26.76,3-11.17s20.26,16.51,34.24,19.72Z"/><polygon class="cls-4" points="657.55 410.33 621.86 396.37 634.44 341.62 672.64 344.63 657.55 410.33"/><path class="cls-4" d="M610.93,378.09l-.51-.11"/></g><rect x="784.16" y="292.43" width="40.35" height="242.11"/><path class="cls-4" d="M748.82,376.21v41.31q-5.54-1.71-11.07,2.29v-45.9C742.93,375.89,746.63,376.66,748.82,376.21Z"/><rect class="cls-4" x="762.54" y="379.19" width="7.91" height="35.34" transform="translate(369.63 1163.36) rotate(-90)"/></g></svg>