<svg xmlns="http://www.w3.org/2000/svg" viewBox="0 0 1024 1024"><defs><style>.cls-1{opacity:0.31;}.cls-2{fill:#757777;}.cls-3{fill:#9f1f26;}.cls-4{fill:#0b0c0c;stroke:#272828;}.cls-4,.cls-5,.cls-6{stroke-miterlimit:10;}.cls-5{fill:none;stroke:#313334;stroke-width:2px;}.cls-6{fill:#ede88d;stroke:#cfc654;stroke-width:3px;}</style></defs><g id="Stříhání_papíru" data-name="Stříhání papíru"><g id="Nůžky"><path class="cls-2" d="M275.78,492.88H549.87a0,0,0,0,1,0,0v0A28.11,28.11,0,0,1,521.77,521h-246a0,0,0,0,1,0,0V492.88a0,0,0,0,1,0,0Z" transform="translate(-142.21 161.48) rotate(-18.94)"/><path class="cls-3" d="M287.84,535.53a3.36,3.36,0,0,0-3.92-1.64c-10.34,3-48.74,12.53-59.67-9.77,0,0-16.88-38.5-57-21.1,0,0-15.91,8.18-28.88,18.37a34.48,34.48,0,0,0-10.77,40.09c3.92,9.58,11.06,21.14,24,32.59a27.08,27.08,0,0,0,9.19,5.33c10.77,3.65,37.64,10.24,62.27.15,0,0,67.57-26.9,71.27-34.81C294.41,564.74,299.82,557.85,287.84,535.53Zm-105,41.34c-17.92,0-32.44-10.71-32.44-23.92S164.93,529,182.85,529s32.44,10.71,32.44,23.92S200.76,576.87,182.85,576.87Z"/><path class="cls-2" d="M238.4,446.95h246a28.11,28.11,0,0,1,28.11,28.11v0a0,0,0,0,1,0,0H238.4a0,0,0,0,1,0,0V446.95A0,0,0,0,1,238.4,446.95Z" transform="translate(-201.51 604.52) rotate(-64.81)"/><path class="cls-3" d="M305.1,572.43c-8.26,2.81-42.36,67.05-42.36,67.05-12.71,23.39-9.08,50.81-6.62,61.92a27,27,0,0,0,4.3,9.72c10,14.14,20.67,22.5,29.78,27.44a34.49,34.49,0,0,0,41-6.34,209.44,209.44,0,0,0,21.4-26.71c21.66-38-14.78-58.92-14.78-58.92-21-13.29-7.35-50.44-3.21-60.38a3.38,3.38,0,0,0-1.21-4.08C312.54,567.8,305.1,572.43,305.1,572.43Zm3.11,79.93c13.14,1.44,22.2,17,20.25,34.85s-14.17,31.08-27.31,29.65S279,699.82,280.9,682,295.08,650.92,308.21,652.36Z"/><circle class="cls-4" cx="340.82" cy="532.03" r="6.33"/><line class="cls-5" x1="336.49" y1="536.64" x2="345.44" y2="527.71"/></g><g id="Papír"><path class="cls-6" d="M910.62,507.4,759.86,216.74,458.25,373.17,668.38,778.3l187.14-97.06A129,129,0,0,0,910.62,507.4ZM513.3,390.05a10.68,10.68,0,1,1,4.89-14.3A10.68,10.68,0,0,1,513.3,390.05Zm55.1-27a10.68,10.68,0,1,1,4.89-14.29A10.67,10.67,0,0,1,568.4,363Zm55.1-27a10.68,10.68,0,1,1,4.89-14.29A10.68,10.68,0,0,1,623.5,336Zm55.1-27a10.68,10.68,0,1,1,4.9-14.29A10.68,10.68,0,0,1,678.6,309Zm55.11-27a10.68,10.68,0,1,1,4.89-14.29A10.69,10.69,0,0,1,733.71,282Z"/><path class="cls-6" d="M865.42,676.1s41.78-48.6-9.26-90.92c0,0,59.27-3,61.09-65"/></g></g></svg>