<svg xmlns="http://www.w3.org/2000/svg" viewBox="0 0 1024 1024"><defs><style>.cls-1{opacity:0.31;}.cls-2,.cls-3{fill:#1d1d1b;}.cls-2{stroke:#fff;}.cls-2,.cls-4,.cls-6{stroke-miterlimit:10;}.cls-2,.cls-4{stroke-width:4px;}.cls-4,.cls-6{fill:none;}.cls-4{stroke:#1d1d1b;}.cls-5{fill:#d3d3d3;}.cls-6{stroke:#282828;}.cls-7{fill:#282828;}.cls-8{fill:#fff;}</style></defs><g id="Mobil"><rect class="cls-2" x="401.88" y="306.69" width="205.33" height="376.97" rx="50.1"/><rect class="cls-3" x="413.63" y="317.75" width="181.84" height="354.86" rx="45.74"/><path class="cls-4" d="M367.83,554.49s-72.63-58.19,0-118.54"/><path class="cls-4" d="M339.19,571.67s-75.95-75,0-152.72"/><path class="cls-4" d="M311.92,589.71s-76-92.68,0-188.8"/><path class="cls-4" d="M632.22,554.4s72.64-58.2,0-118.55"/><path class="cls-4" d="M660.86,571.57s76-75,0-152.71"/><path class="cls-4" d="M688.14,589.61s76-92.67,0-188.79"/><polygon class="cls-5" points="593.46 343.25 415.63 471.77 415.63 526.1 593.46 413.88 593.46 343.25"/><polygon class="cls-5" points="593.46 450.05 415.63 575.15 415.63 613.66 593.46 520.68 593.46 450.05"/><line class="cls-6" x1="415.63" y1="621.04" x2="593.46" y2="621.04"/><circle class="cls-7" cx="504.54" cy="645.84" r="10.74"/><path class="cls-8" d="M549.72,674.61H459.37a47.79,47.79,0,0,1-47.74-47.74V363.49a47.79,47.79,0,0,1,47.74-47.74h90.35a47.8,47.8,0,0,1,47.74,47.74V626.87A47.8,47.8,0,0,1,549.72,674.61ZM459.37,319.75a43.79,43.79,0,0,0-43.74,43.74V626.87a43.79,43.79,0,0,0,43.74,43.74h90.35a43.79,43.79,0,0,0,43.74-43.74V363.49a43.79,43.79,0,0,0-43.74-43.74Z"/></g></svg>