<svg xmlns="http://www.w3.org/2000/svg" xmlns:xlink="http://www.w3.org/1999/xlink" viewBox="0 0 1024 1024"><defs><style>.cls-1{fill:none;}.cls-2{opacity:0.31;}.cls-3{fill:#e3d860;}.cls-4{fill:#e9e4b1;}.cls-5{fill:#577073;}.cls-6{clip-path:url(#clip-path);}.cls-7{fill:#667d80;}.cls-8{clip-path:url(#clip-path-2);}.cls-9{fill:#819596;}.cls-10{clip-path:url(#clip-path-3);}.cls-11{fill:#a7b3b2;}</style><clipPath id="clip-path"><circle class="cls-1" cx="393" cy="388.8" r="324.26"/></clipPath><clipPath id="clip-path-2"><circle class="cls-1" cx="302.5" cy="328.9" r="291.46"/></clipPath><clipPath id="clip-path-3"><circle class="cls-1" cx="214.11" cy="339.2" r="236.39"/></clipPath></defs><g id="Bouřka"><polygon class="cls-3" points="436.8 527.61 334.39 720.42 428.67 722.74 321.26 893.23 436.8 527.61"/><polygon class="cls-4" points="420.77 722.54 321.26 893.23 428.67 722.74 420.77 722.54"/><polygon class="cls-4" points="339.52 720.54 436.8 527.61 334.39 720.42 339.52 720.54"/><polygon class="cls-3" points="580.91 506.46 478.5 699.27 572.78 701.59 465.37 872.07 580.91 506.46"/><polygon class="cls-4" points="564.88 701.39 465.37 872.07 572.78 701.59 564.88 701.39"/><polygon class="cls-4" points="483.62 699.39 580.91 506.46 478.5 699.27 483.62 699.39"/><polygon class="cls-3" points="717.26 483.27 614.85 676.07 709.13 678.39 601.72 848.88 717.26 483.27"/><polygon class="cls-4" points="701.23 678.2 601.72 848.88 709.13 678.39 701.23 678.2"/><polygon class="cls-4" points="619.97 676.2 717.26 483.27 614.85 676.07 619.97 676.2"/><g id="Mrak_tvar" data-name="Mrak tvar"><path class="cls-5" d="M406.67,541.26a118,118,0,0,1-.73,13.23A120.34,120.34,0,0,1,166,544.37c0-1,0-2.07,0-3.11A120.24,120.24,0,0,1,279.85,421.1c2.14-.12,4.31-.18,6.48-.18,3.32,0,6.62.13,9.87.4A120.37,120.37,0,0,1,406.67,541.26Z"/><path class="cls-5" d="M605.54,405.94a155.36,155.36,0,0,1-79.32,135.32,152.59,152.59,0,0,1-16.88,8.16A155.09,155.09,0,0,1,296.2,421.32c-.49-5.06-.75-10.19-.75-15.38v-.12a155.39,155.39,0,0,1,1.95-24.47A149.83,149.83,0,0,1,300.65,366,155.24,155.24,0,0,1,472.14,252.4a153.53,153.53,0,0,1,27.61,6.5,154.94,154.94,0,0,1,105.79,147Z"/><circle class="cls-5" cx="660.16" cy="460.36" r="131.47"/><circle class="cls-5" cx="752.19" cy="541.26" r="120.34"/><path class="cls-5" d="M872.53,541.26c0,1,0,2,0,2.92a1.71,1.71,0,0,1,0,.32,134.63,134.63,0,0,1-15.27,59.9c-18.14,34.33-50.64,57.2-87.72,57.2H269c-28.34,0-54-13.36-72.61-35a120.81,120.81,0,0,1-18.83-29.87A135.65,135.65,0,0,1,166,544.37c0-1,0-2.07,0-3.11Z"/><ellipse class="cls-5" cx="539.26" cy="537.11" rx="32.81" ry="30"/><path class="cls-5" d="M380,436.29a70.82,70.82,0,0,1-131.45,36.59h0a70.55,70.55,0,0,1-10.17-36.59c0-1.86.07-3.7.22-5.52A70.78,70.78,0,0,1,300.65,366a68.55,68.55,0,0,1,8.53-.52A70.74,70.74,0,0,1,380,436.29Z"/></g><g id="Treti_oddil_mraku" data-name="Treti oddil mraku"><g class="cls-6"><path class="cls-7" d="M406.67,541.26a118,118,0,0,1-.73,13.23A120.34,120.34,0,0,1,166,544.37c0-1,0-2.07,0-3.11A120.24,120.24,0,0,1,279.85,421.1c2.14-.12,4.31-.18,6.48-.18,3.32,0,6.62.13,9.87.4A120.37,120.37,0,0,1,406.67,541.26Z"/><path class="cls-7" d="M605.54,405.94a155.36,155.36,0,0,1-79.32,135.32,152.59,152.59,0,0,1-16.88,8.16A155.09,155.09,0,0,1,296.2,421.32c-.49-5.06-.75-10.19-.75-15.38v-.12a155.39,155.39,0,0,1,1.95-24.47A149.83,149.83,0,0,1,300.65,366,155.24,155.24,0,0,1,472.14,252.4a153.53,153.53,0,0,1,27.61,6.5,154.94,154.94,0,0,1,105.79,147Z"/><circle class="cls-7" cx="660.16" cy="460.36" r="131.47"/><circle class="cls-7" cx="752.19" cy="541.26" r="120.34"/><path class="cls-7" d="M872.53,541.26c0,1,0,2,0,2.92a1.71,1.71,0,0,1,0,.32,134.63,134.63,0,0,1-15.27,59.9c-18.14,34.33-50.64,57.2-87.72,57.2H269c-28.34,0-54-13.36-72.61-35a120.81,120.81,0,0,1-18.83-29.87A135.65,135.65,0,0,1,166,544.37c0-1,0-2.07,0-3.11Z"/><ellipse class="cls-7" cx="539.26" cy="537.11" rx="32.81" ry="30"/><path class="cls-7" d="M380,436.29a70.82,70.82,0,0,1-131.45,36.59h0a70.55,70.55,0,0,1-10.17-36.59c0-1.86.07-3.7.22-5.52A70.78,70.78,0,0,1,300.65,366a68.55,68.55,0,0,1,8.53-.52A70.74,70.74,0,0,1,380,436.29Z"/></g></g><g id="Druhy_oddil_mraku" data-name="Druhy oddil mraku"><g class="cls-8"><path class="cls-9" d="M406.67,541.26a118,118,0,0,1-.73,13.23A120.34,120.34,0,0,1,166,544.37c0-1,0-2.07,0-3.11A120.24,120.24,0,0,1,279.85,421.1c2.14-.12,4.31-.18,6.48-.18,3.32,0,6.62.13,9.87.4A120.37,120.37,0,0,1,406.67,541.26Z"/><path class="cls-9" d="M605.54,405.94a155.36,155.36,0,0,1-79.32,135.32,152.59,152.59,0,0,1-16.88,8.16A155.09,155.09,0,0,1,296.2,421.32c-.49-5.06-.75-10.19-.75-15.38v-.12a155.39,155.39,0,0,1,1.95-24.47A149.83,149.83,0,0,1,300.65,366,155.24,155.24,0,0,1,472.14,252.4a153.53,153.53,0,0,1,27.61,6.5,154.94,154.94,0,0,1,105.79,147Z"/><circle class="cls-9" cx="660.16" cy="460.36" r="131.47"/><circle class="cls-9" cx="752.19" cy="541.26" r="120.34"/><path class="cls-9" d="M872.53,541.26c0,1,0,2,0,2.92a1.71,1.71,0,0,1,0,.32,134.63,134.63,0,0,1-15.27,59.9c-18.14,34.33-50.64,57.2-87.72,57.2H269c-28.34,0-54-13.36-72.61-35a120.81,120.81,0,0,1-18.83-29.87A135.65,135.65,0,0,1,166,544.37c0-1,0-2.07,0-3.11Z"/><ellipse class="cls-9" cx="539.26" cy="537.11" rx="32.81" ry="30"/><path class="cls-9" d="M380,436.29a70.82,70.82,0,0,1-131.45,36.59h0a70.55,70.55,0,0,1-10.17-36.59c0-1.86.07-3.7.22-5.52A70.78,70.78,0,0,1,300.65,366a68.55,68.55,0,0,1,8.53-.52A70.74,70.74,0,0,1,380,436.29Z"/></g></g><g id="Prvni_oddil_mraku" data-name="Prvni oddil mraku"><g class="cls-10"><path class="cls-11" d="M406.67,541.26a118,118,0,0,1-.73,13.23A120.34,120.34,0,0,1,166,544.37c0-1,0-2.07,0-3.11A120.24,120.24,0,0,1,279.85,421.1c2.14-.12,4.31-.18,6.48-.18,3.32,0,6.62.13,9.87.4A120.37,120.37,0,0,1,406.67,541.26Z"/><path class="cls-11" d="M605.54,405.94a155.36,155.36,0,0,1-79.32,135.32,152.59,152.59,0,0,1-16.88,8.16A155.09,155.09,0,0,1,296.2,421.32c-.49-5.06-.75-10.19-.75-15.38v-.12a155.39,155.39,0,0,1,1.95-24.47A149.83,149.83,0,0,1,300.65,366,155.24,155.24,0,0,1,472.14,252.4a153.53,153.53,0,0,1,27.61,6.5,154.94,154.94,0,0,1,105.79,147Z"/><circle class="cls-11" cx="660.16" cy="460.36" r="131.47"/><circle class="cls-11" cx="752.19" cy="541.26" r="120.34"/><path class="cls-11" d="M872.53,541.26c0,1,0,2,0,2.92a1.71,1.71,0,0,1,0,.32,134.63,134.63,0,0,1-15.27,59.9c-18.14,34.33-50.64,57.2-87.72,57.2H269c-28.34,0-54-13.36-72.61-35a120.81,120.81,0,0,1-18.83-29.87A135.65,135.65,0,0,1,166,544.37c0-1,0-2.07,0-3.11Z"/><ellipse class="cls-11" cx="539.26" cy="537.11" rx="32.81" ry="30"/><path class="cls-11" d="M380,436.29a70.82,70.82,0,0,1-131.45,36.59h0a70.55,70.55,0,0,1-10.17-36.59c0-1.86.07-3.7.22-5.52A70.78,70.78,0,0,1,300.65,366a68.55,68.55,0,0,1,8.53-.52A70.74,70.74,0,0,1,380,436.29Z"/></g></g></g></svg>