<svg xmlns="http://www.w3.org/2000/svg" viewBox="0 0 1024 1024"><defs><style>.cls-1{fill:#8dc262;}.cls-2{fill:none;stroke:#e5e4e4;stroke-linecap:round;stroke-miterlimit:10;stroke-width:11px;}.cls-3{fill:#3f5e8e;}.cls-4{fill:#e9e562;}.cls-5{fill:#c13f28;}.cls-6{fill:#e98c27;}</style></defs><g id="Layer_10" data-name="Layer 10"><circle class="cls-1" cx="512" cy="512" r="432.78"/><line class="cls-2" x1="329.24" y1="512" x2="694.76" y2="512"/><line class="cls-2" x1="512" y1="694.76" x2="512" y2="329.24"/><path class="cls-3" d="M353.35,484.62a26.15,26.15,0,0,1-26.11-26.11V353.35a26.15,26.15,0,0,1,26.11-26.11H458.51a26.15,26.15,0,0,1,26.11,26.11V458.51a26.15,26.15,0,0,1-26.11,26.11Zm0-141.31a10,10,0,0,0-10,10V458.51a10.05,10.05,0,0,0,10,10H458.51a10.05,10.05,0,0,0,10-10V353.35a10,10,0,0,0-10-10Z"/><path class="cls-3" d="M421.74,360.5v90.86H402.59V378.74H402l-20.73,13.1V374.77l22.44-14.27Z"/><path class="cls-4" d="M565.49,484.62a26.14,26.14,0,0,1-26.11-26.11V353.35a26.14,26.14,0,0,1,26.11-26.11H670.65a26.14,26.14,0,0,1,26.11,26.11V458.51a26.14,26.14,0,0,1-26.11,26.11Zm0-141.31a10,10,0,0,0-10,10V458.51a10.05,10.05,0,0,0,10,10H670.65a10.05,10.05,0,0,0,10-10V353.35a10,10,0,0,0-10-10Z"/><path class="cls-4" d="M586.15,452V438.18l32.32-30c2.76-2.65,5.08-5,6.95-7.17a27.86,27.86,0,0,0,4.27-6.28,15.43,15.43,0,0,0,1.46-6.68,12.09,12.09,0,0,0-6.77-11.34,15.56,15.56,0,0,0-7.13-1.58,15.14,15.14,0,0,0-7.26,1.67,11.51,11.51,0,0,0-4.78,4.82,15.8,15.8,0,0,0-1.68,7.53H585.24a29,29,0,0,1,4-15.52,27.15,27.15,0,0,1,11.34-10.15,37.47,37.47,0,0,1,16.8-3.6,39.1,39.1,0,0,1,17,3.45,27.14,27.14,0,0,1,11.28,9.51,24.77,24.77,0,0,1,4,14,26.74,26.74,0,0,1-2,10.09A43.55,43.55,0,0,1,640.54,408,152.53,152.53,0,0,1,626,422.64l-13.3,13v.67H650.9V452Z"/><path class="cls-5" d="M353.35,696.76a26.15,26.15,0,0,1-26.11-26.11V565.49a26.15,26.15,0,0,1,26.11-26.11H458.51a26.15,26.15,0,0,1,26.11,26.11V670.65a26.15,26.15,0,0,1-26.11,26.11Zm0-141.31a10.05,10.05,0,0,0-10,10V670.65a10,10,0,0,0,10,10H458.51a10,10,0,0,0,10-10V565.49a10.05,10.05,0,0,0-10-10Z"/><path class="cls-5" d="M405.72,664.71A43.36,43.36,0,0,1,388,661.3a29.59,29.59,0,0,1-12.16-9.48,23.66,23.66,0,0,1-4.57-14h19.26a10,10,0,0,0,2.2,5.79,13,13,0,0,0,5.4,3.87,20.09,20.09,0,0,0,7.59,1.37,18.87,18.87,0,0,0,7.77-1.52,12.41,12.41,0,0,0,5.27-4.27,11.55,11.55,0,0,0-.12-12.84,13.4,13.4,0,0,0-5.73-4.36,22.77,22.77,0,0,0-8.9-1.58h-8.48V610.14H404a18,18,0,0,0,7.68-1.52,12.69,12.69,0,0,0,5.18-4.21,10.53,10.53,0,0,0,1.89-6.22,11,11,0,0,0-1.61-6,11.23,11.23,0,0,0-4.48-4,14.79,14.79,0,0,0-6.77-1.46,18,18,0,0,0-7.2,1.4,13,13,0,0,0-5.18,3.93,9.85,9.85,0,0,0-2,6H373a23.66,23.66,0,0,1,4.46-13.84,29,29,0,0,1,11.73-9.36A39.8,39.8,0,0,1,406,571.43a37.33,37.33,0,0,1,16.49,3.41,27.1,27.1,0,0,1,10.95,9.21,22.72,22.72,0,0,1,3.9,13,17.88,17.88,0,0,1-4.76,12.72,21.77,21.77,0,0,1-12.37,6.49v.67q10,1.29,15.21,7A20.09,20.09,0,0,1,440.59,638a22.52,22.52,0,0,1-4.48,13.78,30,30,0,0,1-12.35,9.48A44.52,44.52,0,0,1,405.72,664.71Z"/><path class="cls-6" d="M565.49,696.76a26.14,26.14,0,0,1-26.11-26.11V565.49a26.14,26.14,0,0,1,26.11-26.11H670.65a26.14,26.14,0,0,1,26.11,26.11V670.65a26.14,26.14,0,0,1-26.11,26.11Zm0-141.31a10.05,10.05,0,0,0-10,10V670.65a10,10,0,0,0,10,10H670.65a10,10,0,0,0,10-10V565.49a10.05,10.05,0,0,0-10-10Z"/><path class="cls-6" d="M654.68,632.16H643.4V572.64H619.32l-37.86,59.82v15.06H625v16H643.4v-16h11.28Zm-54-.74,23.9-37.8h.74v38.54H600.72Z"/></g></svg>