<svg xmlns="http://www.w3.org/2000/svg" viewBox="0 0 1024 1024"><defs><style>.cls-1{fill:#8dc262;}.cls-2{fill:#6a6a6a;}</style></defs><g id="Layer_13" data-name="Layer 13"><circle class="cls-1" cx="512" cy="512" r="432.78"/><path class="cls-2" d="M331.33,424.48h116a0,0,0,0,1,0,0v175a0,0,0,0,1,0,0h-116a21.89,21.89,0,0,1-21.89-21.89V446.37A21.89,21.89,0,0,1,331.33,424.48Z"/><path class="cls-2" d="M327.16,534.16c-13.44-9.85-13.44-34.47,0-44.32L406.07,432,485,374.21c13.44-9.85,30.24,2.46,30.24,22.16V627.63c0,19.7-16.8,32-30.24,22.16L406.07,592Z"/><rect class="cls-2" x="600.46" y="493.92" width="150.65" height="36.17" rx="7.78"/><rect class="cls-2" x="570.46" y="602.47" width="150.65" height="36.17" rx="7.78" transform="translate(396.8 -239.75) rotate(30)"/><rect class="cls-2" x="570.46" y="385.36" width="150.65" height="36.17" rx="7.78" transform="translate(-115.2 376.94) rotate(-30)"/></g></svg>