<svg xmlns="http://www.w3.org/2000/svg" viewBox="0 0 1024 1024"><defs><style>.cls-1{fill:#8dc262;}.cls-2{fill:#3f5e8e;}.cls-3{fill:#e9e562;}.cls-4{fill:#c13f28;}</style></defs><g id="Layer_11" data-name="Layer 11"><circle class="cls-1" cx="512" cy="512" r="432.78"/><path class="cls-2" d="M686.55,596.69a32.15,32.15,0,0,1-32.11-32.11V459.42a32.15,32.15,0,0,1,32.11-32.11H791.7a32.15,32.15,0,0,1,32.11,32.11V564.58a32.15,32.15,0,0,1-32.11,32.11Zm0-141.31a4,4,0,0,0-4,4V564.58a4,4,0,0,0,4,4H791.7a4.05,4.05,0,0,0,4-4V459.42a4.05,4.05,0,0,0-4-4Z"/><path class="cls-3" d="M222.47,596.69A21.83,21.83,0,0,1,203.57,564l72.58-125.72a21.82,21.82,0,0,1,37.81,0L386.54,564a21.83,21.83,0,0,1-18.9,32.74ZM359.06,569.9l-64-110.85-64,110.85Z"/><path class="cls-4" d="M522.19,596.25A84.26,84.26,0,1,1,606.44,512,84.35,84.35,0,0,1,522.19,596.25Zm0-141.81A57.56,57.56,0,1,0,579.75,512,57.63,57.63,0,0,0,522.19,454.44Z"/></g></svg>