<svg xmlns="http://www.w3.org/2000/svg" viewBox="0 0 1024 1024"><defs><style>.cls-1{fill:#8dc262;}.cls-2{fill:#fff;}</style></defs><g id="Layer_12" data-name="Layer 12"><circle class="cls-1" cx="512" cy="512" r="432.78"/><circle class="cls-2" cx="587.36" cy="405.04" r="79.12"/><circle class="cls-2" cx="612.09" cy="464.38" r="79.12"/><circle class="cls-2" cx="521.89" cy="428.5" r="79.12"/><circle class="cls-2" cx="442.77" cy="447.58" r="79.12"/><circle class="cls-2" cx="411.91" cy="484.16" r="79.12"/><circle class="cls-2" cx="453.8" cy="526.7" r="79.12"/><circle class="cls-2" cx="532.92" cy="526.7" r="79.12"/><circle class="cls-2" cx="491.03" cy="385.26" r="79.12"/><path class="cls-2" d="M606.78,717.86S506.11,623.51,564.9,530.09L462.83,526.7S439,635.17,606.78,717.86Z"/><path class="cls-1" d="M487.83,506.13v-2.76q0-14.73,2.59-23.06A32.37,32.37,0,0,1,497.89,467a63.31,63.31,0,0,1,11.9-9.37,63.08,63.08,0,0,0,12.94-10.76,20.12,20.12,0,0,0,5.23-14,18.19,18.19,0,0,0-2.76-10.12,18.87,18.87,0,0,0-7.36-6.61,22.34,22.34,0,0,0-10.35-2.36,23,23,0,0,0-10.23,2.36,20,20,0,0,0-7.94,7A21.52,21.52,0,0,0,486,434.6H452q.23-16.68,7.82-27.6A46.19,46.19,0,0,1,480,390.67a69.58,69.58,0,0,1,27.77-5.41q16.68,0,29.44,5.46a46.17,46.17,0,0,1,20.07,15.82q7.31,10.35,7.3,25.07t-7.07,24.49a61.94,61.94,0,0,1-18.8,16.79,69.18,69.18,0,0,0-10.87,7.82,23.71,23.71,0,0,0-6.32,9.2,38.09,38.09,0,0,0-2,13.46v2.76Zm15.87,55q-9.21,0-15-5.47t-5.81-14.31a18.64,18.64,0,0,1,5.81-14.21q5.81-5.46,15-5.46t15,5.46q5.81,5.48,5.8,14.21t-5.8,14.31Q512.89,561.09,503.7,561.1Z"/></g></svg>