<svg xmlns="http://www.w3.org/2000/svg" viewBox="0 0 1024 1024"><defs><style>.cls-1{fill:#8dc262;}.cls-2{fill:#6a6a6a;}.cls-3{fill:#c13f28;}.cls-4{fill:#8dc263;}.cls-5{fill:#3f5e8e;}</style></defs><g id="Layer_14" data-name="Layer 14"><circle class="cls-1" cx="512" cy="512" r="432.78"/><path class="cls-2" d="M512,767.92a255.93,255.93,0,1,1,181-75A254.21,254.21,0,0,1,512,767.92Zm0-481.84c-124.57,0-225.92,101.35-225.92,225.92S387.43,737.92,512,737.92,737.92,636.57,737.92,512,636.57,286.08,512,286.08Z"/><path class="cls-3" d="M513.92,726.73c-1.3-30.57.75-61.32-15.31-88.8-7.78-13.32-40-35.33-27.7-53.43,32.37-3.73,67.69,2.14,100.23,3.63,48.17,31.12,33.85,89.94,19.68,137.66-7.77,21.15-21.66,47.14-47.05,49.36-3.32-.16-5.19-.35-7.85-.3C517.08,769.94,515,741.49,513.92,726.73Z"/><path class="cls-4" d="M522.29,582.87a28.84,28.84,0,0,0,6.34,13c8,9.35,20.94,18.49,24.89,30.72,2.89,9,2.33,18.8,3,28.09a374.89,374.89,0,0,1-.48,59.19c-2.58,12.9-5.07,16.76-7.93,22.56,12.35-23.64,8.59-55.76,5.74-81.58-1-9.39-.77-19.36-4-28.31-4.36-12.1-17.69-21-25.9-30.19a35.18,35.18,0,0,1-6.69-11.14c-.09-.25-.13-.37-.2-.61s-.11-.33-.18-.55l5.45-1.13Z"/><circle class="cls-5" cx="420.55" cy="454.69" r="31.45"/><circle class="cls-5" cx="603.45" cy="454.69" r="31.45"/></g></svg>