<svg xmlns="http://www.w3.org/2000/svg" viewBox="0 0 1024 1024"><defs><style>.cls-1{fill:#8dc262;}.cls-2{fill:#3f5e8e;}.cls-3{fill:#e9e562;}.cls-4{fill:#e98c27;}</style></defs><g id="Layer_9" data-name="Layer 9"><circle class="cls-1" cx="512" cy="512" r="432.78"/><path class="cls-2" d="M308.1,436.68V587.32H276.36V466.91h-.91l-34.38,21.74V460.34l37.21-23.66Z"/><path class="cls-3" d="M435.11,587.32V564.47l53.59-49.74q6.87-6.57,11.52-11.88a46.21,46.21,0,0,0,7.08-10.41,25.47,25.47,0,0,0,2.43-11.07,20.83,20.83,0,0,0-3-11.43,20.58,20.58,0,0,0-8.19-7.38,25.7,25.7,0,0,0-11.83-2.63,25,25,0,0,0-12,2.78,19.09,19.09,0,0,0-7.93,8,26.09,26.09,0,0,0-2.78,12.49H433.59q0-14.87,6.73-25.74a45,45,0,0,1,18.8-16.83q12.09-6,27.86-6,16.06,0,28.1,5.71a45,45,0,0,1,18.71,15.77,41,41,0,0,1,6.67,23.2,44.16,44.16,0,0,1-3.34,16.74q-3.33,8.24-11.82,18.4t-24.07,24.21l-22,21.54v1.11h63.29v26Z"/><path class="cls-4" d="M725.1,589.34q-16.59,0-29.37-5.66A48.84,48.84,0,0,1,675.56,568a39.23,39.23,0,0,1-7.59-23.2h31.95a16.38,16.38,0,0,0,3.64,9.6,21.57,21.57,0,0,0,9,6.42,33.18,33.18,0,0,0,12.59,2.28A31,31,0,0,0,738,560.53a20.5,20.5,0,0,0,8.74-7.08,19.1,19.1,0,0,0-.2-21.28,22,22,0,0,0-9.5-7.23,37.62,37.62,0,0,0-14.76-2.63H708.21V498.86h14.06A30.09,30.09,0,0,0,735,496.33a21.11,21.11,0,0,0,8.6-7A17.42,17.42,0,0,0,746.73,479a17.86,17.86,0,0,0-10.11-16.68,24.36,24.36,0,0,0-11.22-2.43,29.66,29.66,0,0,0-11.93,2.33,21.24,21.24,0,0,0-8.59,6.52,16.33,16.33,0,0,0-3.34,10H670.9a39.16,39.16,0,0,1,7.39-22.95,48,48,0,0,1,19.46-15.52,66.08,66.08,0,0,1,27.75-5.61q15.68,0,27.35,5.66A45,45,0,0,1,771,455.58a37.74,37.74,0,0,1,6.47,21.54q0,12.64-7.89,21.08T749.06,509v1.11q16.58,2.12,25.22,11.52t8.65,23.46a37.36,37.36,0,0,1-7.43,22.85q-7.44,10-20.48,15.72T725.1,589.34Z"/></g></svg>