<svg xmlns="http://www.w3.org/2000/svg" viewBox="0 0 1024 1024"><defs><style>.cls-1{fill:#8dc262;}.cls-2{fill:#c13f28;}.cls-3{fill:#7086c3;}.cls-4{fill:#ead826;}</style></defs><g id="Layer_8" data-name="Layer 8"><circle class="cls-1" cx="512" cy="512" r="432.78"/><path class="cls-2" d="M248.31,588.89H213.53l53-153.78h41.9l52.95,153.78H326.75L288.15,470.2h-1.24Zm-2.06-60.48H328.5V553.8H246.25Z"/><path class="cls-3" d="M457.51,588.89V435.11H519q16.92,0,28.28,5.06t17.08,13.93a36.86,36.86,0,0,1,5.73,20.44,32.9,32.9,0,0,1-3.67,15.79,31.46,31.46,0,0,1-9.91,11.14,39.48,39.48,0,0,1-14.29,6.09v1.55a35.61,35.61,0,0,1,16.51,4.95,34.87,34.87,0,0,1,12.54,12.75q4.8,8.21,4.8,19.56a40.35,40.35,0,0,1-6,21.83q-6,9.64-17.81,15.17t-29.1,5.52Zm32.4-89.38h24.15A28.47,28.47,0,0,0,526,497.14a19.45,19.45,0,0,0,8.21-6.76,18.2,18.2,0,0,0,3-10.48,16.9,16.9,0,0,0-5.83-13.36q-5.83-5.12-16.67-5.11H489.91Zm0,62.86h26.63q13.51,0,19.77-5.27a17.32,17.32,0,0,0,6.24-13.93,21,21,0,0,0-3-11.3,20.77,20.77,0,0,0-8.73-7.69,30.34,30.34,0,0,0-13.52-2.79H489.91Z"/><path class="cls-4" d="M743.8,591q-20.44,0-36.64-9.29a66,66,0,0,1-25.6-26.94q-9.39-17.65-9.39-42.63,0-25.17,9.45-42.88t25.69-26.94A72.53,72.53,0,0,1,743.8,433a79.25,79.25,0,0,1,24.87,3.77A63,63,0,0,1,789,447.75a57.28,57.28,0,0,1,14.4,17.55A65.42,65.42,0,0,1,810.47,489H777.65A34.25,34.25,0,0,0,774,477.63a27.93,27.93,0,0,0-7.12-8.57,32.93,32.93,0,0,0-10-5.41,38,38,0,0,0-12.33-1.91,36.55,36.55,0,0,0-20.69,5.93A38.41,38.41,0,0,0,710,484.8q-4.9,11.2-4.9,27.3,0,16.41,4.95,27.61t13.83,16.88a37.32,37.32,0,0,0,20.54,5.67,40,40,0,0,0,12.07-1.75,32.11,32.11,0,0,0,9.91-5.06,29.32,29.32,0,0,0,7.28-8.1,30.39,30.39,0,0,0,4-11h32.82a60.23,60.23,0,0,1-19.81,37.93,64.83,64.83,0,0,1-20.34,12.18A74,74,0,0,1,743.8,591Z"/></g></svg>