<svg xmlns="http://www.w3.org/2000/svg" viewBox="0 0 1024 1024"><defs><style>.cls-1{fill:#eaeaea;stroke:#d7d7d7;stroke-miterlimit:10;stroke-width:3px;}</style></defs><g id="Zmuchlaný_papír" data-name="Zmuchlaný papír"><path class="cls-1" d="M838.76,430S757.41,282.68,743.6,268.86c0,0-116.65-136.61-116.65-132S521,192.11,511.83,213.6c0,0-92.09,5.38-107.44,20.34,0,0,4.6,23.41,15.35,56,0,0-3.67,9.59-51.72,35.68,0,0-33-26.43-33.73-28.48v-19.1s-19.78-2.05-38.2,8.19c0,0-9.55-15-12.28-15,0,0-29.33,2.73-34.79,6.14,0,0-26.61,34.79-37.52,47.07,0,0,4.09,24.56,0,32.06,0,0-6.82,2.73-13,5.46,0,0-46.39,111.19-47.07,120.74,0,0,31.38,23.88,31.38,29.34,0,0-2.73,59.35,4.77,75.72,0,0,33.43,152.81,43.66,153.49,0,0,60,29.33,85.28,51.85,0,0,47.75-23.2,55.25-42.3,0,0,58.67,14.33,77.09,10.92,0,0,4.09,13,18.42,8.86,0,0,45-9.55,49.8-21.14,0,0,8.18,8.86,2.73,19.78,0,0-22.86,28-24.73,36.84,0,0,2.21,20.46,26.09,24.56,0,0,55.94,6.14,66.17,11.59,0,0,38.89,32.75,37.52,45,0,0,15,0,17.06-2.73,0,0-5.46-10.23-4.1-14.33,0,0,17.06-17.73,15.69-21.83,0,0-10.49-27.2-8.7-40.25,0,0-15.34-19.44-16.88-22,0,0,28.91-10.86,44.77-5.94,0,0,40.67,6.33,54.49,0,0,0,68.3-3.27,97.46,2.11,0,0,.26-38.63,2.31-44.26,0,0,35.81-52.19,45.53-55.26,0,0-25.58-118.7-32.23-125.86,0,0-10.23-15.35-29.68-16.88,0,0,10.75-34.79,9.21-55.26,0,0,10.24-43.49,21-40.93C840.81,443.84,840.69,433.5,838.76,430Z"/><path class="cls-1" d="M151.47,482.72s150.08,43,161.33,60.38c0,0-11.25-125-20.46-130"/><path class="cls-1" d="M517.12,749.46s-53.9-131.67-50.83-170.55"/><path class="cls-1" d="M398.87,345.56l120-60.33,12.35-71.63,103.9,28.65-65.49,45c68.56-1,128.94,42,128.94,42,64.46,5.12,56.28,24.56,56.28,24.56C750.76,357.88,736.44,495,736.44,495c26.6,4.1,74.18,45,74.18,45"/><path class="cls-1" d="M491.64,551.28s86.19,19.44,121,17.4c0,0,99.26-45,118.7-39.91,0,0,75.72,43,92.1,28.65"/><path class="cls-1" d="M198.54,362s148-34.79,239.1-9.21c0,0-7.16,88,15.35,130"/><path class="cls-1" d="M491.64,521.11s23.8-69.09,45.79-68.06c0,0-18.61-14.33-20.31-50.14,0,0,12.62-68.56,29-76.75"/><path class="cls-1" d="M512,736.63S401.74,680.21,368,675.1c0,0,84-5.12,91.11-18.42"/><path class="cls-1" d="M281.08,636.21s15.35,63.45,26.61,72.66c0,0,14.32,20.46,75.72,17.39,0,0,46.68,6.14,56.6,17.4"/><path class="cls-1" d="M526.67,780.18s60.37-15,66.51-20.15c0,0,31.72-34.79,42-29.68"/><path class="cls-1" d="M222.76,568.83S213.58,638.48,258.57,671l-18.29,25.65,72.52,78.72h19.45l11.25-25.92,28.31,1.36"/><path class="cls-1" d="M466.2,584.08s83,79.42,107.54,80.1c0,0,70.37,17.06,83.79,60,0,0,55.37,51.55,69.7,56"/><path class="cls-1" d="M806.1,780.18S781.46,690.6,788.62,672.1c0,0,34.8-91.86,34.8-103.27"/><path class="cls-1" d="M437.64,352.77s31.72-10.6,60.38-9.39c0,0,29.59-12.1,33.21-25.4,0,0,25.11-8.19,38.41,0,0,0,33.77,29.31,74.7,25.4,0,0,55.26,1.2,63.45,17.57,0,0,37.86-13.3,47.07-7.16"/><path class="cls-1" d="M580.9,666.22s8.81-30,23.85-30c0,0,31.41-43,25.27-62.42"/><path class="cls-1" d="M676.06,719.1a108,108,0,0,0,7.17-22.44s30.7,6.07,31.72,16.3"/><path class="cls-1" d="M804.82,775.38s-68.38-35.82-70.43-45.54"/><path class="cls-1" d="M437.14,361S408,400.86,386.48,401.88"/><path class="cls-1" d="M312.8,568.83s42,103,55.22,106.27"/><path class="cls-1" d="M292.34,597.33s31.72,88,54.23,92.61c0,0,51.4,17.93,52.3,38.89"/><path class="cls-1" d="M569.14,837.43s46.55-36.08,46.55-57.25c0,0,41-15.12,46.08-1.26"/><path class="cls-1" d="M644.85,808.12s-2.55,25.07-25.07,45.54"/><path class="cls-1" d="M637.69,593.24l24.08-27.12s-3,27.63,0,37.86"/><path class="cls-1" d="M520.16,277.77s-56.25-9.25-64.44-17.44L440,237.14s-17-.68-21.81,6.14"/><path class="cls-1" d="M246.68,352.87a116.47,116.47,0,0,0,6.55-23.23c1.26-7.74,1.56-16.12-.8-22.92"/><path class="cls-1" d="M292.34,337.65s-36.27-2.83-39.11-8"/><path class="cls-1" d="M325.76,540s18.76-39.57,24.22-39.57h33.43"/><path class="cls-1" d="M198.54,597.33s19.6,39.47,37.77,48.38"/><path class="cls-1" d="M292.34,709.89s31.1,61.53,39.91,65.49"/><path class="cls-1" d="M231.28,741.27l8.87-8.87s26.52,16.13,26.82,27.76"/><path class="cls-1" d="M835.23,423.64,823.42,437.7l-74.36-118c-21.15-21.83-21.83-69.93-21.83-69.93"/><path class="cls-1" d="M767.84,508.73s40.63-60.8,37.53-75.12c0,0,9.86,2.72,18,4.09"/><path class="cls-1" d="M635.13,242.25s79.82,53.49,92.1,91"/><path class="cls-1" d="M296.09,286.26s36.84,20.46,39.57,36.15"/><path class="cls-1" d="M502.36,792.6s84.34,12.11,99.35-9"/><path class="cls-1" d="M661.77,760.16s-36.19-8-51.19,5"/><path class="cls-1" d="M546.11,512s56.28-57.42,50.14-74.3"/><path class="cls-1" d="M537.43,401.88,552,381.42s-.79,22.33,17.11,31.63"/><path class="cls-1" d="M708.3,495s-69-34.3-77.49-57.32"/><path class="cls-1" d="M637.69,376.81s30.7,40.75,38.37,36.24"/><path class="cls-1" d="M328.15,361s-8.87,64.47-2.39,69.93"/><path class="cls-1" d="M360.54,409.05s.47,49.81-14.93,57.31"/></g></svg>