<svg xmlns="http://www.w3.org/2000/svg" viewBox="0 0 1024 1024"><defs><style>.cls-1{fill:#9bc2d3;}.cls-2{fill:#78a7c1;}.cls-3{fill:#6d9fc1;}.cls-4{fill:#5f8cb2;}.cls-5{fill:#5584ab;}.cls-6{fill:#4f81a3;}.cls-7{fill:none;}.cls-8{fill:#43738e;}.cls-9{fill:#5084a8;}.cls-10{fill:#5d91ad;}.cls-11{fill:#6896b5;}.cls-12{fill:#6e6e6d;}</style></defs><g id="Rozbit치_v치za" data-name="Rozbit치 v치za"><path class="cls-1" d="M665.48,640.71c-.66.67-1.33,1.35-2,2l-3.58.41-10.29,1.2-10.26,1.19c-1.27,2.19-5.05,4.36-10.17,6.4a166.4,166.4,0,0,1-20,6.09c-5.71,1.43-11.48,2.68-16.59,3.72-9.72,2-17.06,3.16-17.06,3.16a179.41,179.41,0,0,0-24.88-17.56c-24.23-13.93-37.89-12-37.89-12h0l-27.08,22.57-9.82,8.18-12.75-3.7c-2.29.57-8.6,4.8-15.8,10-6.85,5-14.5,10.81-20.2,15.24-5.11,4-8.66,6.8-8.66,6.8-29.85-20.24-53.89-57.21-46.16-124.66,2.6-22.68,8.79-48.81,19.56-78.91,2.27-6.34,6.8-53.63-.95-101.1,0,0-22.9-153.26-111.18-201l4-1.93,8.82-4.29,12.95-6.28,11.64-5.65,8.55-4.15,6.31-3.06,6.28-3.14L346.7,156l11.57-5.78,12.88-6.44,8.78-4.39,3.95-2C368,236.52,475.51,348.06,475.51,348.06c32.93,35.07,73.19,60.3,79.59,62.36C795.31,487.76,665.48,640.71,665.48,640.71Z"/><path class="cls-2" d="M659.87,643.14l-10.29,1.2-10.26,1.19c-1.27,2.19-5.05,4.36-10.17,6.4a166.4,166.4,0,0,1-20,6.09c-5.71,1.43-11.48,2.68-16.59,3.72-9.72,2-17.06,3.16-17.06,3.16a179.41,179.41,0,0,0-24.88-17.56c-24.23-13.93-37.89-12-37.89-12h0l-27.08,22.57-9.82,8.18-12.75-3.7c-2.29.57-8.6,4.8-15.8,10-6.85,5-14.5,10.81-20.2,15.24C399.35,666.56,376.9,629.62,382,565c1.75-22.27,6.78-47.83,16-77.15,1.94-6.18,4.77-52.63-3.93-99.64,0,0-26.11-151.63-110.41-201.34l0,0,8.83-4.28,13-6.28,11.65-5.65,8.55-4.14,6.31-3.06,6.28-3.14h0L346.7,156h0l11.57-5.79,12.88-6.45,8.78-4.4v0C368,236.55,472.3,349.65,472.3,349.65c32,35.53,70.53,61.6,76.61,63.82C768.81,494,667.26,633.48,659.87,643.14Z"/><path class="cls-3" d="M649.58,644.34l-10.26,1.19c-1.27,2.19-5.05,4.36-10.17,6.4a166.4,166.4,0,0,1-20,6.09c-5.71,1.43-11.48,2.68-16.59,3.72-9.72,2-17.06,3.16-17.06,3.16a179.41,179.41,0,0,0-24.88-17.56c-24.23-13.93-37.89-12-37.89-12h0l-27.08,22.57-9.82,8.18-12.75-3.7c-2.29.57-8.6,4.8-15.8,10-23.55-22.68-43.27-59.24-43.57-118.12-.11-21.35,2.33-45.63,8.07-73.24,1.2-5.82.26-50.41-10.56-96.37,0,0-33.23-148.07-108.72-202.12h0l0,0,13-6.27,11.66-5.63,8.56-4.14,6.32-3.05,6.28-3.15h0L346.7,156l11.56-5.81,12.89-6.48v.1c-3.13,92.79,94,209.35,94,209.35,29.84,36.58,64.63,64.5,70,67.09C710.56,505.06,664,617.55,649.58,644.34Z"/><path class="cls-4" d="M629.15,651.93a166.4,166.4,0,0,1-20,6.09c-5.71,1.43-11.48,2.68-16.59,3.72-9.72,2-17.06,3.16-17.06,3.16a179.41,179.41,0,0,0-24.88-17.56c-24.23-13.93-37.89-12-37.89-12h0l-27.08,22.57c-21.25-24.22-41.88-61.76-50.09-119.32A404.21,404.21,0,0,1,432,471.09c.13-5.29-6.36-47.15-20.29-91.57,0,0-43.67-142.8-106.25-203.24h0l0,0-.09-.09,11.71-5.6,8.59-4.1,6.33-3,6.27-3.18,8.48-4.31,11.57-5.87s0,.09,0,.13a.06.06,0,0,1,0,0v0c9.81,86.45,96.42,208.07,96.42,208.07,26.73,38.12,56,68.77,60.25,71.89C649.93,528.58,636.67,624.25,629.15,651.93Z"/><path class="cls-5" d="M609.14,658c-5.71,1.43-11.48,2.68-16.59,3.72-9.72,2-17.06,3.16-17.06,3.16a179.41,179.41,0,0,0-24.88-17.56c-24.23-13.93-37.89-12-37.89-12h0c-16.67-25.54-34.48-61.47-48.49-110.88a612.85,612.85,0,0,1-14.05-62.35c-.83-4.81-12.31-44.21-29.06-87.25,0,0-53.05-138.07-104-204.24h0l0-.06-.09-.12,8.64-4,6.37-3,6.25-3.24,8.46-4.39a.74.74,0,0,0,0,.14.19.19,0,0,0,0,.07v0h0C368.1,236.77,445.26,363,445.26,363c23.92,39.5,48.17,72.62,51.48,76.21C596.33,547.33,608.29,629.78,609.14,658Z"/><path class="cls-6" d="M592.55,661.74c-9.72,2-17.06,3.16-17.06,3.16a179.41,179.41,0,0,0-24.88-17.56c-16.79-27.09-40.13-70.21-65.3-133.26q-10.71-26.84-21.76-58.55c-1.54-4.46-16.69-42.06-35.5-84.08,0,0-59.95-134.6-102.43-205h0s0,0,0,0l0-.06-.1-.17,6.47-2.8L338.1,160a1.54,1.54,0,0,0,.08.19.14.14,0,0,0,0,.06v0h0c29.92,76.56,100.11,206.11,100.11,206.11,21.86,40.52,42.44,75.44,45,79.38C557.85,558.87,584.26,633.13,592.55,661.74Z"/><line class="cls-7" x1="406.68" y1="210.26" x2="406.68" y2="210.25"/><path class="cls-8" d="M616.64,571.68,616.41,588c-1.66,1.62-3.42,3.38-5.23,5.2L598.1,581.57l12.39,12.36c-4.07,4.1-8.36,8.47-12.37,12.37-6.19,6-12.35,12.19-19,17.62l-.78.63.7.75c2.15,2.58,5,6.22,3.63,9.71-1.14,4.78-2.15,9.56-3,14.4s-1.85,9.9-1.4,15l3-.47c-.49-4.46.39-9.54,1-14.1.75-4.79,1.63-9.59,2.63-14.34.71-1.32.29-4.62-.8-6.43a20.68,20.68,0,0,0-3-4.34c6.33-5.56,12-11.61,17.91-17.62q9.06-9.42,17.92-19C616.86,588,616.64,571.76,616.64,571.68Z"/><path class="cls-8" d="M474.22,591.85c-1.74,9.3-3.72,18.66-4.25,28.11l-.31-.53A182.82,182.82,0,0,0,490.93,628a167.73,167.73,0,0,0,22.1,5.87l-.61,2.94A171.43,171.43,0,0,1,490.23,630a184.22,184.22,0,0,1-21.43-9.7c.86-9.64,3.27-19,5.42-28.42Z"/><path class="cls-8" d="M419.5,694.94l-1.1-.49c3.94-3.14,37.76-31.89,44.3-33.5l.39-.1,12.38,3.58,36.62-30.51.43-.06c1-.14,24.12-3,63.41,29.45C599,659.55,634.07,651.6,638,644.77l.38-.65,25.05-1.39-2,1.74-21.26,2.46c-7.78,10.05-58.55,18.5-64.44,19.45l-.67.11-.52-.44c-35.69-29.63-58-29.44-61.21-29.25l-37.17,31L463.07,664C457.8,665.84,434.4,683.07,419.5,694.94Z"/><path class="cls-4" d="M399.77,711.08c-6.93,29.65-39.43,35-39.43,35-27.41,4.94-38.23-43.25-38.23-43.25,2.2-8.22,17.23-25.67,17.23-25.67C347,710.92,399.77,711.08,399.77,711.08Z"/><path class="cls-8" d="M399.77,711.08s-52.73-.16-60.43-33.91l7.86-.69s.26,2.68,3,6.77C355,690.48,367.44,702.1,399.77,711.08Z"/><path class="cls-4" d="M647.72,753.47s-21.1-6.16-30.86-13c0,0,36.13-23.36,36.92-27.5C653.78,713,658,737.21,647.72,753.47Z"/><path class="cls-8" d="M651.45,752.67l-3.73.8C658,737.21,653.78,713,653.78,713l2.62,1.54C661.28,738.23,651.45,752.67,651.45,752.67Z"/><path class="cls-8" d="M740.2,632.47a22.09,22.09,0,0,0,.93-7.16c-.23-14.69-11-33.46-11-33.46,13.37-22.92,19.54-41.61,22.38-54.31,2.65-11.84,2.41-18.48,2.41-18.48C776.59,562.84,740.2,632.47,740.2,632.47Z"/><path class="cls-4" d="M755.49,636.82l-15.29-4.35S776.59,562.84,755,519.06L766,515C787.14,580,755.49,636.82,755.49,636.82Z"/><polygon class="cls-4" points="637.21 412.44 668.86 391.68 666.04 422.53 637.21 412.44"/><polyline class="cls-8" points="666.04 422.53 661.21 426.88 632.2 415.94 637.21 412.44"/><polygon class="cls-9" points="435.77 531.57 499.27 553.2 453.06 582.87 435.77 531.57"/><polyline class="cls-4" points="453.06 582.87 441.71 580.86 425.41 528.37 435.77 531.57"/><polygon class="cls-8" points="269.7 493.14 283.63 528.34 253.99 519.33 269.7 493.14"/><polyline class="cls-4" points="253.99 519.33 250.7 513.73 267.29 487.53 269.7 493.14"/><path class="cls-4" d="M579.18,367.33l-5.27,28-30.59-2.57c10-7.85,17.4-32.24,17.4-32.24C565.47,364.7,579.18,367.33,579.18,367.33Z"/><polygon class="cls-8" points="583.93 371.95 579.18 399.94 573.91 395.29 579.18 367.33 583.93 371.95"/><polygon class="cls-8" points="579.18 399.94 550.4 398.05 543.32 392.72 573.91 395.29 579.18 399.94"/><path class="cls-9" d="M380.36,470.4l-14.89-31.19,31.84-19.43c-4.2,14.89,6.07,44.09,6.07,44.09C395.69,463.15,380.36,470.4,380.36,470.4Z"/><polygon class="cls-4" points="372.39 469.28 356.97 438.43 365.47 439.21 380.37 470.4 372.39 469.28"/><polygon class="cls-10" points="356.97 438.43 386.54 419.64 397.31 419.78 365.47 439.21 356.97 438.43"/><path class="cls-4" d="M619.76,511.72l26.45,10.49-8.34,29.54c-5.8-11.33-28.34-23.21-28.34-23.21C614.57,524.68,619.76,511.72,619.76,511.72Z"/><polygon class="cls-11" points="625.2 507.94 651.78 517.92 646.21 522.21 619.76 511.72 625.2 507.94"/><polygon class="cls-8" points="651.78 517.92 644.45 545.82 637.87 551.75 646.21 522.21 651.78 517.92"/><path class="cls-4" d="M590.26,693.82q-40.74,52.44-117.89,47.62l68-68.44,5.74,16.79,1.38,4L570.15,673Z"/><polygon class="cls-8" points="548.33 688.56 547.54 693.82 546.16 689.79 540.42 673 540.81 667.46 548.25 688.33 548.33 688.56"/><polygon class="cls-8" points="540.81 667.46 540.42 673 472.38 741.44 472.38 735.24 540.81 667.46"/><polygon class="cls-8" points="570.15 673 547.54 693.82 548.33 688.56 550.01 687.1 562.14 676.53 570.15 673"/><ellipse class="cls-12" cx="543.32" cy="856.5" rx="158.5" ry="30.07"/></g></svg>