<svg xmlns="http://www.w3.org/2000/svg" xmlns:xlink="http://www.w3.org/1999/xlink" viewBox="0 0 1024 1024"><defs><style>.cls-1{fill:#d8d8d8;opacity:0.49;}.cls-2{fill:#42bac3;stroke:#c2c1c1;stroke-miterlimit:10;}.cls-3{fill:url(#radial-gradient);}.cls-4{fill:#da78ae;}.cls-5{fill:#7bbc5f;}.cls-6{fill:#e9d585;}.cls-7{fill:#604325;}</style><radialGradient id="radial-gradient" cx="503.17" cy="551.91" r="221.48" gradientUnits="userSpaceOnUse"><stop offset="0.9" stop-color="#41bac2" stop-opacity="0"/><stop offset="0.91" stop-color="#41b1c2" stop-opacity="0.09"/><stop offset="0.93" stop-color="#42a3c3" stop-opacity="0.23"/><stop offset="0.96" stop-color="#439ac3" stop-opacity="0.32"/><stop offset="0.98" stop-color="#4394c3" stop-opacity="0.38"/><stop offset="1" stop-color="#4392c3" stop-opacity="0.4"/></radialGradient></defs><g id="Snězený_talíř" data-name="Snězený talíř"><circle class="cls-1" cx="512" cy="567.28" r="304.91"/><circle class="cls-2" cx="503.17" cy="551.91" r="296.07"/><circle class="cls-3" cx="503.17" cy="551.91" r="221.48"/><rect class="cls-4" x="413.76" y="582.81" width="20.74" height="14.59" transform="translate(-197.62 213.89) rotate(-23.12)"/><rect class="cls-4" x="601.4" y="553.72" width="11.51" height="8.1" transform="translate(-170.23 283.15) rotate(-23.12)"/><rect class="cls-4" x="544.07" y="519.08" width="20.74" height="14.59" transform="translate(379.86 -217.93) rotate(33.29)"/><rect class="cls-4" x="487.87" y="467.12" width="20.74" height="14.59"/><rect class="cls-4" x="515.26" y="634.78" width="15.53" height="10.93" transform="translate(-171.66 192.05) rotate(-17.93)"/><ellipse class="cls-5" cx="463.1" cy="515.83" rx="5.62" ry="4.35" transform="translate(-112.71 129.85) rotate(-14.25)"/><ellipse class="cls-5" cx="469.17" cy="516.92" rx="5.62" ry="4.35" transform="translate(-112.79 131.38) rotate(-14.25)"/><ellipse class="cls-5" cx="529.19" cy="497.98" rx="5.62" ry="4.35" transform="translate(-156.99 737.11) rotate(-62.47)"/><ellipse class="cls-5" cx="534.05" cy="494.18" rx="5.62" ry="4.35" transform="translate(-151 739.38) rotate(-62.47)"/><ellipse class="cls-5" cx="537.5" cy="569.29" rx="5.62" ry="4.35" transform="translate(-205.64 815.76) rotate(-64.99)"/><ellipse class="cls-5" cx="542.19" cy="565.27" rx="5.62" ry="4.35" transform="translate(-199.29 817.69) rotate(-64.99)"/><ellipse class="cls-6" cx="404.41" cy="559.78" rx="5.62" ry="4.35" transform="translate(-273.84 689.66) rotate(-64.99)"/><ellipse class="cls-6" cx="446.14" cy="565.27" rx="5.62" ry="4.35" transform="translate(-254.73 730.65) rotate(-64.99)"/><ellipse class="cls-6" cx="460.01" cy="600.92" rx="5.62" ry="4.35" transform="translate(-279.04 763.8) rotate(-64.99)"/><ellipse class="cls-6" cx="503.17" cy="574.71" rx="5.62" ry="4.35" transform="translate(-230.36 787.77) rotate(-64.99)"/><ellipse class="cls-6" cx="523.03" cy="606.35" rx="5.62" ry="4.35" transform="translate(-247.57 824.04) rotate(-64.99)"/><ellipse class="cls-6" cx="571.12" cy="565.27" rx="5.62" ry="4.35" transform="translate(-182.59 843.9) rotate(-64.99)"/><ellipse class="cls-6" cx="514.39" cy="526.38" rx="5.62" ry="4.35" transform="translate(-180.09 770.05) rotate(-64.99)"/><ellipse class="cls-6" cx="591.72" cy="499.6" rx="5.62" ry="4.35" transform="translate(-111.17 824.67) rotate(-64.99)"/><ellipse class="cls-6" cx="607.16" cy="529.66" rx="5.62" ry="4.35" transform="translate(-129.51 856.01) rotate(-64.99)"/><ellipse class="cls-6" cx="443.18" cy="486.96" rx="5.62" ry="4.35" transform="translate(-185.47 682.75) rotate(-64.99)"/><ellipse class="cls-6" cx="421.92" cy="460.18" rx="5.62" ry="4.35" transform="translate(-173.48 648.02) rotate(-64.99)"/><ellipse class="cls-6" cx="466.83" cy="640.24" rx="5.62" ry="4.35" transform="translate(-310.73 792.68) rotate(-64.99)"/><ellipse class="cls-6" cx="563.5" cy="463.86" rx="5.62" ry="4.35" transform="translate(-95.08 778.45) rotate(-64.99)"/><ellipse class="cls-6" cx="514.39" cy="429.24" rx="5.62" ry="4.35" transform="translate(-92.05 713.97) rotate(-64.99)"/><ellipse class="cls-6" cx="598.04" cy="652.9" rx="5.62" ry="4.35" transform="translate(-246.46 918.89) rotate(-64.99)"/><ellipse class="cls-5" cx="488.1" cy="604.94" rx="5.62" ry="4.35" transform="translate(-266.46 791.57) rotate(-64.99)"/><ellipse class="cls-5" cx="492.79" cy="600.92" rx="5.62" ry="4.35" transform="translate(-260.12 793.5) rotate(-64.99)"/><path class="cls-7" d="M423.69,522.17a2.85,2.85,0,0,1-.32-1.49c.13-1.92,1-6.06,6.55-3.48,3.92,1.83,3.3,6.93,3.3,6.93s-.68,9-9,11.88c-2.66.91-7.16.32-7.35-4.06,1.57-4.91,4.47-2.91,5-3,2.15-.18-6.46-5.43-8.18-3.82,0,0,3.38-5.7,3-6.47C416.73,518.71,425.43,525.59,423.69,522.17Z"/><path class="cls-7" d="M486.65,545.56a2.85,2.85,0,0,1,.58-1.4c1.2-1.51,4.28-4.41,7.37.84,2.19,3.73-1.21,7.58-1.21,7.58s-5.69,7.07-14.13,4.7c-2.71-.75-6.08-3.79-3.75-7.51,4.07-3.16,5.33.13,5.79.4,1.87,1.08-2.25-8.14-4.58-7.78,0,0,6-2.78,6.16-3.63C482.88,538.76,486.14,549.37,486.65,545.56Z"/><path class="cls-7" d="M583,598.22a2.85,2.85,0,0,1,.58-1.4c1.2-1.52,4.28-4.41,7.37.83,2.19,3.73-1.21,7.59-1.21,7.59s-5.69,7.07-14.13,4.7c-2.71-.76-6.08-3.79-3.76-7.51,4.08-3.16,5.33.13,5.79.4,1.88,1.07-2.24-8.14-4.57-7.78,0,0,6-2.78,6.15-3.63C579.26,591.42,582.53,602,583,598.22Z"/></g></svg>