<svg xmlns="http://www.w3.org/2000/svg" xmlns:xlink="http://www.w3.org/1999/xlink" viewBox="0 0 1024 1024"><defs><style>.cls-1,.cls-6{fill:#d8d8d8;}.cls-1{opacity:0.49;}.cls-2{fill:#42bac3;stroke:#c2c1c1;stroke-miterlimit:10;}.cls-3{fill:#42bbc4;}.cls-4{fill:url(#radial-gradient);}.cls-5{fill:#f4f0df;}.cls-7{fill:#e9d585;}.cls-8{fill:#e0dac6;}.cls-9{fill:#da78ae;}.cls-10{fill:#7bbc5f;}.cls-11{fill:#604325;}.cls-12{opacity:0.04;}</style><radialGradient id="radial-gradient" cx="513.85" cy="551.91" r="221.48" gradientUnits="userSpaceOnUse"><stop offset="0.9" stop-color="#41bac2" stop-opacity="0"/><stop offset="0.91" stop-color="#41b1c2" stop-opacity="0.09"/><stop offset="0.93" stop-color="#42a3c3" stop-opacity="0.23"/><stop offset="0.96" stop-color="#439ac3" stop-opacity="0.32"/><stop offset="0.98" stop-color="#4394c3" stop-opacity="0.38"/><stop offset="1" stop-color="#4392c3" stop-opacity="0.4"/></radialGradient></defs><g id="Plný_talíř" data-name="Plný talíř"><circle class="cls-1" cx="522.68" cy="567.28" r="304.91"/><circle class="cls-2" cx="513.85" cy="551.91" r="296.07"/><circle class="cls-3" cx="513.85" cy="551.91" r="221.48"/><circle class="cls-4" cx="513.85" cy="551.91" r="221.48"/><path class="cls-5" d="M512.49,412.49,511.78,427l-.24,4.61c-1-.38-2-.74-3-1.09-33.22-11.56-62-9.47-85.76-1.42-41.57,14.09-67.56,46.48-74.42,55.88-1.21,1.66-1.83,2.6-1.83,2.6l-3-3.52-5.29-6.24-4.07-4.8a8.45,8.45,0,0,1-.26-10.62,195,195,0,0,1,32.46-33.23l0,0q58.45-46.44,139.86-25.19A8.43,8.43,0,0,1,512.49,412.49Z"/><polygon class="cls-6" points="346.5 487.53 346.5 487.53 346.5 487.53 346.5 487.53"/><path class="cls-5" d="M511.54,431.56,501.33,637.65A12.13,12.13,0,0,1,480,644.9L346.5,487.53s27.35-41.9,76.25-58.48C447.2,420.76,477,418.79,511.54,431.56Z"/><path class="cls-7" d="M508.61,428.2,499.8,633.82a11.81,11.81,0,0,1-20.95,7.1L346.78,483.08s26.63-41.65,74.57-57.91C445.33,417,474.63,415.26,508.61,428.2Z"/><path class="cls-8" d="M511.78,427l-.24,4.61c-34.5-12.77-64.34-10.8-88.79-2.51-48.9,16.58-76.25,58.48-76.25,58.48l-3-3.52a7.64,7.64,0,0,1,1-1.7Q408.12,397.94,510,426.2A7.59,7.59,0,0,1,511.78,427Z"/><rect class="cls-9" x="470.24" y="486.86" width="21.36" height="15.03" transform="translate(3.48 -3.36) rotate(0.4)"/><rect class="cls-9" x="380.5" y="486.23" width="21.36" height="15.03" transform="translate(-149.65 170.77) rotate(-20.77)"/><rect class="cls-9" x="426.59" y="470.6" width="21.36" height="15.03" transform="translate(-44.11 44.45) rotate(-5.54)"/><rect class="cls-9" x="466.51" y="438.13" width="21.36" height="15.03" transform="translate(67.9 -63.07) rotate(8.14)"/><rect class="cls-9" x="474.26" y="558.9" width="12.36" height="8.7" transform="translate(-182.56 233.84) rotate(-23.12)"/><rect class="cls-9" x="457.13" y="588.63" width="12.36" height="8.7" transform="translate(-28.59 23.49) rotate(-2.82)"/><rect class="cls-9" x="411.46" y="517.99" width="21.36" height="15.03" transform="translate(3.69 -2.94) rotate(0.4)"/><rect class="cls-9" x="472.96" y="613.24" width="11.42" height="8.09" transform="translate(-106.14 99.44) rotate(-10.68)"/><rect class="cls-9" x="458.01" y="524.6" width="20.74" height="14.59" transform="translate(-171.21 226.59) rotate(-23.12)"/><rect class="cls-9" x="438.44" y="563.69" width="12.87" height="9.06" transform="translate(-74.32 67) rotate(-7.95)"/><ellipse class="cls-10" cx="446.43" cy="505.35" rx="5.62" ry="4.35" transform="translate(-193.89 294.01) rotate(-30.28)"/><ellipse class="cls-10" cx="452.58" cy="504.72" rx="5.62" ry="4.35" transform="translate(-192.74 297.02) rotate(-30.28)"/><ellipse class="cls-10" cx="396.43" cy="518.14" rx="5.62" ry="4.35" transform="translate(-240.72 658.38) rotate(-64.99)"/><ellipse class="cls-10" cx="401.12" cy="514.12" rx="5.62" ry="4.35" transform="translate(-234.37 660.32) rotate(-64.99)"/><ellipse class="cls-10" cx="397.91" cy="462.81" rx="5.62" ry="4.35" transform="translate(-127.55 152.3) rotate(-18.73)"/><ellipse class="cls-10" cx="404.05" cy="463.42" rx="5.62" ry="4.35" transform="translate(-127.42 154.31) rotate(-18.73)"/><ellipse class="cls-10" cx="441.26" cy="444.86" rx="5.62" ry="4.35" transform="matrix(0.95, -0.32, 0.32, 0.95, -119.49, 165.27)"/><ellipse class="cls-10" cx="447.4" cy="445.47" rx="5.62" ry="4.35" transform="translate(-119.36 167.28) rotate(-18.73)"/><ellipse class="cls-10" cx="422.34" cy="553.19" rx="5.62" ry="4.35" transform="translate(-272.1 506.87) rotate(-48.82)"/><ellipse class="cls-10" cx="427.97" cy="550.64" rx="5.62" ry="4.35" transform="translate(-268.26 510.23) rotate(-48.82)"/><ellipse class="cls-10" cx="473.79" cy="471.35" rx="5.62" ry="4.35" transform="translate(-192.92 517.63) rotate(-48.82)"/><ellipse class="cls-10" cx="479.41" cy="468.79" rx="5.62" ry="4.35" transform="translate(-189.08 520.99) rotate(-48.82)"/><ellipse class="cls-10" cx="478.69" cy="547.05" rx="5.62" ry="4.35" transform="translate(-205.49 301.48) rotate(-29.07)"/><ellipse class="cls-10" cx="484.84" cy="546.55" rx="5.62" ry="4.35" transform="translate(-204.47 304.41) rotate(-29.07)"/><ellipse class="cls-10" cx="462.53" cy="574.52" rx="3.08" ry="2.38" transform="translate(-160 178.97) rotate(-18.73)"/><ellipse class="cls-10" cx="465.9" cy="574.86" rx="3.08" ry="2.38" transform="translate(-159.93 180.07) rotate(-18.73)"/><ellipse class="cls-10" cx="482.14" cy="589.98" rx="2.67" ry="3.45" transform="translate(-108.38 108.5) rotate(-11.55)"/><ellipse class="cls-10" cx="481.29" cy="593.68" rx="2.67" ry="3.45" transform="translate(-109.14 108.41) rotate(-11.55)"/><path class="cls-5" d="M706.72,611.8Q678,654.07,639.16,672q-43.89,20.24-100.66,9.26a8.43,8.43,0,0,1-6.8-8.16l-.22-14.47-.06-4.62c1,.31,2.06.61,3.09.89,33.9,9.4,62.52,5.46,85.68-4.1,22.25-9.18,39.47-23.54,51.51-36.26a165.72,165.72,0,0,0,19.16-24.28c1.11-1.74,1.66-2.72,1.66-2.72l3.21,3.32,10,10.41A8.45,8.45,0,0,1,706.72,611.8Z"/><polygon class="cls-6" points="692.52 587.49 692.52 587.49 692.52 587.49 692.52 587.49"/><path class="cls-5" d="M692.52,587.49s-.55,1-1.66,2.72a165.72,165.72,0,0,1-19.16,24.28c-12,12.72-29.26,27.08-51.51,36.26-23.16,9.56-51.78,13.5-85.68,4.1-1-.28-2.06-.58-3.09-.89l-3.07-206.32A12.14,12.14,0,0,1,549.21,439l128.68,133.3Z"/><path class="cls-7" d="M534.56,657.12l-4.43-205.76a11.81,11.81,0,0,1,20.44-8.44L692.52,592s-23.89,43.27-70.69,62.58C598.43,664.19,569.3,667.85,534.56,657.12Z"/><path class="cls-8" d="M695.73,590.81a7.52,7.52,0,0,1-.87,1.75,187.57,187.57,0,0,1-27.22,33q-24.32,23.13-54.46,32.13a143.33,143.33,0,0,1-44.8,5.71,194.28,194.28,0,0,1-35-4.22,7.77,7.77,0,0,1-1.85-.63l-.06-4.62c1,.31,2.06.61,3.09.89,33.9,9.4,62.52,5.46,85.68-4.1,22.25-9.18,39.47-23.54,51.51-36.26a165.72,165.72,0,0,0,19.16-24.28c1.11-1.74,1.66-2.72,1.66-2.72Z"/><ellipse class="cls-10" cx="591.65" cy="576.13" rx="5.62" ry="4.35" transform="translate(-220.93 428.86) rotate(-33.97)"/><ellipse class="cls-10" cx="585.56" cy="577.16" rx="5.62" ry="4.35" transform="translate(-222.54 425.63) rotate(-33.97)"/><ellipse class="cls-10" cx="640.72" cy="560.15" rx="5.62" ry="4.35" transform="translate(-114.03 953.4) rotate(-68.68)"/><ellipse class="cls-10" cx="636.3" cy="564.46" rx="5.62" ry="4.35" transform="translate(-120.86 952.03) rotate(-68.68)"/><ellipse class="cls-10" cx="642.81" cy="615.47" rx="5.62" ry="4.35" transform="translate(-186.15 291.7) rotate(-22.42)"/><ellipse class="cls-10" cx="636.64" cy="615.25" rx="5.62" ry="4.35" transform="translate(-186.54 289.33) rotate(-22.42)"/><ellipse class="cls-10" cx="600.7" cy="636.16" rx="5.62" ry="4.35" transform="translate(-197.23 277.2) rotate(-22.42)"/><ellipse class="cls-10" cx="594.53" cy="635.95" rx="5.62" ry="4.35" transform="translate(-197.61 274.83) rotate(-22.42)"/><ellipse class="cls-10" cx="612.61" cy="526.84" rx="5.62" ry="4.35" transform="translate(-178.26 692.3) rotate(-52.51)"/><ellipse class="cls-10" cx="607.16" cy="529.75" rx="5.62" ry="4.35" transform="matrix(0.61, -0.79, 0.79, 0.61, -182.7, 689.11)"/><ellipse class="cls-10" cx="566.54" cy="611.83" rx="5.62" ry="4.35" transform="translate(-263.73 689) rotate(-52.51)"/><ellipse class="cls-10" cx="561.09" cy="614.73" rx="5.62" ry="4.35" transform="translate(-268.17 685.82) rotate(-52.51)"/><ellipse class="cls-10" cx="556.78" cy="536.6" rx="5.62" ry="4.35" transform="translate(-201.8 386.6) rotate(-32.76)"/><ellipse class="cls-10" cx="550.67" cy="537.49" rx="5.62" ry="4.35" transform="translate(-203.25 383.43) rotate(-32.76)"/><ellipse class="cls-10" cx="571.13" cy="508.14" rx="3.08" ry="2.38" transform="translate(-150.64 256.24) rotate(-22.42)"/><ellipse class="cls-10" cx="567.75" cy="508.02" rx="3.08" ry="2.38" transform="translate(-150.85 254.94) rotate(-22.42)"/><ellipse class="cls-10" cx="550.57" cy="493.97" rx="2.67" ry="3.45" transform="translate(-110.49 162.1) rotate(-15.24)"/><ellipse class="cls-10" cx="551.18" cy="490.23" rx="2.67" ry="3.45" transform="translate(-109.48 162.13) rotate(-15.24)"/><path class="cls-11" d="M575.65,554.06a2.89,2.89,0,0,1-.18,1.51c-.76,1.77-3,5.38-7.33,1.15-3.11-3-.85-7.63-.85-7.63s3.6-8.33,12.37-8.3c2.81,0,6.86,2,5.61,6.24-3.09,4.14-5.17,1.3-5.68,1.16-2.1-.54,4.33,7.25,6.48,6.28,0,0-5.06,4.29-5,5.14C581.1,559.61,575.13,550.26,575.65,554.06Z"/><path class="cls-11" d="M616.25,556a2.78,2.78,0,0,1,1.09,1.06c1,1.68,2.49,5.62-3.53,6.52-4.28.64-6.58-4-6.58-4s-4.43-7.91.92-14.86c1.71-2.23,5.79-4.22,8.37-.67,1.41,5-2.11,4.89-2.53,5.22-1.71,1.34,8.38,1,8.92-1.34,0,0,.33,6.62,1.06,7.07C624,555.08,612.92,554.14,616.25,556Z"/><path class="cls-11" d="M547.12,585.13a2.9,2.9,0,0,1-1.21.92c-1.8.69-5.92,1.62-5.92-4.46,0-4.33,4.89-5.92,4.89-5.92s8.48-3.22,14.56,3.11c1.95,2,3.31,6.35-.57,8.38-5.12.65-4.53-2.82-4.8-3.28-1.06-1.88-2.19,8.15,0,9,0,0-6.59-.65-7.14,0C546.93,592.9,549.49,582.11,547.12,585.13Z"/><path class="cls-11" d="M595,609.51a3,3,0,0,1-1.21.92c-1.81.69-5.93,1.62-5.93-4.46,0-4.33,4.89-5.93,4.89-5.93s8.48-3.21,14.56,3.12c1.95,2,3.31,6.35-.57,8.37-5.12.66-4.53-2.81-4.79-3.27-1.07-1.89-2.19,8.15,0,9,0,0-6.6-.65-7.15,0C594.84,617.28,597.4,606.49,595,609.51Z"/><path class="cls-11" d="M629.12,586.35a2.9,2.9,0,0,1-1.52,0c-1.86-.54-5.71-2.29-2-7.14,2.61-3.44,7.47-1.76,7.47-1.76s8.71,2.57,9.73,11.28c.33,2.79-1.2,7.06-5.52,6.33-4.48-2.57-1.91-5-1.84-5.51.29-2.15-6.67,5.17-5.45,7.19,0,0-4.86-4.51-5.7-4.32C624.26,592.42,632.83,585.37,629.12,586.35Z"/><path class="cls-11" d="M545.44,470.44a2.82,2.82,0,0,1-.49,1.44c-1.09,1.59-4,4.68-7.4-.36-2.44-3.57.71-7.64.71-7.64s5.22-7.43,13.8-5.61c2.75.58,6.31,3.39,4.23,7.25-3.87,3.42-5.33.22-5.81,0-1.94-1,2.77,8,5.08,7.47,0,0-5.83,3.16-5.91,4C549.65,477,545.7,466.61,545.44,470.44Z"/><path class="cls-11" d="M587.9,511.09a2.82,2.82,0,0,1-1.4.59c-1.92.23-6.14.1-4.63-5.79,1.08-4.19,6.21-4.52,6.21-4.52s9-1,13.33,6.64c1.38,2.45,1.63,7-2.64,8-5.12-.64-3.68-3.85-3.82-4.37-.57-2.09-4.15,7.35-2.25,8.74,0,0-6.23-2.27-6.92-1.77C585.78,518.58,591,508.76,587.9,511.09Z"/><path class="cls-11" d="M544,518.15a3,3,0,0,1,.4,1.46c0,1.93-.71,6.11-6.36,3.83-4-1.62-3.66-6.75-3.66-6.75s.2-9.07,8.34-12.34c2.61-1.05,7.13-.69,7.55,3.67-1.31,5-4.3,3.14-4.83,3.21-2.15.29,6.74,5.09,8.37,3.38,0,0-3.08,5.88-2.67,6.63C551.13,521.24,542.07,514.82,544,518.15Z"/><path class="cls-11" d="M552.27,636.57a2.9,2.9,0,0,1,0-1.52c.51-1.86,2.2-5.73,7.11-2.13,3.48,2.57,1.87,7.45,1.87,7.45s-2.44,8.74-11.13,9.89c-2.79.37-7.08-1.1-6.41-5.43,2.5-4.51,5-2,5.48-1.92,2.15.26-5.27-6.59-7.27-5.34,0,0,4.43-4.93,4.23-5.76C546.12,631.81,553.3,640.27,552.27,636.57Z"/><path class="cls-11" d="M671.46,596.38a2.78,2.78,0,0,1,1,1.11c.88,1.72,2.23,5.72-3.83,6.35-4.3.44-6.39-4.26-6.39-4.26s-4.06-8.11,1.61-14.81c1.81-2.14,6-3.94,8.39-.28,1.18,5-2.34,4.79-2.77,5.1-1.76,1.26,8.33,1.35,9-.92,0,0,0,6.63.73,7.1C679.22,595.77,668.22,594.33,671.46,596.38Z"/><path class="cls-12" d="M706.72,611.8Q678,654.07,639.16,672c13.56-16.36,22.58-32,28.48-46.36.49-1.19,1-2.37,1.4-3.54,1-2.57,1.87-5.09,2.66-7.56a134.38,134.38,0,0,0,4.62-19q.48-2.93.8-5.7a114.28,114.28,0,0,0,.82-13.11c0-1.5,0-2.94-.05-4.32l14.63,15.16,3.21,3.32,10,10.41A8.45,8.45,0,0,1,706.72,611.8Z"/><path class="cls-12" d="M366.35,429.12c-14.35,17.35-23,34-28.13,48.65l-4.07-4.8a8.45,8.45,0,0,1-.26-10.62A195,195,0,0,1,366.35,429.12Z"/></g></svg>