<svg xmlns="http://www.w3.org/2000/svg" xmlns:xlink="http://www.w3.org/1999/xlink" viewBox="0 0 1024 1024"><defs><style>.cls-1{fill:#fff;}.cls-2,.cls-8{fill:#d8d8d8;}.cls-2{opacity:0.49;}.cls-3{fill:url(#radial-gradient);}.cls-4{fill:#42bac3;stroke:#c2c1c1;stroke-miterlimit:10;}.cls-5{fill:url(#radial-gradient-2);}.cls-6{mask:url(#mask);}.cls-7{fill:#f4f0df;}.cls-9{fill:#e9d585;}.cls-10{fill:#e0dac6;}.cls-11{fill:#da78ae;}.cls-12{fill:#7bbc5f;}.cls-13{mask:url(#mask-2);}.cls-14{fill:#604325;}.cls-15{filter:url(#luminosity-invert);}</style><radialGradient id="radial-gradient" cx="503.17" cy="541.09" r="221.48" gradientUnits="userSpaceOnUse"><stop offset="0.9" stop-color="#fff"/><stop offset="1" stop-color="#3e3e3e" stop-opacity="0.01"/></radialGradient><radialGradient id="radial-gradient-2" cx="503.17" cy="551.91" r="221.48" gradientUnits="userSpaceOnUse"><stop offset="0.9" stop-color="#41bac2" stop-opacity="0"/><stop offset="0.91" stop-color="#41b1c2" stop-opacity="0.09"/><stop offset="0.93" stop-color="#42a3c3" stop-opacity="0.23"/><stop offset="0.96" stop-color="#439ac3" stop-opacity="0.32"/><stop offset="0.98" stop-color="#4394c3" stop-opacity="0.38"/><stop offset="1" stop-color="#4392c3" stop-opacity="0.4"/></radialGradient><filter id="luminosity-invert" filterUnits="userSpaceOnUse" color-interpolation-filters="sRGB"><feColorMatrix values="-1 0 0 0 1 0 -1 0 0 1 0 0 -1 0 1 0 0 0 1 0"/></filter><mask id="mask" x="315.97" y="395.05" width="208.88" height="266.96" maskUnits="userSpaceOnUse"><g class="cls-15"><rect x="315.97" y="395.05" width="208.88" height="186.2"/><path class="cls-1" d="M416.72,589.17s16.37-26.85,32.18-26.32c0,0,7.15-15.42,17.66-5.65,0,0,13.46-13.29,29.28-1.71,0,0,16.11,6.61,22,1.71L516.53,662l-97.17-15.84Z"/></g></mask><mask id="mask-2" x="386.28" y="425.83" width="326.25" height="300.26" maskUnits="userSpaceOnUse"><g class="cls-15"><rect x="444.43" y="444.62" width="209.93" height="262.68" transform="translate(254.57 1315.31) rotate(-114.61)"/><path class="cls-1" d="M572.63,683.67s-.83-44.87-26.4-42.44c0,0,3.3-37.49-25.94-40.34,0,0-8.85-19.15-18.46-21.13L434.61,688.88l25.86,27.3Z"/></g></mask></defs><g id="Poloprázdný_talíř" data-name="Poloprázdný talíř"><circle class="cls-2" cx="512" cy="556.46" r="304.91"/><circle class="cls-3" cx="503.17" cy="541.09" r="221.48"/><circle class="cls-2" cx="512" cy="567.28" r="304.91"/><circle class="cls-4" cx="503.17" cy="551.91" r="296.07"/><circle class="cls-5" cx="503.17" cy="551.91" r="221.48"/><g class="cls-6"><path class="cls-7" d="M517,418.25l-.71,14.46-.24,4.61c-1-.38-2-.74-3-1.09-33.22-11.56-62-9.47-85.76-1.42-41.57,14.09-67.56,46.48-74.42,55.88-1.21,1.66-1.83,2.6-1.83,2.6l-3-3.52-5.29-6.24-4.07-4.8a8.45,8.45,0,0,1-.26-10.62,195,195,0,0,1,32.46-33.23l0,0q58.45-46.44,139.86-25.19A8.43,8.43,0,0,1,517,418.25Z"/><polygon class="cls-8" points="351.05 493.29 351.05 493.29 351.05 493.29 351.05 493.29"/><path class="cls-7" d="M516.1,437.32l-10.22,206.1a12.13,12.13,0,0,1-21.36,7.24L351.05,493.29s27.35-41.9,76.25-58.48C451.75,426.52,481.59,424.55,516.1,437.32Z"/><path class="cls-9" d="M513.16,434l-8.81,205.62a11.81,11.81,0,0,1-21,7.11L351.34,488.84s26.62-41.65,74.56-57.9C449.88,422.8,479.19,421,513.16,434Z"/><path class="cls-10" d="M516.33,432.71l-.23,4.61c-34.51-12.77-64.35-10.8-88.8-2.51-48.9,16.58-76.25,58.48-76.25,58.48l-3-3.52a7.75,7.75,0,0,1,1-1.69Q412.67,403.69,514.52,432A7.59,7.59,0,0,1,516.33,432.71Z"/><rect class="cls-11" x="474.8" y="492.62" width="21.36" height="15.03" transform="translate(3.52 -3.39) rotate(0.4)"/><rect class="cls-11" x="385.06" y="492" width="21.36" height="15.03" transform="translate(-151.39 172.76) rotate(-20.77)"/><rect class="cls-11" x="431.14" y="476.37" width="21.36" height="15.03" transform="translate(-44.65 44.91) rotate(-5.54)"/><rect class="cls-11" x="471.06" y="443.89" width="21.36" height="15.03" transform="translate(68.77 -63.66) rotate(8.14)"/><rect class="cls-11" x="478.81" y="564.66" width="12.36" height="8.7" transform="translate(-184.45 236.09) rotate(-23.12)"/><rect class="cls-11" x="461.68" y="594.39" width="12.36" height="8.7" transform="translate(-28.86 23.72) rotate(-2.82)"/><rect class="cls-11" x="416.01" y="523.76" width="21.36" height="15.03" transform="translate(3.73 -2.98) rotate(0.4)"/><rect class="cls-11" x="477.51" y="619" width="11.42" height="8.09" transform="translate(-107.13 100.38) rotate(-10.68)"/><rect class="cls-11" x="462.56" y="530.36" width="20.74" height="14.59" transform="translate(-173.11 228.84) rotate(-23.12)"/><rect class="cls-11" x="443" y="569.45" width="12.87" height="9.06" transform="translate(-75.08 67.69) rotate(-7.95)"/><ellipse class="cls-12" cx="450.99" cy="511.11" rx="5.62" ry="4.35" transform="translate(-196.18 297.1) rotate(-30.28)"/><ellipse class="cls-12" cx="457.13" cy="510.48" rx="5.62" ry="4.35" transform="translate(-195.02 300.11) rotate(-30.28)"/><ellipse class="cls-12" cx="400.98" cy="523.9" rx="5.62" ry="4.35" transform="translate(-243.31 665.84) rotate(-64.99)"/><ellipse class="cls-12" cx="405.67" cy="519.89" rx="5.62" ry="4.35" transform="translate(-236.96 667.77) rotate(-64.99)"/><ellipse class="cls-12" cx="402.46" cy="468.57" rx="5.62" ry="4.35" transform="translate(-129.16 154.07) rotate(-18.73)"/><ellipse class="cls-12" cx="408.6" cy="469.18" rx="5.62" ry="4.35" transform="translate(-129.03 156.07) rotate(-18.73)"/><ellipse class="cls-12" cx="445.81" cy="450.63" rx="5.62" ry="4.35" transform="matrix(0.95, -0.32, 0.32, 0.95, -121.1, 167.04)"/><ellipse class="cls-12" cx="451.96" cy="451.24" rx="5.62" ry="4.35" transform="translate(-120.97 169.05) rotate(-18.73)"/><ellipse class="cls-12" cx="426.9" cy="558.95" rx="5.62" ry="4.35" transform="translate(-274.88 512.26) rotate(-48.82)"/><ellipse class="cls-12" cx="432.52" cy="556.4" rx="5.62" ry="4.35" transform="translate(-271.04 515.62) rotate(-48.82)"/><ellipse class="cls-12" cx="478.34" cy="477.11" rx="5.62" ry="4.35" transform="translate(-195.7 523.02) rotate(-48.82)"/><ellipse class="cls-12" cx="483.96" cy="474.56" rx="5.62" ry="4.35" transform="translate(-191.86 526.39) rotate(-48.82)"/><ellipse class="cls-12" cx="483.24" cy="552.81" rx="5.62" ry="4.35" transform="translate(-207.72 304.42) rotate(-29.07)"/><ellipse class="cls-12" cx="489.39" cy="552.31" rx="5.62" ry="4.35" transform="translate(-206.7 307.35) rotate(-29.07)"/><ellipse class="cls-12" cx="467.09" cy="580.28" rx="3.08" ry="2.38" transform="translate(-161.61 180.74) rotate(-18.73)"/><ellipse class="cls-12" cx="470.46" cy="580.62" rx="3.08" ry="2.38" transform="translate(-161.54 181.84) rotate(-18.73)"/><ellipse class="cls-12" cx="486.69" cy="595.75" rx="2.67" ry="3.45" transform="translate(-109.44 109.53) rotate(-11.55)"/><ellipse class="cls-12" cx="485.85" cy="599.44" rx="2.67" ry="3.45" transform="translate(-110.2 109.43) rotate(-11.55)"/></g><g class="cls-13"><path class="cls-7" d="M557.82,469.16q50.41,8.54,82.82,36.37Q677.32,537,691,593.19a8.42,8.42,0,0,1-4.58,9.58L673.33,609l-4.17,2c-.15-1.07-.3-2.13-.48-3.18-5.57-34.74-21.07-59.12-39.41-76.19-17.61-16.41-37.84-26.08-54.42-31.73a165.25,165.25,0,0,0-30.05-7.31c-2-.28-3.16-.38-3.16-.38l1.68-4.3,5.28-13.47A8.44,8.44,0,0,1,557.82,469.16Z"/><polygon class="cls-8" points="541.63 492.19 541.63 492.19 541.63 492.19 541.63 492.19"/><path class="cls-7" d="M541.64,492.19s1.12.1,3.16.38a165.25,165.25,0,0,1,30.05,7.31c16.58,5.65,36.81,15.32,54.42,31.73,18.34,17.07,33.84,41.45,39.41,76.19.18,1.05.33,2.11.48,3.18l-186.3,88.71a12.13,12.13,0,0,1-16.51-15.38L534,511.81Z"/><path class="cls-9" d="M670.73,606.8,485.5,696.53a11.81,11.81,0,0,1-16.18-15.08l76.37-191.12S595,494,632,528.54C650.55,545.79,666,570.75,670.73,606.8Z"/><path class="cls-10" d="M543.32,487.89a8,8,0,0,1,1.95.06,188,188,0,0,1,41.37,11q31.15,12.46,51.89,36.13a143.5,143.5,0,0,1,23.85,38.35,194.44,194.44,0,0,1,10.76,33.62,7.59,7.59,0,0,1,.19,2l-4.17,2c-.15-1.07-.3-2.13-.48-3.18-5.57-34.74-21.07-59.12-39.41-76.19-17.61-16.41-37.84-26.08-54.42-31.73a165.25,165.25,0,0,0-30.05-7.31c-2-.28-3.16-.38-3.16-.38Z"/><ellipse class="cls-12" cx="573.32" cy="588.63" rx="4.35" ry="5.62" transform="translate(-227.88 770.99) rotate(-58.58)"/><ellipse class="cls-12" cx="576.79" cy="593.74" rx="4.35" ry="5.62" transform="translate(-230.58 776.39) rotate(-58.58)"/><ellipse class="cls-12" cx="538.35" cy="550.67" rx="5.62" ry="4.35" transform="translate(-30.75 31.84) rotate(-3.29)"/><ellipse class="cls-12" cx="544.11" cy="552.89" rx="5.62" ry="4.35" transform="translate(-30.87 32.18) rotate(-3.29)"/><ellipse class="cls-12" cx="587.77" cy="525.74" rx="4.35" ry="5.62" transform="translate(-197.55 597.5) rotate(-47.03)"/><ellipse class="cls-12" cx="590.15" cy="531.44" rx="4.35" ry="5.62" transform="translate(-200.96 601.05) rotate(-47.03)"/><ellipse class="cls-12" cx="624.12" cy="555.4" rx="4.35" ry="5.62" transform="translate(-207.68 633.54) rotate(-47.03)"/><ellipse class="cls-12" cx="626.5" cy="561.1" rx="4.35" ry="5.62" transform="translate(-211.09 637.1) rotate(-47.03)"/><ellipse class="cls-12" cx="519.78" cy="590.1" rx="4.35" ry="5.62" transform="matrix(0.22, -0.97, 0.97, 0.22, -171.32, 965.3)"/><ellipse class="cls-12" cx="524.69" cy="593.84" rx="4.35" ry="5.62" transform="translate(-171.15 973) rotate(-77.12)"/><ellipse class="cls-12" cx="616.23" cy="596.6" rx="4.35" ry="5.62" transform="translate(-102.7 1064.37) rotate(-77.12)"/><ellipse class="cls-12" cx="621.14" cy="600.34" rx="4.35" ry="5.62" transform="translate(-102.53 1072.07) rotate(-77.12)"/><ellipse class="cls-12" cx="551.9" cy="636.8" rx="4.35" ry="5.62" transform="translate(-281.99 758.2) rotate(-57.37)"/><ellipse class="cls-12" cx="555.26" cy="641.98" rx="4.35" ry="5.62" transform="translate(-284.8 763.42) rotate(-57.37)"/><ellipse class="cls-12" cx="520.05" cy="635.6" rx="2.38" ry="3.08" transform="translate(-299.5 582.93) rotate(-47.03)"/><ellipse class="cls-12" cx="521.35" cy="638.73" rx="2.38" ry="3.08" transform="matrix(0.68, -0.73, 0.73, 0.68, -301.38, 584.87)"/><ellipse class="cls-12" cx="515.73" cy="660.19" rx="3.45" ry="2.67" transform="translate(-303.25 483.84) rotate(-39.85)"/><ellipse class="cls-12" cx="512.08" cy="661.2" rx="3.45" ry="2.67" transform="translate(-304.75 481.74) rotate(-39.85)"/><path class="cls-14" d="M559.91,612.37a2.79,2.79,0,0,1,1.45-.46c1.93-.06,6.13.44,4.1,6.18-1.44,4.08-6.58,3.95-6.58,3.95s-9.08.2-12.7-7.79c-1.16-2.56-1-7.09,3.34-7.71,5,1.09,3.33,4.17,3.42,4.69.38,2.13,4.78-7,3-8.51,0,0,6,2.82,6.74,2.38C562.69,605.1,556.67,614.43,559.91,612.37Z"/><path class="cls-14" d="M544.8,574.63a2.91,2.91,0,0,1,.51-1.43c1.13-1.57,4.08-4.6,7.4.49,2.37,3.63-.85,7.63-.85,7.63s-5.35,7.33-13.9,5.36c-2.74-.63-6.25-3.51-4.1-7.33,3.93-3.35,5.33-.12,5.81.13,1.92,1-2.63-8-4.94-7.56,0,0,5.88-3.06,6-3.91C540.71,568,544.47,578.45,544.8,574.63Z"/><path class="cls-14" d="M600,625.36a2.88,2.88,0,0,1,1.34.72c1.38,1.35,4,4.71-1.59,7.25-3.93,1.8-7.42-2-7.42-2s-6.45-6.38-3.23-14.54c1-2.61,4.39-5.66,7.85-3,2.73,4.38-.67,5.28-1,5.72-1.27,1.75,8.32-1.41,8.21-3.76,0,0,2.15,6.27,3,6.49C607.19,622.3,596.31,624.47,600,625.36Z"/><path class="cls-14" d="M602.25,571.65a2.88,2.88,0,0,1,1.34.72c1.38,1.35,3.95,4.71-1.59,7.24-3.93,1.81-7.42-2-7.42-2s-6.45-6.38-3.23-14.54c1-2.61,4.39-5.66,7.85-3,2.73,4.38-.67,5.29-1,5.72-1.27,1.76,8.32-1.4,8.21-3.75,0,0,2.15,6.27,3,6.49C609.4,568.59,598.52,570.76,602.25,571.65Z"/><path class="cls-14" d="M567,550.31a2.77,2.77,0,0,1,.63,1.38c.29,1.91.3,6.14-5.64,4.82-4.22-.94-4.71-6.06-4.71-6.06s-1.29-9,6.2-13.54c2.4-1.46,6.92-1.85,8,2.38-.47,5.14-3.73,3.81-4.24,4-2.07.63,7.48,3.91,8.81,2,0,0-2.07,6.3-1.55,7C574.55,552.19,564.57,547.35,567,550.31Z"/><path class="cls-14" d="M496.47,674.66a2.93,2.93,0,0,1,1.52-.16c1.9.34,5.91,1.68,2.76,6.88-2.25,3.71-7.25,2.54-7.25,2.54s-8.93-1.65-10.85-10.21c-.62-2.74.46-7.15,4.83-6.87,4.72,2.09,2.42,4.76,2.4,5.29-.06,2.16,6.1-5.84,4.68-7.72,0,0,5.3,4,6.11,3.7C500.67,668.11,492.89,676,496.47,674.66Z"/><path class="cls-14" d="M515.75,619.12a3,3,0,0,1,1.12,1c1,1.65,2.65,5.55-3.34,6.62-4.26.77-6.7-3.76-6.7-3.76s-4.66-7.78.49-14.88c1.65-2.28,5.66-4.39,8.34-.92,1.56,4.92-2,4.95-2.37,5.29-1.67,1.39,8.41.72,8.88-1.59,0,0,.52,6.61,1.27,7C523.44,617.94,512.36,617.33,515.75,619.12Z"/><path class="cls-14" d="M540.45,656.11a2.9,2.9,0,0,1,1.17-1c1.76-.78,5.84-1.9,6.12,4.18.2,4.32-4.61,6.14-4.61,6.14s-8.33,3.6-14.69-2.44c-2-1.93-3.6-6.19.19-8.39,5.08-.9,4.65,2.6,4.94,3,1.15,1.83,1.81-8.24-.42-9,0,0,6.62.36,7.14-.33C540.29,648.33,538.23,659.24,540.45,656.11Z"/><path class="cls-14" d="M644.67,599.26a2.88,2.88,0,0,1-1.37.66c-1.91.31-6.14.39-4.9-5.57.88-4.24,6-4.81,6-4.81s9-1.42,13.63,6c1.49,2.38,2,6.89-2.27,8.08-5.14-.39-3.86-3.67-4-4.18-.67-2.06-3.8,7.54-1.83,8.84,0,0-6.33-2-7-1.45C642.9,606.84,647.6,596.79,644.67,599.26Z"/><path class="cls-14" d="M558.48,507.64a2.89,2.89,0,0,1,.58-1.41c1.2-1.51,4.28-4.41,7.37.84,2.19,3.73-1.21,7.58-1.21,7.58s-5.68,7.07-14.13,4.71c-2.71-.76-6.08-3.8-3.75-7.51,4.07-3.17,5.33.12,5.79.39,1.87,1.08-2.25-8.14-4.58-7.78,0,0,6-2.78,6.16-3.62C554.71,500.84,558,511.44,558.48,507.64Z"/></g></g></svg>