<svg xmlns="http://www.w3.org/2000/svg" viewBox="0 0 1024 1024"><defs><style>.cls-1{fill:none;stroke:#43738e;stroke-miterlimit:10;}.cls-2{fill:#4f3516;}.cls-3{fill:#342513;}.cls-4{fill:#e3d64c;}.cls-5{fill:#d6ce3a;}</style></defs><g id="Banán"><path id="Vnitřek_banánu" data-name="Vnitřek banánu" class="cls-1" d="M531,275.33s145.22,45.72,137.11,315.88c0,0-20.54,273.57-213.8,277.84l-15.52,2.61s-10.72-12.85-19.71-19.8c5.09-7.89-.6-12.57,14.54-38.85,0,0,222.7-224.29,20.11-481.49a20,20,0,0,1-3.3-18.87c2.82-8.3,7.49-18.1,11.6-26.1A38.65,38.65,0,0,1,502,265.91C510,267.1,519.63,269.9,531,275.33Z"/><path class="cls-2" d="M386.8,150.87l3.11,21.3s1.07,3.79,3.41,9.73L353.6,197.37c-6.49-8.89-15.09-23.91-11.45-37.38Z"/><polygon class="cls-3" points="381.09 141.19 386.8 150.87 342.15 159.99 350.28 143.63 381.09 141.19"/><path class="cls-4" d="M476.48,254.41c-19.71,9-32,31.07-36.28,40-1.15,2.37-1.73,3.8-1.73,3.8s-20.72-36.83-78.49-93a82.71,82.71,0,0,1-6.38-7.8l39.72-15.47C401.74,203.36,426.56,253,476.48,254.41Z"/><path class="cls-5" d="M438.47,298.17c-.94,10.72-2.49-26.79,38-43.76l-1.19,40.38Z"/><path class="cls-5" d="M353.6,197.37c57.1,47.64,86.6,97,86.6,97-1.15,2.37-1.73,3.8-1.73,3.8s-20.72-36.83-78.49-93A82.71,82.71,0,0,1,353.6,197.37Z"/><path class="cls-3" d="M412.06,862.52a96.23,96.23,0,0,1,9.78,6.52c9.9,7.65,9,11.6,9,11.6S411.88,869.78,412.06,862.52Z"/><path class="cls-4" d="M681.16,592.69S657.84,878.11,445,882.81l-14.07-2.17s.86-3.95-9-11.6C430.07,860.9,553.48,736.9,569,595.37c0,0,0-.06,0-.19s0-.08,0-.13c.26-2.62,1.9-20.81-.45-47.54-5.19-59.3-29.9-160.66-132.35-227.4l0,0a51.25,51.25,0,0,1-.39-5.19,45.4,45.4,0,0,1,.64-9.29,39.33,39.33,0,0,1,1.26-5.26c.22-.73.47-1.46.74-2.18,0,0,13-32.41,38-43.76,0,0,21.77-6.25,32.47-3C509,251.43,701.89,298.07,681.16,592.69Z"/><path class="cls-5" d="M569.06,595.05c0,.05,0,.09,0,.13s0,.19,0,.19C553.48,736.9,430.07,860.9,421.84,869a96.23,96.23,0,0,0-9.78-6.52s-3.71-27.79,34-85.22c0,0,176.16-207.33-2.51-434.31a66.58,66.58,0,0,1-7.23-22.12s0-.3-.06-.76c-.09-1-.25-2.92-.43-5.21a45.4,45.4,0,0,1,.64-9.29c101.83,68.92,127.44,177.85,132.14,241.9C570.57,574.32,569.26,592.48,569.06,595.05Z"/></g></svg>