<svg xmlns="http://www.w3.org/2000/svg" viewBox="0 0 1024 1024"><defs><style>.cls-1{fill:#eee7c8;}.cls-2{fill:#e0dbc3;}.cls-3{opacity:0.25;}.cls-4{fill:#342513;}.cls-5{fill:#e3d64c;}.cls-6{fill:#d6ce3a;}.cls-7{fill:#d8d17f;}.cls-8{fill:#d8c748;}.cls-9{fill:#b7b06c;}</style></defs><g id="Oloupaný_banán" data-name="Oloupaný banán"><path class="cls-1" d="M581.44,529.08s-20.55,273.57-213.8,277.84l-15.52,2.6s-10.73-12.85-19.72-19.79c5.09-7.89-.59-12.57,14.55-38.85,0,0,92.85-93.52,104.1-229q1-11.57,1.09-23.53c0-.34,0-.69,0-1q0-3.7,0-7.46c0-.36,0-.72,0-1.07-.08-3.6-.21-7.22-.41-10.87l-.06-1.08q-.54-9.51-1.7-19.23c0-.35-.08-.7-.13-1.05q-.76-6.37-1.82-12.83l-.18-1.06q-1.6-9.64-3.87-19.48c-.08-.34-.16-.68-.23-1q-2.11-9-4.8-18.12c-.09-.32-.18-.65-.29-1q-2.22-7.47-4.86-15l-.33-1q-3-8.53-6.56-17.18l-.39-.94q-2.76-6.65-5.87-13.36c-.13-.31-.28-.62-.42-.93q-3.12-6.71-6.61-13.48c-.15-.3-.3-.61-.46-.91q-3.24-6.25-6.78-12.55c-.16-.29-.33-.58-.5-.87q-4.35-7.71-9.21-15.49h0l-.54-.86q-4.8-7.63-10.07-15.33l-.57-.82q-4.9-7.12-10.24-14.29l-.6-.8q-3.33-4.45-6.84-8.92l-.62-.79-.09-.12a23.06,23.06,0,0,1-2.8-5.76v0a75.14,75.14,0,0,1-2.49-8.44c-.09-.36-.17-.73-.25-1.1a84.29,84.29,0,0,1-1.85-12.41c0-.45-.06-.89-.08-1.34h0c0-.78-.06-1.56-.07-2.33v-.49c0-5.52.81-10.64,2.94-14.3,3.44-5.92,10.31-10.68,18.33-14l1-.41h0c2-.8,4-1.51,6.12-2.14l1.56-.46h0a75,75,0,0,1,17.91-2.77l1.26,0a45.55,45.55,0,0,1,6.7.45,84.66,84.66,0,0,1,9.95,2.14l1,.29A111,111,0,0,1,439.4,211l.94.4c1.3.57,2.63,1.18,4,1.83a73.75,73.75,0,0,1,9,3.78c.29.14.6.28.9.44a144.13,144.13,0,0,1,17.29,10.16l.83.56a179.1,179.1,0,0,1,14.25,10.93l.77.66c4.17,3.57,8.49,7.58,12.88,12.08.23.24.47.48.7.73,4.23,4.37,8.52,9.2,12.82,14.53l.64.8c3.73,4.67,7.46,9.72,11.14,15.17l.58.86q4.45,6.66,8.78,14.12l.53.91c3.28,5.72,6.49,11.81,9.58,18.29l.46,1c2.51,5.3,4.94,10.84,7.28,16.66.14.34.28.68.41,1q3.45,8.64,6.59,18.07c.12.35.24.71.35,1.07q3.73,11.29,6.95,23.75l.27,1.07q2.51,9.85,4.65,20.46l.21,1.11q2.1,10.61,3.79,22c.06.36.11.72.16,1.08q1.46,9.94,2.55,20.51c0,.35.08.71.11,1.06q.87,8.48,1.5,17.34c0,.36,0,.73.07,1.09C581.7,484.43,582.13,505.93,581.44,529.08Z"/><path class="cls-2" d="M476.28,504.78l-24.65,18.8-.58-1.73q1-11.57,1.09-23.53c0-.34,0-.69,0-1q0-3.7,0-7.46c0-.36,0-.72,0-1.07-.08-3.6-.21-7.22-.41-10.87l-.06-1.08q-.54-9.51-1.7-19.23c0-.35-.08-.7-.13-1.05q-.76-6.37-1.82-12.83l-.18-1.06q-1.6-9.64-3.87-19.48c-.08-.34-.16-.68-.23-1q-2.11-9-4.8-18.12c-.09-.32-.18-.65-.29-1q-2.22-7.47-4.86-15l-.33-1q-3-8.53-6.56-17.18l-.39-.94q-2.76-6.65-5.87-13.36c-.13-.31-.28-.62-.42-.93q-3.12-6.71-6.61-13.48c-.15-.3-.3-.61-.46-.91q-3.24-6.25-6.78-12.55c-.16-.29-.33-.58-.5-.87q-4.35-7.71-9.21-15.49h0l-.54-.86q-4.8-7.63-10.07-15.33l-.57-.82q-4.9-7.12-10.24-14.29l-.6-.8q-3.33-4.45-6.84-8.92l-.62-.79-.09-.12a23.06,23.06,0,0,1-2.8-5.76v0c93.16,64.93,107,219.56,107,219.56Z"/><g class="cls-3"><path class="cls-2" d="M546.44,483.22C529.17,345.88,485,278.8,451,246.71c-36.8-34.74-69.95-37.07-70.28-37.09l.06-1c.33,0,33.78,2.35,70.84,37.3,21.74,20.49,40.46,48,55.66,81.87,19,42.26,32.49,94.51,40.14,155.3Z"/><path class="cls-2" d="M491.06,483.19c-7.35-105.77-42.77-166.82-71.2-199.42-30.79-35.31-60.22-45.75-60.52-45.86l.33-.94c.29.1,29.94,10.61,60.9,46.09,18.17,20.82,33.24,46.05,44.81,75,14.45,36.16,23.42,78.23,26.67,125.07Z"/><path class="cls-2" d="M426.28,206.2q-5.31,7.38-10.5,14l-.63.79a371.22,371.22,0,0,1-28,31.54l-.72.71c-8,8-14.53,13.66-18.69,17.1l-.62-.79c4.12-3.39,10.57-9,18.49-16.89l.72-.72a368,368,0,0,0,27.9-31.41l.63-.79c3.4-4.33,6.88-8.92,10.38-13.78Z"/><path class="cls-2" d="M408.61,203.32q-3.92,5.38-7.75,10.26l-.64.83a315.81,315.81,0,0,1-26.31,29.5l-.74.74c-4.23,4.12-8.07,7.61-11.42,10.5-.09-.36-.17-.73-.25-1.1,3.18-2.76,6.81-6.06,10.77-9.92l.74-.73a314,314,0,0,0,26.2-29.35c.22-.27.44-.55.65-.83q3.7-4.69,7.49-9.88Z"/><path class="cls-2" d="M389.43,206.11q-1.26,1.75-2.52,3.45l-.65.89a307.3,307.3,0,0,1-23.36,27.84c-.24.26-.49.51-.73.76-.86.89-1.7,1.76-2.52,2.59,0-.45-.06-.89-.08-1.34h0c.53-.54,1.07-1.09,1.61-1.66.25-.25.5-.51.74-.77a300.53,300.53,0,0,0,23.24-27.62l.67-.89c.68-.91,1.36-1.84,2-2.78Z"/><path class="cls-2" d="M440.34,211.36q-6.07,8.56-12.09,16.06l-.62.78a330.86,330.86,0,0,1-29.82,32.52l-.73.7A245.31,245.31,0,0,1,375.2,280l-.6-.8a243.64,243.64,0,0,0,21.7-18.44h0l.73-.69a329.92,329.92,0,0,0,29.74-32.42l.63-.78c4-5,8-10.27,12-15.92Z"/><path class="cls-2" d="M454.19,217.41c-4.54,6.81-9,13.16-13.43,19.05l-.6.8a384.51,384.51,0,0,1-29.61,35.08c-.24.25-.48.49-.7.73A260.8,260.8,0,0,1,386,295.12l-.57-.82a257.32,257.32,0,0,0,23.7-21.93l.7-.73a382.77,382.77,0,0,0,29.54-35c.19-.26.39-.53.6-.8q6.52-8.76,13.31-18.87C453.58,217.11,453.89,217.25,454.19,217.41Z"/><path class="cls-2" d="M472.31,228.13q-8.52,11.51-16.74,21.6l-.64.78c-11.25,13.8-21.95,25.64-31.72,35.64-.22.24-.46.48-.7.72-9.73,9.94-18.49,18-25.89,24.44l-.54-.86c7.37-6.37,16.1-14.45,25.78-24.35.24-.24.48-.48.7-.72,9.75-10,20.43-21.8,31.67-35.58l.62-.77q8.14-10,16.63-21.46Z"/><path class="cls-2" d="M487.33,239.72q-9.6,13-18.84,24.23l-.66.82c-11.76,14.29-22.89,26.41-32.93,36.53l-.74.75c-10.75,10.79-20.21,19.27-27.83,25.63-.16-.29-.33-.58-.5-.87,7.6-6.36,17-14.83,27.75-25.59l.74-.74c10-10.11,21.13-22.23,32.86-36.5l.66-.81Q477,252,486.56,239.06Z"/><path class="cls-2" d="M500.91,252.53c-7.3,9.31-14.47,17.9-21.42,25.8l-.74.84c-12.47,14.13-24.21,26-34.75,35.93l-.8.74c-11.57,10.81-21.66,19.16-29.63,25.3-.15-.3-.3-.61-.46-.91,7.95-6.14,18-14.47,29.56-25.26l.79-.74c10.52-9.88,22.25-21.79,34.7-35.9l.73-.84q10.38-11.81,21.32-25.69C500.44,252,500.68,252.28,500.91,252.53Z"/><path class="cls-2" d="M514.37,267.86c-8.29,9.81-16.38,18.77-24.18,26.94l-.8.85c-13.28,13.87-25.68,25.41-36.66,34.86l-.85.73a395.15,395.15,0,0,1-31.28,24.31c-.13-.31-.28-.62-.42-.93a393.76,393.76,0,0,0,31.22-24.29l.86-.73c11-9.45,23.34-21,36.59-34.84l.81-.84c7.76-8.14,15.82-17.08,24.07-26.86Z"/><path class="cls-2" d="M526.09,283.89c-9.18,10.11-18.1,19.29-26.65,27.57-.28.29-.56.56-.85.83-14,13.5-26.93,24.64-38.34,33.68l-.9.71a386.77,386.77,0,0,1-32.49,23.17l-.39-.94a383.93,383.93,0,0,0,32.46-23.17l.89-.71c11.39-9,24.34-20.17,38.29-33.67.29-.27.57-.54.85-.83,8.52-8.26,17.41-17.41,26.55-27.5Z"/><path class="cls-2" d="M535.4,298.92c-9.6,10.76-18.95,20.5-27.91,29.28l-.87.85c-14.21,13.87-27.42,25.31-39.06,34.6l-.91.72A389.22,389.22,0,0,1,433.75,388l-.33-1a396,396,0,0,0,32.85-23.63l.91-.72c11.62-9.29,24.81-20.73,39-34.6l.87-.85c8.94-8.77,18.26-18.48,27.82-29.22Z"/><path class="cls-2" d="M545.44,318.17c-10.38,10.74-20.46,20.4-30.07,29.05l-.89.8a521.58,521.58,0,0,1-40.85,33.19l-.93.68A388.66,388.66,0,0,1,438.9,404c-.09-.32-.18-.65-.29-1a388.39,388.39,0,0,0,33.77-22.15l.94-.68c12.09-8.84,25.87-19.8,40.78-33.18l.89-.8c9.59-8.65,19.63-18.3,30-29Z"/><path class="cls-2" d="M553.13,335.85C542.37,347,532,356.92,522,365.81h0l-.89.79a515.26,515.26,0,0,1-42,33.84l-.92.66a377.46,377.46,0,0,1-34.27,22c-.08-.34-.16-.68-.23-1a375,375,0,0,0,34.24-22.07c.3-.21.61-.43.91-.66a513.85,513.85,0,0,0,41.93-33.83c.3-.25.6-.52.9-.8,9.9-8.87,20.31-18.83,31-29.94C552.86,335.17,553,335.51,553.13,335.85Z"/><path class="cls-2" d="M560.07,355C549,366.4,538.3,376.58,528.13,385.63l-.88.79A516,516,0,0,1,483.84,421l-.92.65a360.9,360.9,0,0,1-34.94,22l-.18-1.06a353.92,353.92,0,0,0,34.9-22c.3-.21.61-.42.92-.65a513.09,513.09,0,0,0,43.32-34.61l.89-.79c10.15-9.05,20.84-19.23,31.89-30.64C559.84,354.27,560,354.63,560.07,355Z"/><path class="cls-2" d="M567.29,379.81c-11.79,9.65-23.11,18.33-33.8,26.11l-.91.66C515.48,419,500,429.1,486.78,437.13l-.94.57c-15.44,9.35-27.76,15.84-35.91,19.87,0-.35-.08-.7-.13-1.05,8.2-4.07,20.49-10.56,35.87-19.87l.94-.57c13.22-8,28.67-18.14,45.72-30.54l.91-.66c10.68-7.79,22-16.48,33.78-26.14Z"/><path class="cls-2" d="M572.15,401.38c-11.79,9.53-23.15,18.07-33.91,25.7l-.9.65c-17.79,12.56-33.92,22.63-47.6,30.49l-.95.55c-16.44,9.4-29.27,15.59-37.1,19.11l-.06-1.08c7.9-3.56,20.69-9.75,37-19.11l.95-.55c13.67-7.87,29.76-17.93,47.51-30.48l.9-.65c10.76-7.64,22.12-16.2,33.92-25.74Z"/><path class="cls-2" d="M576.1,424.46c-12.12,7.61-23.62,14.48-34.39,20.67l-.93.54c-18.92,10.86-35.61,19.6-49.6,26.48l-1,.47c-17.12,8.4-30.12,14-38.11,17.2,0-.36,0-.72,0-1.07,8-3.26,21-8.84,38-17.19l1-.47c14-6.89,30.64-15.62,49.51-26.47l.94-.53q16.17-9.31,34.41-20.71C576,423.74,576.05,424.1,576.1,424.46Z"/><path class="cls-2" d="M578.76,446q-18.22,9.15-34.19,16.43l-1,.43c-51,23.33-83.53,33.18-91.48,35.43,0-.34,0-.69,0-1,8.38-2.39,40.83-12.3,91.32-35.42l.94-.43q16-7.33,34.24-16.46C578.69,445.32,578.73,445.68,578.76,446Z"/><path class="cls-2" d="M580.33,464.46q-17.75,8.67-33.28,15.6l-.95.42c-53.73,24-86,33-86.46,33.13l-.26-1c.43-.12,32.78-9.13,86.59-33.21l.95-.42q15.52-7,33.34-15.65C580.29,463.73,580.31,464.1,580.33,464.46Z"/></g><g id="Spodek_banánu" data-name="Spodek banánu"><path class="cls-4" d="M344.23,818.51s-19-10.86-18.82-18.12c2,1.2,3.85,2.35,5.48,3.44s3,2.12,4.3,3.08c.53.41,1,.8,1.49,1.19s.91.77,1.32,1.13l.6.54c.39.36.75.7,1.08,1C344.8,815.9,344.23,818.51,344.23,818.51Z"/><path class="cls-5" d="M596.06,491.11q-.12,18.94-1.55,39.45s-.06.76-.21,2.21c-2.71,26.55-34.12,283.45-236,287.91l-14.07-2.17s.57-2.61-4.55-7.7c-.33-.34-.69-.68-1.08-1l-.6-.54c-.41-.37-.85-.74-1.32-1.13s-1-.78-1.49-1.19l.32-.31.19-.19.44-.44.25-.25.56-.57.31-.31c1.95-2,5-5.11,8.85-9.29l1.08-1.17c8.56-9.29,20.84-23.27,34.57-40.94l2.12-2.75c.63-.81,1.26-1.63,1.89-2.47.51-.66,1-1.33,1.52-2q5.43-7.17,11-15,1.49-2.09,3-4.21c.53-.75,1-1.51,1.58-2.27q3.17-4.56,6.34-9.32L410.8,713c4.23-6.4,8.46-13.06,12.62-20,.5-.81,1-1.63,1.48-2.45,1.06-1.78,2.12-3.57,3.18-5.39l1.38-2.37.28-.49,1.41-2.47c1-1.78,2-3.59,3-5.41l1.5-2.73q2.42-4.43,4.78-9l1.11-2.16c.49-.94,1-1.88,1.44-2.83.37-.73.74-1.46,1.1-2.19q1.58-3.12,3.09-6.28h0a.47.47,0,0,0,.05-.1q1.39-2.88,2.74-5.81,5.75-12.33,10.78-25.23c.44-1.1.86-2.21,1.28-3.32s.9-2.36,1.33-3.55.88-2.38,1.3-3.57.85-2.37,1.26-3.56a0,0,0,0,1,0,0c.42-1.2.83-2.4,1.23-3.61.81-2.41,1.6-4.83,2.35-7.26.39-1.22.76-2.43,1.12-3.65s.73-2.43,1.08-3.65c.07-.22.13-.44.2-.67.61-2.12,1.2-4.24,1.77-6.38q.65-2.4,1.24-4.81c.23-.88.45-1.77.66-2.66.36-1.45.7-2.91,1-4.37.27-1.14.52-2.29.76-3.43s.54-2.51.8-3.77.5-2.51.74-3.77.48-2.53.7-3.79q.3-1.65.57-3.3c.17-1,.33-2,.48-3,.12-.72.23-1.45.33-2.18.34-2.25.64-4.5.92-6.75q.24-1.92.45-3.84s0-.06,0-.19,0-.08,0-.13,0-.2,0-.32v-.06c.35-3.67,1.78-21.47-.48-47.16l0-.35c0-.12,0-.24,0-.36h86.61a21.42,21.42,0,0,1,11.38,10.62Q588.32,492.77,596.06,491.11Z"/><path class="cls-6" d="M482.44,532.54v.06c0,.12,0,.23,0,.32s0,.09,0,.13,0,.19,0,.19c-4.5,41-18,80.44-35.18,116.08-42.15,87.51-106.16,151.81-112,157.59-1.26-1-2.68-2-4.3-3.08s-3.44-2.24-5.48-3.44c0,0-3.71-27.79,34-85.22,0,0,62.89-74,75.39-182a317.94,317.94,0,0,0,2.06-44.67q7.36,2.75,15.3,6.35a21.41,21.41,0,0,1,11.14-10.17h18.59c0,.12,0,.24,0,.36l0,.35A338,338,0,0,1,482.44,532.54Z"/></g><path class="cls-6" d="M434.82,533.16h0Z"/><path class="cls-7" d="M452.16,494.84l0,0-.81,1.8v0l-3.62,32.55a73.56,73.56,0,0,0-9.82-6h0a71.73,71.73,0,0,0-11.5-6.54l-.4-.18A55.68,55.68,0,0,0,409.48,512l-.5-.06a50.64,50.64,0,0,0-8.76-.13l-.44,0a54.64,54.64,0,0,0-19,5.13,4.59,4.59,0,0,0-.5.24,51.41,51.41,0,0,0-11.86,7.69h0c-1.44,1.73-2.83,3.46-4.15,5.18h0l-.31.39a.64.64,0,0,0-.1.13c-.54.69-1.06,1.38-1.57,2.08s-1.09,1.46-1.61,2.2l-1,1.46q-2.07,2.92-3.92,5.83s0,0,0,0a3.42,3.42,0,0,0-.26.4,3.28,3.28,0,0,0-.2.31c-.75,1.18-1.48,2.36-2.18,3.53-.9,1.48-1.76,3-2.58,4.44l-.69,1.25c-.18.32-.35.63-.51.94l-.5.94c-.67,1.25-1.3,2.49-1.91,3.72-.08.15-.15.29-.22.44-.82,1.65-1.59,3.3-2.31,4.92l-.79,1.78c-.3.69-.59,1.38-.88,2.07q-.93,2.24-1.76,4.43c-.54,1.42-1,2.82-1.52,4.21-.07.19-.14.38-.2.57-.29.86-.58,1.72-.85,2.58s-.51,1.62-.75,2.43c-.31,1-.59,2-.86,3-.14.49-.27,1-.4,1.47s-.29,1.11-.43,1.66c-.54,2.13-1,4.2-1.41,6.2,0,.17-.07.34-.1.51a128.81,128.81,0,0,0-2.06,14.53c-.06.71-.11,1.4-.16,2.08,0,.06,0,.13,0,.19l-.06,1.09L332,613c0,.22,0,.44,0,.66-.14,3.63-.08,6.6,0,8.8,0,.27,0,.53,0,.77,0,.46.06.87.09,1.25,0,.1,0,.2,0,.29s0,.37.05.53c.1,1,.18,1.58.18,1.58-.44,2.21-.91,4.17-1.4,5.91l-.15.52c-2.42,8.31-5.4,11.28-8.4,11.31a5.49,5.49,0,0,1-.58,0c-4.82-.55-9.64-8.29-12.29-13.35a1.58,1.58,0,0,1-.13-.26c-1.24-2.37-2-4.1-2-4.1s-.53-5.64-.69-14.73c0-.15,0-.3,0-.46-.08-5.21,0-11.51.32-18.5,0-.34,0-.68.05-1,.29-5.6.77-11.63,1.53-17.88,0-.26.06-.52.1-.79.75-6.07,1.76-12.34,3.12-18.63,0-.21.08-.42.13-.64a163,163,0,0,1,5.3-19,4.88,4.88,0,0,1,.23-.64,118.61,118.61,0,0,1,7.62-17.31l.37-.68a82.32,82.32,0,0,1,14.28-19.08l.42-.41a64.06,64.06,0,0,1,25.51-15.19l.3-.1a75.69,75.69,0,0,1,21.42-3.24h.08c12.32-.19,26.49,2.13,42.79,7.61q.41.12.81.27c1.87.64,3.78,1.32,5.71,2Q444.23,491.24,452.16,494.84Z"/><path class="cls-6" d="M439,524l-4.14,9.16h0c-1-.88-71.26-62.95-102.4,93.68,0,0-.08-.54-.18-1.58,0-.16,0-.34-.05-.53s0-.19,0-.29c0-.38-.06-.79-.09-1.25,0-.24,0-.5,0-.77-.11-2.2-.17-5.17,0-8.8,0-.22,0-.44,0-.66l.06-1.06.06-1.09c0-.06,0-.13,0-.19.05-.68.1-1.37.16-2.08A128.81,128.81,0,0,1,334.36,594c0-.17.07-.34.1-.51.41-2,.87-4.07,1.41-6.2.14-.55.28-1.1.43-1.66s.26-1,.4-1.47c.27-1,.55-2,.86-3q.36-1.21.75-2.43c.27-.86.56-1.72.85-2.58.06-.19.13-.38.2-.57.48-1.39,1-2.79,1.52-4.21s1.14-2.94,1.76-4.43c.29-.69.58-1.38.88-2.07l.79-1.78c.72-1.62,1.49-3.27,2.31-4.92.07-.15.14-.29.22-.44.61-1.23,1.24-2.47,1.91-3.72l.5-.94c.16-.31.33-.62.51-.94l.69-1.25c.82-1.47,1.68-3,2.58-4.44.7-1.17,1.43-2.35,2.18-3.53a3.28,3.28,0,0,1,.2-.31,3.42,3.42,0,0,1,.26-.4s0,0,0,0q1.85-2.91,3.92-5.83l1-1.46c.52-.74,1.06-1.47,1.61-2.2s1-1.39,1.57-2.08a.64.64,0,0,1,.1-.13l.31-.39h0c1.32-1.72,2.71-3.45,4.15-5.18h0a51.41,51.41,0,0,1,11.86-7.69,4.59,4.59,0,0,1,.5-.24,54.64,54.64,0,0,1,19-5.13l.44,0a50.64,50.64,0,0,1,8.76.13l.5.06A55.68,55.68,0,0,1,426,516.51l.4.18a71.73,71.73,0,0,1,11.5,6.54h0Z"/><path class="cls-6" d="M332,622.42c-.12-2.2-.18-5.18,0-8.8C331.85,617.25,331.91,620.22,332,622.42Z"/><path class="cls-6" d="M332.06,623.19c0,.46.06.87.09,1.25C332.12,624.07,332.09,623.65,332.06,623.19Z"/><path class="cls-6" d="M339.36,575.6c.47-1.39,1-2.79,1.52-4.21C340.34,572.81,339.84,574.21,339.36,575.6Z"/><path class="cls-8" d="M397,495a58,58,0,0,0-13.68.87l-.54.09a61.79,61.79,0,0,0-21.6,8.95l-.56.35c-1.36.89-2.73,1.83-4.11,2.85a65.52,65.52,0,0,0-12.78,12.43,4.7,4.7,0,0,0-.35.43,83.16,83.16,0,0,0-9.65,16l-.21.47a109.34,109.34,0,0,0-6.2,17.43c-.05.16-.09.32-.13.48a145.77,145.77,0,0,0-3.47,17.49v0c0,.16-.05.32-.07.48-.76,5.56-1.55,11.71-2.2,18.16,0,.16,0,.32,0,.48-.63,6.24-1.11,12.74-1.32,19.24,0,.14,0,.29,0,.44a168.83,168.83,0,0,0,.43,19.82c0,.18,0,.37.05.55a97.09,97.09,0,0,0,1.89,12.54,5.49,5.49,0,0,1-.58,0A97.68,97.68,0,0,1,320,632c0-.17,0-.34-.05-.52a173.57,173.57,0,0,1-.38-19.83c0-.14,0-.27,0-.41.23-6.51.73-13,1.35-19.24,0-.16,0-.32.05-.48.66-6.45,1.44-12.6,2.19-18.15l.06-.44a.06.06,0,0,1,0,0,142.68,142.68,0,0,1,3.43-17.5c0-.16.08-.33.13-.49A111.22,111.22,0,0,1,333,537.44c.07-.16.14-.32.22-.48a82.43,82.43,0,0,1,9.63-16c.12-.15.23-.3.36-.44A66,66,0,0,1,356,508q2.1-1.55,4.15-2.88h0l.55-.35a61.05,61.05,0,0,1,21.87-9l.54-.1A57.42,57.42,0,0,1,397,495Z"/><path class="cls-8" d="M427.78,501.13c3.49,1,7.06,2,10.74,3-3.69-.89-7.25-1.84-10.73-2.78l-.64-.17c-8.78-2.36-17-4.62-25.15-5.67l-.6-.07q-1.75-.22-3.51-.36c1.16.07,2.31.17,3.47.29l.6.06c8.18.95,16.44,3.13,25.18,5.56Z"/><path class="cls-8" d="M449.59,506.46a1.93,1.93,0,0,0-.08.33c-3.78-.83-7.43-1.75-11-2.7C442.09,505,445.77,505.76,449.59,506.46Z"/><path class="cls-8" d="M427.79,501.31c0,3.35-2.38,9.49-1.42,15.38l-.4-.18c-.92-5.83,1.38-11.86,1.18-15.37,0-.07,0-.13,0-.19a5.5,5.5,0,0,0-.12-.76,1.5,1.5,0,0,0-.2-.16c-1.74-1.71.54-6.42,2.47-11.07.41-1,.75-1.9,1-2.78q.41.12.81.27c-2.15,5.18-4.41,11.19-3.65,13.77,0,0,.18.14.19.17a4,4,0,0,1,.09.74A1.09,1.09,0,0,1,427.79,501.31Z"/><path class="cls-8" d="M387.55,478.57a37.49,37.49,0,0,1,4.25,5.56c-1.41-1.82-2.83-3.71-4.33-5.56L387,478Z"/><path class="cls-8" d="M409.48,512l-.5-.06a172.43,172.43,0,0,0-7.58-16.54.25.25,0,0,0,0-.07c-.32-.58-.65-1.13-1-1.65l-.45-.16c-3.94-1.53-5.7-5.1-7.41-8.16q-.34-.63-.72-1.23c2.91,3.79,5.72,7.29,8.79,9.49a2.12,2.12,0,0,0,.45.17c.31.51.61,1,.92,1.6l0,.08C404.46,500,406.88,505.84,409.48,512Z"/><path class="cls-8" d="M400.22,511.81l-.44,0a77,77,0,0,0-17-15.89l-.25-.15q-.94-.62-1.83-1.11l-.42-.16c-3.42-1.4-5.83-3.92-8.07-6.37a74,74,0,0,0-6.46-6.25l.3-.1c5.09,3.94,10,8.19,14.71,12.54l.41.17c.61.35,1.25.74,1.9,1.18a2.56,2.56,0,0,1,.25.16A78,78,0,0,1,400.22,511.81Z"/><path class="cls-8" d="M380.77,517a4.59,4.59,0,0,0-.5.24c-6.38-5.69-14.91-11-19.65-12h0l-.5-.09h0a40.79,40.79,0,0,1-10.62-3.8c-2-.95-5.61-2.28-9.66-3.85l.42-.41c6.86,2.71,14,5,20.4,7.7h0l.49.08h0C365.93,505.94,374.4,511.24,380.77,517Z"/><path class="cls-8" d="M364.24,530.09h0l-.31.39-.14-.21c-4.66-6.38-12.77-8.6-20.41-9.32l-.54,0-.66-.06-.55,0a50.16,50.16,0,0,1-9.12-1.58c-2.56-.69-5-1.35-7.34-2l.37-.68c5.67,1.51,11.21,2.95,16.48,3.8a4.86,4.86,0,0,0,.56,0l.62.06.53,0C351.44,521.29,359.57,523.6,364.24,530.09Z"/><path class="cls-8" d="M355.69,542.19s0,0,0,0a3.42,3.42,0,0,0-.26.4q-10.85-2.65-21.72-5.17H333a67.42,67.42,0,0,1-10.72-1.23c-1.62-.31-3.28-.64-4.95-1a4.88,4.88,0,0,1,.23-.64c5.36,1,10.61,1.94,15.66,2.38h.13a2.51,2.51,0,0,0,.39,0h.1Q344.78,539.5,355.69,542.19Z"/><path class="cls-8" d="M346.84,557.75c-.08.15-.15.29-.22.44-6.29-1.62-13.24-2.17-18.59-2.83a4.34,4.34,0,0,0-.51,0h-.84c-2.13,0-4.08,0-6.26-.1q-4.25-.18-8.53-.42c0-.21.08-.42.13-.64q7.41.43,14.79.67l.51,0h.35a4.34,4.34,0,0,1,.51,0C333.53,555.56,340.55,556.09,346.84,557.75Z"/><path class="cls-8" d="M339.36,575.6c-.07.19-.14.38-.2.57-5.49-1-10.75-2.09-15.51-2.82h0a3.54,3.54,0,0,0-.46,0h0a71.24,71.24,0,0,0-9.24.45l-5.26.47c0-.26.06-.52.1-.79,4.92-.34,9.76-.61,14.48-.61a3.46,3.46,0,0,1,.46,0h0C328.6,573.61,333.88,574.6,339.36,575.6Z"/><path class="cls-8" d="M334.46,593.5c0,.17-.07.34-.1.51q-5.66-.71-11.19-1.86a2.84,2.84,0,0,0-.42,0l-1.34-.11a3.59,3.59,0,0,0-.47,0,35.48,35.48,0,0,0-6.1.17c-2.56.28-5.14.63-7.75,1,0-.34,0-.68.05-1a81.69,81.69,0,0,1,13.85-.65l.46,0,1.28.08a2.84,2.84,0,0,1,.42,0C326.88,592.42,330.65,593,334.46,593.5Z"/><path class="cls-8" d="M332,613c0,.22,0,.44,0,.66-3.25-.42-6.55-1-9.91-1.67l-.44-.08-1.56-.2-.5-.06a33,33,0,0,0-6.24-.14c-2.18.17-4.36.39-6.56.64,0-.15,0-.3,0-.46a77.21,77.21,0,0,1,12.82-.45l.5,0c.53,0,1.07.07,1.6.12h0a2.92,2.92,0,0,1,.44.06Q327.13,612.37,332,613Z"/><path class="cls-8" d="M331,632.75l-.15.52c-3.22-.31-6.49-.7-9.87-1.18l-.42-.05-.11,0L320,632a82,82,0,0,0-10.43-.76,1.58,1.58,0,0,1-.13-.26,88.54,88.54,0,0,1,10.51.5l.48,0h.07c.15,0,.3,0,.46.06C324.41,632.05,327.74,632.45,331,632.75Z"/><path class="cls-9" d="M439.67,489.94c5.49,1.16,9.59,9.41,11.09,12.88a21.08,21.08,0,0,1,.64-5.3v0a20.15,20.15,0,0,1,1.46-4.05Q446,491.41,439.67,489.94Z"/><path class="cls-7" d="M579.89,495.29a20.15,20.15,0,0,1,1.46,4Z"/><path class="cls-7" d="M717.27,610.11c0,.35,0,.69,0,1,0,6.5-.36,10.42-.36,10.42s-2.67,12.42-7.31,18l-.17.19a5.94,5.94,0,0,1-4.32,2.44l-.48,0s-1.83-7.21-5.6-18.06l-.19-.55c-1.88-5.38-4.23-11.62-7.07-18.3-.06-.16-.13-.33-.21-.5-2.42-5.69-5.19-11.7-8.33-17.76-.08-.15-.15-.31-.24-.46-2.52-4.86-5.27-9.76-8.26-14.55-.08-.12-.15-.24-.23-.35-2.78-4.45-5.77-8.81-9-13l-.35-.45a119.13,119.13,0,0,0-14.61-15.89c-.14-.11-.27-.24-.41-.36a81.78,81.78,0,0,0-14-10l-.42-.23a61.9,61.9,0,0,0-16.61-6.38l-.71-.15a58.5,58.5,0,0,0-21.1-.47l-.33.05a73.14,73.14,0,0,0-15.58,4.39v-3.6l0-18.46v-.83l0-6.83a21.08,21.08,0,0,1,.64,5.3c1.5-3.47,5.6-11.72,11.09-12.88l.48-.12,2.49-.55q5.28-1.12,10.25-1.88l.37-.05c13.75-2.05,25.8-2,36.36-.24l1.52.26a77.23,77.23,0,0,1,26.79,10l.18.12a74.29,74.29,0,0,1,17,14.48l.61.69A90.72,90.72,0,0,1,699.75,530a3.14,3.14,0,0,1,.18.31,116.37,116.37,0,0,1,7.4,16.65l.42,1.17a154.79,154.79,0,0,1,4.74,16.75c0,.13.06.27.08.4,1.3,5.81,2.25,11.51,2.94,16.92v0A219.18,219.18,0,0,1,717.27,610.11Z"/><path class="cls-5" d="M704.62,642.12c-3.6-.44-7.86-5.79-12.64-20.57-37.62-116.45-91-92.37-97.68-88.78-.47.25-13.4,2.7-13.4,2.7l.53-8.05A75.24,75.24,0,0,1,599.26,521l.39-.08a54.64,54.64,0,0,1,21.19-.39l.7.13a56.27,56.27,0,0,1,17.43,6.7l.48.28A77.7,77.7,0,0,1,654,538.92l.39.38a118.53,118.53,0,0,1,13.8,16.54l.33.46c3,4.3,5.78,8.79,8.37,13.37l.21.37c2,3.58,3.92,7.21,5.7,10.84q1,2.05,2,4.11c.08.16.15.32.22.47,2.9,6.23,5.46,12.4,7.69,18.24.07.17.14.34.2.51,2.62,6.9,4.78,13.33,6.5,18.87.06.19.12.38.17.56C703,634.76,704.62,642.12,704.62,642.12Z"/><path class="cls-8" d="M709.59,639.52l-.17.19a142.52,142.52,0,0,0-1.07-23c0-.21,0-.42-.07-.63-.63-5.62-1.36-11.44-1.88-18.11-.16-2.13-.41-4.11-.72-6,0-.21-.07-.41-.11-.61a70.59,70.59,0,0,0-6.12-18.13c-.07-.14-.13-.27-.19-.41-1.75-3.76-3.67-7.7-5.63-12.35-.44-1-.86-2.08-1.25-3.09-.06-.14-.11-.28-.16-.42-2.29-5.89-3.92-11.1-6.39-16.09-.08-.16-.15-.32-.24-.47a45.37,45.37,0,0,0-9.65-12.87c-1-.95-2.05-1.88-3.14-2.79a4.35,4.35,0,0,0-.41-.34,86.64,86.64,0,0,0-16.63-10.66l-.27-.13a100.88,100.88,0,0,0-26.83-8.85l-.89-.15a70.51,70.51,0,0,0-23.52-.22l-.7.13-1,.2c-6.62,1.4-14,1.49-21.15,2.28v-.83c7-.6,14.34-.45,21.11-2,.35-.08.71-.16,1.07-.22s.48-.1.72-.14a68.35,68.35,0,0,1,24.11.35l.94.17a103.47,103.47,0,0,1,26.85,9.11h0l.31.16a86.85,86.85,0,0,1,16.25,10.48l.42.34c1.09.92,2.14,1.86,3.13,2.81a47.22,47.22,0,0,1,9.54,12.9l0,.08c.07.13.14.26.2.39,2.51,5,4.26,10.28,6.55,16,.06.13.12.27.17.41.42,1,.86,2.07,1.32,3.13,2,4.58,4,8.46,5.74,12.18,0,.13.12.26.18.39,2.7,5.72,5,11.07,6.18,18,0,.2.07.4.1.61.32,1.9.56,3.93.72,6.11.48,6.72,1.15,12.6,1.72,18.27l.06.63A147.26,147.26,0,0,1,709.59,639.52Z"/><path class="cls-8" d="M605.37,492.88a54.88,54.88,0,0,0-1.09,10.65v.57l0,.31a49.1,49.1,0,0,1-4.6,16.47l-.39.08a46.9,46.9,0,0,0,4.29-16.42c0-.06,0-.12,0-.18s0-.24,0-.37v-.19A44.91,44.91,0,0,1,605.37,492.88Z"/><path class="cls-8" d="M606.68,489.18c-.49,1.2-.93,2.43-1.31,3.7a34.09,34.09,0,0,1,.94-3.65Z"/><path class="cls-8" d="M644.56,489.2a30.78,30.78,0,0,1-5.4,7.64,53.53,53.53,0,0,1-9.83,7.53l-.51.31-.16.1-.52.34c-3,6-4.68,11.16-6.6,15.5l-.7-.13c1.92-4.34,3.59-9.5,6.51-15.57.14-.09.28-.18.42-.29a1.75,1.75,0,0,0,.25-.16l.37-.27A54.42,54.42,0,0,0,643,488.94Z"/><path class="cls-8" d="M654.75,513.88a5.21,5.21,0,0,0-.65.29l-.22.13c-6,3.38-10.41,8.18-14.43,13.3l-.48-.28c3.92-5.14,8.22-9.92,14.24-13.23l.22-.13C653.88,514,654.32,513.92,654.75,513.88Z"/><path class="cls-8" d="M656.19,513.48a12.83,12.83,0,0,1,1.66-.13c-.44.11-.89.21-1.35.29-.24.05-.49.09-.74.12s-.67.09-1,.12a5.87,5.87,0,0,1,.74-.25l.69-.15Z"/><path class="cls-8" d="M666.47,507.86c-2.14,2.92-4.57,4.95-7.52,5.41-.32.05-.69.06-1.1.08A16.54,16.54,0,0,0,666.47,507.86Z"/><path class="cls-8" d="M671.53,499.33a33.76,33.76,0,0,1-5.06,8.53,51.45,51.45,0,0,0,4.88-8.65Z"/><path class="cls-8" d="M674.31,523.58l-1.09.84-.05,0-.36.29h0q-9.21,7.34-18.41,14.54l-.39-.38c6.14-4.78,12.25-9.63,18.39-14.5l0,0c.14-.1.21-.17.33-.27l.09-.07C673.34,523.9,673.82,523.75,674.31,523.58Z"/><path class="cls-8" d="M688.56,513.81l.61.69a46,46,0,0,1-14.86,9.08c2.52-1.89,4.2-2.78,4.3-2.65C678.83,521.23,683.31,517.94,688.56,513.81Z"/><path class="cls-8" d="M686.1,539.91l-.1.1a.39.39,0,0,1,.16-.19Z"/><path class="cls-8" d="M686.46,540.21a.41.41,0,0,1-.07.11l-.31.32-.25.25a173.86,173.86,0,0,1-17.31,15.41l-.33-.46a177.22,177.22,0,0,0,17.4-15.42l.25-.25L686,540c0,.06,0,.09.14,0s0,0,0,0l.09-.05h0c1.22-.86,6-4.31,11.41-8.42-7.91,6.31-10.51,8-11.28,8.38C686.48,539.93,686.62,539.94,686.46,540.21Z"/><path class="cls-8" d="M699.75,530a3.14,3.14,0,0,1,.18.31c-.77.48-1.55.93-2.36,1.37Z"/><path class="cls-8" d="M707.75,548.08c-2.92,2-5.55,3.48-7.22,3.67-.9.1-4.34,2.53-7.39,5l-.34.27a.81.81,0,0,1-.1.09l-.32.27q-7.57,6.5-15.28,12.64l-.21-.37q7.75-6.18,15.33-12.69l.37-.32,0,0,.4-.33c4.57-3.56,9.48-6.36,14.3-9.39Z"/><path class="cls-8" d="M702.05,570.92c-.64.59-1.33,1.22-2,1.82l-.45.39-.14.12c-4.83,4.08-9.63,8.16-14.46,12.21-.07-.15-.14-.31-.22-.47,4.83-4,9.65-8.1,14.49-12.15l.06-.05c.15-.13.31-.28.45-.38l.09-.06C700.6,571.85,701.33,571.38,702.05,570.92Z"/><path class="cls-8" d="M705.29,568.43c.74-.22,1.52-.5,2.33-.82-1.8,1-3.64,2.09-5.57,3.31A13,13,0,0,1,705.29,568.43Z"/><path class="cls-8" d="M712.57,565.23a47.75,47.75,0,0,1-5,2.38c1.65-1,3.27-1.85,4.87-2.78C712.52,565,712.55,565.1,712.57,565.23Z"/><path class="cls-8" d="M715.52,582.17c-2.61,2.42-5.63,5.51-8.68,8.63-.17.16-.34.35-.52.53l-.13.14-.51.52q-6.28,6.42-12.8,12.22c-.06-.17-.13-.34-.2-.51q6.57-5.85,12.89-12.32l.59-.6.06-.06c.19-.19.38-.4.58-.59,2.74-2.67,5.71-5.32,8.71-8Z"/><path class="cls-8" d="M717.27,610.11c0,.35,0,.69,0,1l-1.5.84c-1.9,1-4,2.36-6,3.64l-.37.24-.62.49-.47.37c-2.91,2.28-5.84,4.6-8.8,6.93,0-.18-.11-.37-.17-.56l8.9-7,.48-.37.44-.35c.12-.09.25-.16.37-.24C711.86,613.69,714.46,611.91,717.27,610.11Z"/><path class="cls-9" d="M593.09,491.78c-5.49,1.16-9.59,9.41-11.09,12.88a21.08,21.08,0,0,0-.64-5.3v0a20.15,20.15,0,0,0-1.46-4Q586.72,493.25,593.09,491.78Z"/><path class="cls-7" d="M582,504.66v.11c0,.63,0,1.25,0,1.87,0,.17,0,.34,0,.51q-.12,9.4-.54,18.33c0,.17,0,.33,0,.49s0,.34,0,.51q-.43,9.22-1.14,17.95c0,.17,0,.35,0,.52q-.78,9.67-1.84,18.73l-.06.52q-1.12,9.52-2.49,18.33c0,.18-.06.35-.08.52q-1.56,10-3.37,19c0,.17-.07.34-.11.52-1.25,6.34-2.59,12.33-4,18,0,.18-.09.35-.13.53-1.7,7-3.46,13.39-5.21,19.29-.06.18-.11.36-.16.54-2.12,7.07-4.23,13.38-6.23,18.9-.06.17-.12.35-.19.52-2.94,8.08-5.63,14.45-7.74,19.07l-.24.52c-2.6,5.68-4.25,8.57-4.25,8.57a86.46,86.46,0,0,1-8.66,10.67c-.16.18-.33.35-.51.52-8.29,8.68-21.55,19.15-36.84,18.66h-.25c-10.23-.41-21.36-5.74-32.51-19.81L465,698a111.74,111.74,0,0,1-7.88-11.61,46.67,46.67,0,0,1-3.6-7.72c-.06-.17-.12-.35-.19-.52a112.11,112.11,0,0,1-4.69-19c0-.17-.05-.34-.08-.51q-.75-4.51-1.32-9.39h0c-.36-3.06-.68-6.23-.95-9.47,0-.17,0-.35-.05-.52-.49-6-.84-12.17-1.07-18.55,0-.17,0-.33,0-.5-.21-6.08-.31-12.3-.32-18.59v-.51c0-6,.07-12.07.21-18.11,0-.17,0-.34,0-.5.15-6.3.37-12.57.64-18.71,0-.17,0-.34,0-.51.28-6.36.62-12.59,1-18.58a4.07,4.07,0,0,1,0-.5c.38-6.32.8-12.37,1.23-18,0-.17,0-.34,0-.51.52-6.85,1.05-13.13,1.55-18.65,0-.17,0-.34.05-.5.13-1.39.25-2.73.37-4a21.29,21.29,0,0,1,1.39-5.85v0l.81-1.8,0,0a21.38,21.38,0,0,1,19.08-11.69H560.6a21.48,21.48,0,0,1,19.29,12.14,20.15,20.15,0,0,1,1.46,4v0A21.08,21.08,0,0,1,582,504.66Z"/><path class="cls-8" d="M498.11,718.46l-.48-.15c24.49-80.37,15.61-233.61,15.52-235.15l.5,0C513.74,484.67,522.62,638,498.11,718.46Z"/><path class="cls-8" d="M582,506.64c0,.17,0,.34,0,.51-14.12,2.59-33.27,3.47-52.76,3.47-4.83,0-9.67-.05-14.47-.15h-.5c-28.15-.58-54.51-2.56-64.73-3.4,0-.17,0-.34.05-.5,10.21.84,36.55,2.82,64.67,3.4h.5C538.94,510.45,564.4,509.88,582,506.64Z"/><path class="cls-8" d="M581.41,526c0,.17,0,.34,0,.51-14.49,2.3-33.52,3.1-52.87,3.1-4.46,0-8.94,0-13.38-.12h-.5c-27.88-.49-54.36-2.29-66.72-3.23,0-.17,0-.34,0-.51,12.36.95,38.82,2.75,66.68,3.24h.5C538.89,529.37,563.6,528.82,581.41,526Z"/><path class="cls-8" d="M580.25,544.43c0,.17,0,.35,0,.52-14,2.68-33.08,3.59-52.55,3.59-4.12,0-8.26,0-12.37-.12h-.5c-31.17-.58-60.53-3-68.13-3.66a4.07,4.07,0,0,1,0-.5c7.57.66,36.93,3.08,68.1,3.65h.5C538.84,548.34,563.36,547.69,580.25,544.43Z"/><path class="cls-8" d="M578.37,563.68l-.06.52c-14,2.46-32.75,3.29-51.8,3.29-3.78,0-7.57,0-11.35-.1h-.5c-30.38-.5-59.31-2.73-69-3.54,0-.17,0-.34,0-.51,9.67.82,38.62,3.06,69,3.56h.5C538,567.27,561.58,566.64,578.37,563.68Z"/><path class="cls-8" d="M575.82,582.53c0,.18-.06.35-.08.52-14.16,2.53-33.25,3.4-52.69,3.4-2.76,0-5.54,0-8.3-.05h-.5C485.44,586,457.39,584,445,583.06c0-.17,0-.34,0-.5,12.37,1,40.44,3,69.25,3.33h.5C537,586.17,559.66,585.45,575.82,582.53Z"/><path class="cls-8" d="M572.37,602.09c0,.17-.07.34-.11.52-13.31,2.07-30.33,2.8-47.63,2.8-3.54,0-7.09,0-10.62-.09h-.5c-30.86-.5-60.27-2.89-68.72-3.63v-.51c8.39.74,37.85,3.14,68.74,3.64H514C534.89,605.15,556.35,604.61,572.37,602.09Z"/><path class="cls-8" d="M568.3,620.6c0,.18-.09.35-.13.53-13.08,2.41-30.46,3.24-48.14,3.24q-3.56,0-7.13,0h-.5c-29-.36-57.24-2.65-67.27-3.55,0-.17,0-.33,0-.5,10,.88,38.3,3.19,67.32,3.55h.5C533.07,624.07,553.48,623.36,568.3,620.6Z"/><path class="cls-8" d="M563,640.42c-.06.18-.11.36-.16.54-12.29,1.74-27.41,2.36-42.77,2.36q-4.34,0-8.67-.06h-.5c-27.42-.41-53.91-2.49-64.61-3.41,0-.17,0-.35-.05-.52,10.63.93,37.22,3,64.71,3.43h.49C529.71,643,548.37,642.52,563,640.42Z"/><path class="cls-8" d="M556.57,659.86c-.06.17-.12.35-.19.52a341,341,0,0,1-39.15,1.9q-4,0-8,0h-.5c-24-.33-47.35-2-60.18-3,0-.17-.05-.34-.08-.51,12.8,1,36.27,2.68,60.32,3h.5C525.94,662,542.78,661.53,556.57,659.86Z"/><path class="cls-8" d="M548.64,679.45l-.24.52c-10.17.92-21.59,1.27-33.13,1.27-2.91,0-5.83,0-8.74-.07H506c-19.91-.3-39.33-1.48-52.55-2.46-.06-.17-.12-.35-.19-.52,13.24,1,32.79,2.18,52.82,2.48h.51A414.45,414.45,0,0,0,548.64,679.45Z"/><path class="cls-8" d="M535.49,699.21c-.16.18-.33.35-.51.52-6.84.33-14,.47-21.22.47-3.62,0-7.26,0-10.87-.1h-.51c-13.2-.24-26.09-.85-37-1.51L465,698c11,.69,24.12,1.31,37.53,1.55H503C514,699.79,525.11,699.72,535.49,699.21Z"/></g></svg>