<svg xmlns="http://www.w3.org/2000/svg" viewBox="0 0 1024 1024"><defs><style>.cls-1{fill:#eee7c8;}.cls-2{fill:#e0dbc3;}.cls-3{opacity:0.25;}.cls-4{fill:#342513;}.cls-5{fill:#e3d64c;}.cls-6{fill:#d6ce3a;}.cls-7{fill:#4f3516;}</style></defs><g id="Otevřený_banán" data-name="Otevřený banán"><path class="cls-1" d="M643.19,554.11S622.64,827.68,429.39,832l-15.52,2.6s-10.73-12.85-19.72-19.79c5.09-7.89-.59-12.57,14.55-38.85,0,0,92.85-93.52,104.1-229q1-11.57,1.09-23.53c0-.34,0-.69,0-1q0-3.7,0-7.46c0-.36,0-.72,0-1.07-.08-3.6-.21-7.22-.41-10.87l-.06-1.08q-.54-9.51-1.7-19.23c0-.35-.08-.7-.13-1.05q-.76-6.37-1.82-12.83l-.18-1.06q-1.6-9.65-3.87-19.48c-.08-.34-.16-.68-.23-1q-2.11-9-4.8-18.12c-.09-.32-.18-.65-.29-1q-2.22-7.47-4.86-15l-.33-1q-3-8.54-6.56-17.18l-.39-.94q-2.76-6.65-5.87-13.36c-.13-.31-.28-.62-.42-.93q-3.12-6.7-6.61-13.48c-.15-.3-.3-.61-.46-.91q-3.24-6.25-6.78-12.55c-.16-.29-.33-.58-.5-.87q-4.35-7.71-9.21-15.49h0l-.54-.86q-4.8-7.64-10.07-15.33l-.57-.82Q442.29,312.21,437,305l-.6-.8q-3.33-4.46-6.84-8.92l-.62-.79-.09-.12a23.06,23.06,0,0,1-2.8-5.76v0a75.14,75.14,0,0,1-2.49-8.44c-.09-.36-.17-.73-.25-1.1a84.29,84.29,0,0,1-1.85-12.41c0-.45-.06-.89-.08-1.34h0c0-.78-.06-1.56-.07-2.33v-.49c0-5.52.81-10.64,2.94-14.3,3.44-5.92,10.31-10.68,18.33-14l1-.41h0c2-.8,4-1.51,6.12-2.14l1.56-.46h0a75,75,0,0,1,17.91-2.77l1.26,0a45.55,45.55,0,0,1,6.7.45,84.66,84.66,0,0,1,9.95,2.14l1,.29A111,111,0,0,1,501.15,236l.94.4c1.3.57,2.63,1.18,4,1.83a61.26,61.26,0,0,1,6,2.41c.89.4,1.87.86,2.94,1.37.29.14.6.28.9.44a144.13,144.13,0,0,1,17.29,10.16l.83.56a179.1,179.1,0,0,1,14.25,10.93l.77.66c4.17,3.57,8.49,7.58,12.88,12.08.23.24.47.48.7.73,4.23,4.37,8.52,9.2,12.82,14.53l.64.8c3.73,4.67,7.46,9.72,11.14,15.17l.58.86q4.45,6.66,8.78,14.12l.53.91c3.28,5.72,6.49,11.81,9.58,18.29l.46,1c2.51,5.3,4.94,10.84,7.28,16.66.11.27.22.54.32.81a1.89,1.89,0,0,1,.09.21q3.45,8.64,6.59,18.07c.12.35.24.71.35,1.07q3.73,11.3,6.95,23.75l.27,1.07q2.51,9.86,4.65,20.46l.21,1.11q2.1,10.6,3.79,22c.06.36.11.72.16,1.08q1.46,9.94,2.55,20.51c0,.35.08.71.11,1.06q.87,8.47,1.5,17.34c0,.36,0,.73.07,1.09C643.45,509.46,643.88,531,643.19,554.11Z"/><path class="cls-2" d="M497.42,702.41l16-153.8-.58-1.73q1-11.57,1.09-23.53c0-.34,0-.69,0-1q0-3.7,0-7.46c0-.36,0-.72,0-1.07-.08-3.6-.21-7.22-.41-10.87l-.06-1.08q-.54-9.51-1.7-19.23c0-.35-.08-.7-.13-1.05q-.76-6.37-1.82-12.83l-.18-1.06q-1.6-9.65-3.87-19.48c-.08-.34-.16-.68-.23-1q-2.11-9-4.8-18.12c-.09-.32-.18-.65-.29-1q-2.22-7.47-4.86-15l-.33-1q-3-8.54-6.56-17.18l-.39-.94q-2.76-6.65-5.87-13.36c-.13-.31-.28-.62-.42-.93q-3.12-6.7-6.61-13.48c-.15-.3-.3-.61-.46-.91q-3.24-6.25-6.78-12.55c-.16-.29-.33-.58-.5-.87q-4.35-7.71-9.21-15.49h0l-.54-.86q-4.8-7.64-10.07-15.33l-.57-.82Q442.29,312.21,437,305l-.6-.8q-3.33-4.46-6.84-8.92l-.62-.79-.09-.12a23.06,23.06,0,0,1-2.8-5.76v0C650.25,484.3,497.42,702.41,497.42,702.41Z"/><path class="cls-2" d="M614.79,360.67l-5.6,282.66-107.1,51.76C614.79,523.35,546.16,306.27,529,282.93c-8.08-11-7.63-37.63-7.63-37.63s12.38,7.67,12.66,7.86a179.1,179.1,0,0,1,14.25,10.93l.77.66c4.17,3.57,8.49,7.58,12.88,12.08.23.24.47.48.7.73,4.23,4.37,8.52,9.2,12.82,14.53l.64.8c3.73,4.67,7.46,9.72,11.14,15.17l.58.86q4.45,6.66,8.78,14.12l.53.91c3.28,5.72,6.49,11.81,9.58,18.29l.46,1c2.51,5.3,4.94,10.84,7.28,16.66C614.58,360.13,614.69,360.4,614.79,360.67Z"/><g class="cls-3"><path class="cls-2" d="M608.2,508.24c-17.27-137.33-61.43-204.41-95.42-236.5-36.81-34.74-70-37.07-70.29-37.09l.06-1c.33,0,33.78,2.35,70.84,37.3,21.74,20.49,40.47,48,55.67,81.87,19,42.26,32.49,94.51,40.13,155.3Z"/><path class="cls-2" d="M552.81,508.21C545.47,402.45,510,341.39,481.61,308.8c-30.79-35.31-60.22-45.76-60.51-45.86l.32-.94c.3.1,29.94,10.6,60.9,46.09,18.17,20.82,33.25,46.05,44.81,75,14.45,36.15,23.43,78.23,26.68,125.07Z"/><path class="cls-2" d="M488,231.23q-5.31,7.38-10.5,14l-.63.79a371.22,371.22,0,0,1-28,31.54l-.72.71c-8,8-14.53,13.66-18.69,17.1l-.62-.79c4.12-3.39,10.57-9,18.49-16.89l.72-.72A368,368,0,0,0,476,245.51l.63-.79c3.4-4.33,6.88-8.92,10.38-13.78Z"/><path class="cls-2" d="M470.36,228.35q-3.92,5.39-7.75,10.26l-.64.83a315.81,315.81,0,0,1-26.31,29.5l-.74.74c-4.23,4.12-8.07,7.61-11.42,10.5-.09-.36-.17-.73-.25-1.1,3.18-2.76,6.81-6.06,10.77-9.92l.74-.73A314,314,0,0,0,461,239.08c.22-.27.44-.55.65-.83q3.7-4.69,7.49-9.88Z"/><path class="cls-2" d="M451.18,231.14q-1.26,1.76-2.52,3.45l-.65.89a307.3,307.3,0,0,1-23.36,27.84c-.24.26-.49.51-.73.76-.86.89-1.7,1.76-2.52,2.59,0-.45-.06-.89-.08-1.34h0c.53-.54,1.07-1.09,1.61-1.66.25-.25.5-.51.74-.77a300.53,300.53,0,0,0,23.24-27.62l.67-.89c.68-.91,1.36-1.84,2-2.78Z"/><path class="cls-2" d="M502.09,236.39Q496,245,490,252.45l-.62.78a330.86,330.86,0,0,1-29.82,32.52l-.73.7A245.31,245.31,0,0,1,437,305l-.6-.8a243.64,243.64,0,0,0,21.7-18.44h0l.73-.69a329.92,329.92,0,0,0,29.74-32.42l.63-.78c4-5,8-10.27,12-15.92Z"/><path class="cls-2" d="M515.94,242.44c-4.54,6.81-9,13.16-13.43,19.05l-.6.8a384.51,384.51,0,0,1-29.61,35.08c-.24.25-.48.49-.7.73a260.8,260.8,0,0,1-23.84,22l-.57-.82a257.32,257.32,0,0,0,23.7-21.93l.7-.73a382.77,382.77,0,0,0,29.54-35c.19-.26.39-.53.6-.8Q508.26,252.11,515,242C515.33,242.14,515.64,242.28,515.94,242.44Z"/><path class="cls-2" d="M534.06,253.16q-8.52,11.5-16.74,21.6l-.64.78c-11.25,13.8-21.95,25.64-31.72,35.64-.22.24-.46.48-.7.72-9.73,9.94-18.49,18-25.89,24.44l-.54-.86c7.37-6.37,16.1-14.45,25.78-24.35.24-.24.48-.48.7-.72,9.75-10,20.43-21.8,31.67-35.58l.62-.77q8.14-10,16.63-21.46Z"/><path class="cls-2" d="M549.08,264.75q-9.6,13-18.84,24.23l-.66.82c-11.76,14.29-22.89,26.41-32.93,36.53l-.74.75c-10.75,10.79-20.21,19.27-27.83,25.63-.16-.29-.33-.58-.5-.87,7.6-6.36,17-14.83,27.75-25.59l.74-.74c10-10.11,21.13-22.23,32.86-36.5l.66-.81q9.15-11.18,18.72-24.11Z"/><path class="cls-2" d="M562.66,277.56c-7.3,9.31-14.47,17.9-21.42,25.8l-.74.84c-12.47,14.13-24.21,26-34.75,35.93l-.8.74c-11.57,10.81-21.66,19.16-29.63,25.3-.15-.3-.3-.61-.46-.91,7.95-6.14,18-14.47,29.56-25.26l.79-.74c10.52-9.88,22.25-21.79,34.7-35.9l.73-.84Q551,290.71,562,276.83C562.19,277.07,562.43,277.31,562.66,277.56Z"/><path class="cls-2" d="M576.12,292.89c-8.29,9.81-16.38,18.77-24.18,26.94l-.8.85c-13.28,13.87-25.68,25.41-36.66,34.86l-.85.73a395.15,395.15,0,0,1-31.28,24.31c-.13-.31-.28-.62-.42-.93a393.76,393.76,0,0,0,31.22-24.29l.86-.73c11-9.45,23.34-21,36.59-34.84l.81-.84c7.76-8.14,15.82-17.08,24.07-26.86Z"/><path class="cls-2" d="M587.84,308.92c-9.18,10.11-18.1,19.29-26.65,27.57-.28.29-.56.56-.85.83C546.37,350.82,533.41,362,522,371l-.9.71a386.77,386.77,0,0,1-32.49,23.17l-.39-.94a383.93,383.93,0,0,0,32.46-23.17l.89-.71c11.39-9,24.34-20.17,38.29-33.67.29-.27.57-.54.85-.83,8.52-8.26,17.41-17.41,26.55-27.5Z"/><path class="cls-2" d="M597.15,324c-9.6,10.76-18.95,20.5-27.91,29.28l-.87.85C554.16,368,541,379.39,529.31,388.68l-.91.72A389.22,389.22,0,0,1,495.5,413l-.33-1A396,396,0,0,0,528,388.43l.91-.72c11.62-9.29,24.81-20.73,39-34.6l.87-.85c8.94-8.77,18.26-18.48,27.82-29.22Z"/><path class="cls-2" d="M607.19,343.2c-10.38,10.74-20.46,20.4-30.07,29.05l-.89.8a521.58,521.58,0,0,1-40.85,33.19l-.93.68A388.66,388.66,0,0,1,500.65,429c-.09-.32-.18-.65-.29-1a388.39,388.39,0,0,0,33.77-22.15l.94-.68c12.09-8.84,25.87-19.8,40.78-33.18l.89-.8c9.59-8.65,19.63-18.3,30-29Z"/><path class="cls-2" d="M614.88,360.88c-10.76,11.12-21.18,21.07-31.1,30h0l-.89.79a515.26,515.26,0,0,1-42,33.84l-.92.66a377.46,377.46,0,0,1-34.27,22.05c-.08-.34-.16-.68-.23-1a375,375,0,0,0,34.24-22.07c.3-.21.61-.43.91-.66a513.85,513.85,0,0,0,41.93-33.83c.3-.25.6-.52.9-.8,9.9-8.87,20.31-18.83,31-29.94C614.61,360.2,614.75,360.54,614.88,360.88Z"/><path class="cls-2" d="M621.82,380c-11.06,11.41-21.77,21.59-31.94,30.64l-.88.79a516,516,0,0,1-43.41,34.62l-.92.65a360.9,360.9,0,0,1-34.94,22l-.18-1.06a353.92,353.92,0,0,0,34.9-22c.3-.21.61-.42.92-.65a513.09,513.09,0,0,0,43.32-34.61l.89-.79c10.15-9,20.84-19.23,31.89-30.64C621.59,379.3,621.71,379.66,621.82,380Z"/><path class="cls-2" d="M629,404.84c-11.79,9.65-23.11,18.33-33.8,26.11l-.91.66c-17.1,12.42-32.57,22.52-45.8,30.55l-.94.57c-15.44,9.35-27.76,15.84-35.91,19.87,0-.35-.08-.7-.13-1.05,8.2-4.07,20.49-10.56,35.87-19.87l.94-.57c13.22-8,28.67-18.14,45.72-30.54l.91-.66c10.68-7.79,22-16.48,33.78-26.14Z"/><path class="cls-2" d="M633.9,426.41c-11.79,9.53-23.15,18.07-33.91,25.7l-.9.65c-17.79,12.56-33.92,22.63-47.6,30.49l-1,.55c-16.44,9.4-29.27,15.59-37.1,19.11l-.06-1.08c7.9-3.56,20.69-9.75,37-19.11l1-.55c13.67-7.87,29.76-17.93,47.51-30.48l.9-.65c10.76-7.64,22.12-16.2,33.92-25.74Z"/><path class="cls-2" d="M637.85,449.49c-12.12,7.61-23.62,14.48-34.39,20.67l-.93.54c-18.92,10.86-35.61,19.6-49.6,26.48l-1,.47c-17.12,8.4-30.12,14-38.11,17.2,0-.36,0-.72,0-1.07,8-3.26,21-8.84,38-17.19l1-.47c14-6.89,30.64-15.62,49.51-26.47l.94-.53q16.17-9.31,34.41-20.71C637.75,448.77,637.8,449.13,637.85,449.49Z"/><path class="cls-2" d="M640.51,471.06q-18.22,9.15-34.19,16.43l-1,.43c-51,23.33-83.53,33.18-91.48,35.43,0-.34,0-.69,0-1,8.38-2.39,40.83-12.3,91.32-35.42l.94-.43q16-7.33,34.24-16.46C640.44,470.35,640.48,470.71,640.51,471.06Z"/><path class="cls-2" d="M642.08,489.49q-17.75,8.67-33.28,15.6l-.95.42c-53.73,24-86,33-86.46,33.13l-.26-1c.43-.12,32.78-9.13,86.59-33.21l.95-.42q15.52-7,33.34-15.65C642,488.76,642.06,489.13,642.08,489.49Z"/></g><path class="cls-4" d="M387.16,827.32a96.78,96.78,0,0,1,9.78,6.52c9.91,7.66,9,11.6,9,11.6S387,834.58,387.16,827.32Z"/><path class="cls-5" d="M580.14,226.82c-12.83-2.22-26.64,2.83-37.76,8.7-2,1.07-3.16,1.82-3.16,1.82,3.07-18.94,8.41-39.36,7.22-58.33,0,0-.3-2.08-.43-5.35,12.1-1.07,24.13-.24,36.14,1.32C575.89,191.07,568.26,210.73,580.14,226.82Z"/><path class="cls-6" d="M539.22,237.34c-2.63.07,6-4.19,8.77-5.63,9.58-4.89,21.58-7.46,32.15-4.89-9,4.83-13.38,7.31-20.68,15.57C552.41,240.68,549.87,240.49,539.22,237.34Z"/><path class="cls-6" d="M546,173.66c6.16,19.61.45,41.81-3.63,61.86-2,1.09-3.16,1.82-3.16,1.82,3.07-18.94,8.41-39.36,7.22-58.33C546.44,179,546.14,176.93,546,173.66Z"/><path class="cls-7" d="M590.46,151.86a53,53,0,0,1-5.81,16.26s-1,2.82-2.5,6.86c-12-1.56-24-2.39-36.14-1.32-1.12-10.6,2.94-17.65,8.37-26.41C567.33,146.67,578.21,147.42,590.46,151.86Z"/><path class="cls-4" d="M589.31,141.35c.6,4.42.82,6.52,1.15,10.51-12.25-4.44-23.13-5.19-36.08-4.61a90.07,90.07,0,0,0,13.37-13.13C578.49,135.08,581.92,137.35,589.31,141.35Z"/><path class="cls-5" d="M660,555.84c-7,49.48-19.8,101.54-38.31,147.85-32.89,82.26-112,141.6-201.6,143.92L406,845.44s.86-4-9-11.6c26.41-26.37,49.89-56,70.86-86.84,37.26-54.78,76.76-117.41,94.39-181.67,0,0,0-.06,0-.19s0-.07,0-.12c4.06-15.66,6.19-31.87,7.76-47.78,4.45-45-1.14-92.08-6.21-137.21-2.7-24-8.8-45.33-15.6-68.39-6-20.22-9.3-40.92-20.08-59.37a0,0,0,0,1,0,0,27.87,27.87,0,0,1,1.61-4.21,25.6,25.6,0,0,1,4.43-6.47,28.52,28.52,0,0,1,3.44-3.08c.52-.39,1.06-.78,1.62-1.15,11.31-6.85,27.6-13.42,40.93-10.52a171.92,171.92,0,0,1,16,9.28c11.67,6.25,16.91,20.75,23.63,31.61,18.78,30.34,25.25,67,31,101.81C661,431.36,666.68,493.33,660,555.84Z"/><path class="cls-6" d="M544.16,559.85s0,.09,0,.13,0,.19,0,.19C532.78,663.05,469.06,761.8,396.94,833.84a96.23,96.23,0,0,0-9.78-6.52c-1.42-30.21,18.79-61.12,34-85.22,31-37.79,53.06-85.1,65.75-132C515,506.14,479.35,402.58,409,322.89a48.67,48.67,0,0,1-8.92-20.26s0-.3-.07-.74c-.1-1-.31-2.84-.55-5.07a35.14,35.14,0,0,1,.95-9.42c46.42,17.82,87,67.23,108,111.1,16.78,35.12,29.18,76.73,34,114.83A237.46,237.46,0,0,1,544.16,559.85Z"/></g></svg>