<svg xmlns="http://www.w3.org/2000/svg" viewBox="0 0 1024 1024"><defs><style>.cls-1{fill:#e8e8e8;}.cls-2{fill:#add4a4;}.cls-3{fill:#d3c774;}.cls-4{fill:#8cc588;}.cls-5{fill:#8cc589;}.cls-6{fill:#86a33c;}</style></defs><g id="Roztržená_bankovka" data-name="Roztržená bankovka"><path class="cls-1" d="M408.36,310.73v0c5.75-.77,8.62-1.22,14.7-2.1l.1.33c9.65-1.2,19.36-2.42,29-3.52l-.2-.5c-6.82.84-12.92,1.55-17.47,2.08-50.8,6-101.53,2.51-152.42,5.19,40.26-1.16,81.71,3.75,121-.81Z"/><path class="cls-1" d="M242.2,357.41c-3.15.64-5.35,2-6.6,4.12s-1.67,4.81-1.24,8.13l3.18,24.66c.43,3.38,1.51,5.82,3.22,7.3s4.14,1.87,7.29,1.22,5.35-2,6.6-4.11,1.66-4.84,1.22-8.21l-3.17-24.59c-.42-3.31-1.49-5.72-3.2-7.21S245.35,356.77,242.2,357.41Z"/><path class="cls-1" d="M471.84,651.56l1.73-.21-1.73.19Z"/><path class="cls-1" d="M340.8,668.49c38.2-5,76.4-10.06,114.62-14.87l0-.23C417.22,657.86,379,663.39,340.8,668.49Z"/><path class="cls-1" d="M180.33,373.75c-3.14.94-5.32,2.53-6.56,4.78a13.61,13.61,0,0,0-1.21,8.44L175.79,412c.44,3.42,1.52,5.83,3.22,7.2s4.13,1.57,7.25.6,5.32-2.61,6.55-4.9a13.88,13.88,0,0,0,1.19-8.54l-3.21-24.92q-.64-5.06-3.2-7.08T180.33,373.75Z"/><path class="cls-1" d="M282.08,312.17c-2.15.12-4.37.26-6.52.45-66,5.89-129,32.48-194.79,43.67L127.51,719.1c65.93-11.5,128.45-39,194.21-48.13,2.14-.3,4.32-.57,6.48-.84C312,550.91,297.42,431.49,282.08,312.17ZM146.81,444.48c-6.21,1.74-9.32,2.57-15.54,4.12l-7.11-55.19c-3.86,2.28-5.79,3.4-9.65,5.59l-1.82-14.18c4.69-3,7-4.5,11.73-7.61,5.32-1.3,8-2,13.29-3.41ZM210,405.12a22,22,0,0,1-4.4,16.77C201.82,426.8,196,430.51,188,433s-14.39,2.48-19,.15-7.38-6.62-8.19-12.91l-4.12-31.95a21.07,21.07,0,0,1,4.43-16.5q5.66-7.08,17.66-10.62t19-.19q7,3.35,8.16,12.68Zm62-13.59c.81,6.28-.68,11.43-4.46,15.73s-9.68,7.25-17.73,8.93-14.47,1.26-19.14-1.38-7.42-7-8.22-13.2l-4-31.4a19.74,19.74,0,0,1,4.48-16c3.79-4.45,9.7-7.63,17.75-9.24s14.49-.88,19.16,1.9,7.39,7.3,8.19,13.44Z"/><path class="cls-2" d="M328.2,670.13q6.15-.78,12.32-1.6l-12.32,1.6Z"/><path class="cls-2" d="M483.78,650.1c-3.38.39-6.81.83-10.21,1.25,4.8-.52,9.62-1,14.45-1.47l-.1-.23Z"/><path class="cls-2" d="M378.69,491.7a3,3,0,0,0-1.54-.17,3.06,3.06,0,0,0-1.45.55,2.46,2.46,0,0,0-.86,1.17,3.28,3.28,0,0,0-.15,1.61c.25,2,.38,3,.64,5.05a3.67,3.67,0,0,0,.55,1.57,2.52,2.52,0,0,0,1.13.95,2.85,2.85,0,0,0,1.55.19A2.82,2.82,0,0,0,380,502a2.52,2.52,0,0,0,.86-1.21,3.49,3.49,0,0,0,.15-1.66c-.26-2-.39-3.05-.64-5a3.41,3.41,0,0,0-.55-1.52A2.56,2.56,0,0,0,378.69,491.7Z"/><path class="cls-2" d="M471.32,438.93a5.37,5.37,0,0,0-.78-.33,7.78,7.78,0,0,0-3.48-.29,7.59,7.59,0,0,0-3.3,1.11,5.21,5.21,0,0,0-2,2.25,5.46,5.46,0,0,0-.41,3.05l1.22,9.48a5.78,5.78,0,0,0,1.19,2.94,5.44,5.44,0,0,0,2.51,1.78,8.45,8.45,0,0,0,6.79-.75A5.25,5.25,0,0,0,475,456l.49-3.27Z"/><path class="cls-2" d="M390,494l3.93-.51a1.5,1.5,0,0,0,.82-.36,1.55,1.55,0,0,0,.47-.77,2.55,2.55,0,0,0,.08-1.08,2.41,2.41,0,0,0-.33-1,1.69,1.69,0,0,0-.66-.62,1.59,1.59,0,0,0-.9-.13l-3.92.5C389.7,491.41,389.86,492.7,390,494Z"/><path class="cls-2" d="M487.92,649.65l-13-29.24,11.39-41,5.73-27.06-24.67-44.72,2.19-14.95a8.05,8.05,0,0,1-1-.56c.45-1.16.67-1.74,1.13-2.89.11.07.24.12.35.19l.56-3.81a4.36,4.36,0,0,1-1.4-1,4.73,4.73,0,0,1-1.15-2.79h0a5.06,5.06,0,0,1,.37-2.87,4.47,4.47,0,0,1,1.91-2,6.94,6.94,0,0,1,1.64-.66l1.66-11.32a20,20,0,0,1-3.06.6,16.68,16.68,0,0,1-7.46-.74,11.69,11.69,0,0,1-8-9.92L454,445.82a11.31,11.31,0,0,1,.91-6.43,11.53,11.53,0,0,1,4.32-4.77,16.87,16.87,0,0,1,7.07-2.39,19.19,19.19,0,0,1,3-.13L464,414.37a476,476,0,0,1,7.74-47.05c-5.28-6.65-8.15-9.88-13.88-16.35,2-7.81,2.74-11.51,4.66-19.86-3.68-9.83-5.69-15.22-10.32-25.71-9.65,1.1-19.36,2.32-29,3.52,4.46,14.95,8.87,29.8,10.39,45.4-6.61.57-9.92.76-16.55,1-1.65-15.12-5.11-29.84-8.64-44.61l-5.27.63c-39.3,4.56-80.75-.35-121,.81,15.34,119.32,29.95,238.74,46.12,358l12.32-1.6.28,0c38.18-5.1,76.42-10.63,114.59-15.1Q453,635,450.62,616.69c6.56-.91,9.85-1.36,16.43-2.24q2.4,18.56,4.79,37.09l1.73-.19c3.4-.42,6.83-.86,10.21-1.25ZM416,459.56a5.45,5.45,0,0,0-2.39-1,30.4,30.4,0,0,0-3.62-.38l-.14,0a.4.4,0,0,1-.15,0l-.58,0a36.16,36.16,0,0,1-6.46-.88A9.79,9.79,0,0,1,398,454.6a10,10,0,0,1-2.52-6v0a10,10,0,0,1,.88-6,8.9,8.9,0,0,1,4.29-3.91,19.32,19.32,0,0,1,7.41-1.53,22.67,22.67,0,0,1,4.22.26,27.66,27.66,0,0,1,4.32,1,28.43,28.43,0,0,1,4.11,1.7c-.94,2.23-1.4,3.35-2.33,5.61a22.78,22.78,0,0,0-4.84-1.83,15.88,15.88,0,0,0-4.67-.5,10.1,10.1,0,0,0-5,1.26,2.85,2.85,0,0,0-1.43,2.92v0a3.45,3.45,0,0,0,1.25,2.36,6.23,6.23,0,0,0,2.48,1.15,38.62,38.62,0,0,0,4,.59l.21,0,.21,0,.31,0,.31,0a37.68,37.68,0,0,1,6.19,1.08,9.93,9.93,0,0,1,4.38,2.56,8.82,8.82,0,0,1,2.32,5.33v0a9.43,9.43,0,0,1-1,5.83,10.41,10.41,0,0,1-4.44,4.2,21,21,0,0,1-7.58,2.16,25.7,25.7,0,0,1-5.33.08,22.88,22.88,0,0,1-5-1,19.1,19.1,0,0,1-4.36-2c1-2.4,1.54-3.59,2.56-6a16.31,16.31,0,0,0,5.37,2.15,18.66,18.66,0,0,0,6,.33,10.87,10.87,0,0,0,5.25-1.66,3.34,3.34,0,0,0,1.52-3.28v0A3,3,0,0,0,416,459.56ZM368.3,507.19c-2-2.83-3.17-4.47-4.9-6.84l-2,3.81c.15,1.18.3,2.44.48,3.86l-3.15.42c-.88-7.19-1.31-10.5-2.2-17.4l3.16-.39c.43,3.4.76,5.92,1.08,8.48,1.53-3.26,2.59-5.42,4.37-9.16l4-.5-4.07,7.66c2.71,3.64,4.16,5.64,7,9.56Zm16-8.52a7.3,7.3,0,0,1-.34,3.49,5.6,5.6,0,0,1-1.85,2.57A6.26,6.26,0,0,1,379,506a6.15,6.15,0,0,1-3.31-.4,5.51,5.51,0,0,1-2.43-2,7.53,7.53,0,0,1-1.19-3.31c-.24-2-.37-2.95-.62-4.89a7,7,0,0,1,.34-3.38,5.48,5.48,0,0,1,1.86-2.46,7.11,7.11,0,0,1,6.41-.8,5.32,5.32,0,0,1,2.42,1.9,6.75,6.75,0,0,1,1.18,3.17C383.89,495.72,384,496.69,384.27,498.67ZM397,503.42c-1.88-2.69-2.89-4.12-4.66-6.58l-1.92.25c.27,2.07.55,4.28.9,7.07l-3.15.42c-.9-7.14-1.34-10.52-2.2-17.22l1.25-.16h0l1.32-.16.58-.08h0l4.18-.52a4.74,4.74,0,0,1,2.51.31,4.15,4.15,0,0,1,1.84,1.54,5.67,5.67,0,0,1,.92,2.54,6.05,6.05,0,0,1-.23,2.75,4.37,4.37,0,0,1-1.4,2,4,4,0,0,1-1,.61c1.82,2.44,2.92,3.95,4.92,6.71Zm17.26-8.7a7.76,7.76,0,0,1-.27,3.59,5.2,5.2,0,0,1-1.81,2.52A6.72,6.72,0,0,1,409,502a6.6,6.6,0,0,1-3.4-.34,5,5,0,0,1-2.37-2A8,8,0,0,1,402,496.3c-.57-4.43-.84-6.56-1.39-10.77l3.16-.4c.54,4.24.82,6.38,1.4,10.84a3.3,3.3,0,0,0,1.06,2.23,3.31,3.31,0,0,0,4.37-.57,3.27,3.27,0,0,0,.48-2.42c-.57-4.46-.85-6.61-1.39-10.83l3.15-.4C413.41,488.16,413.69,490.3,414.26,494.72ZM431.15,499l-3.89.5c-3.05-4.81-4.65-7.36-7.55-11.69.59,4.57,1,7.31,1.61,12.46l-3,.4c-.9-7.07-1.36-10.52-2.2-17.05l3.86-.49c3,4.5,4.61,6.93,7.56,11.58-.62-4.88-1-7.53-1.59-12.34l3-.39C429.79,488.42,430.25,491.89,431.15,499Zm35.12,109.52c-6.58.89-9.87,1.35-16.44,2.27q-5-37.92-9.75-75.86c6.57-.9,9.85-1.35,16.43-2.22Q461.37,570.56,466.27,608.47ZM445.34,445.85q2.31,17.91,4.61,35.8v0a8.25,8.25,0,0,1,1.54,3l-1.15.15c.25,1.88.49,3.77.73,5.65l1.15-.14a9.67,9.67,0,0,1-.72,3.39h0q1.9,14.76,3.8,29.53c-6.57.86-9.86,1.3-16.42,2.19q-5-39-10-77.95l5.2-.47-.62-4.82c-3.06.26-6.33.5-10.32.77l-.78-6.12,5.11-.3-9.35-72.59c6.63-.25,9.94-.44,16.55-1L444,435.21c1.89-.19,3.92-.4,6.18-.65l.75,5.86c-4,.46-7.24.82-10.31,1.12l.61,4.76Zm8.11,32.89,1.15-.16c4.06-.53,6.09-.83,10.16-1.32l.38,3c-3.32.4-5.3.67-8.13,1,.18,1.38.34,2.65.5,3.9,2.34-.3,4.05-.53,6.86-.88l.4,3.12-6.85.87c.15,1.22.32,2.49.5,3.89,2.82-.36,4.8-.62,8.13-1l.41,3.19c-3.33.4-5.31.66-8.13,1h0l-3.18.41C454.74,488.76,454.29,485.26,453.45,478.74Z"/><path class="cls-2" d="M471.19,481.22c0,.07,0,.12.05.18l.18-1.2a1.39,1.39,0,0,0-.23,1Z"/><path class="cls-3" d="M455.44,653.74l16.41-2.11v-.07l-16.42,2.06Z"/><path class="cls-3" d="M408.36,310.69v0q7.36-.89,14.8-1.81l-.1-.33C417,309.47,414.11,309.92,408.36,310.69Z"/><path class="cls-3" d="M455.39,653.39l0,.23,16.42-2.06v0Q463.62,652.42,455.39,653.39Z"/><path class="cls-3" d="M447.45,483.71a2.81,2.81,0,0,0-1.06-.77,2.55,2.55,0,0,0-1.27-.14,3.12,3.12,0,0,0-1.47.55,2.41,2.41,0,0,0-.82,1.17,4.08,4.08,0,0,0-.11,1.74c.24,1.86.36,2.8.61,4.69a4.21,4.21,0,0,0,.55,1.69,2.45,2.45,0,0,0,1.1,1,2.84,2.84,0,0,0,1.56.18,2.36,2.36,0,0,0,1.21-.47,2.62,2.62,0,0,0,.82-1.05,4.47,4.47,0,0,0,.37-1.55l2.14-.28c-.24-1.88-.48-3.77-.73-5.65l-2.14.27A4.37,4.37,0,0,0,447.45,483.71Z"/><path class="cls-3" d="M437,469.59,434.07,447l-5.2.47q5,39,10,77.95c6.56-.89,9.85-1.33,16.42-2.19q-1.89-14.76-3.8-29.53a5.73,5.73,0,0,1-1.79,2.32A5.51,5.51,0,0,1,447,497.1a6.57,6.57,0,0,1-3.39-.35,5.12,5.12,0,0,1-2.37-2,8,8,0,0,1-1.17-3.41c-.24-1.9-.36-2.84-.6-4.7a7.14,7.14,0,0,1,.28-3.46,4.87,4.87,0,0,1,1.81-2.36,6.93,6.93,0,0,1,3.19-1.14,6.05,6.05,0,0,1,2.93.28,5.52,5.52,0,0,1,2.3,1.65q-2.31-17.89-4.61-35.8l-4.14.45,2.89,22.38Zm11.36,5.64c-1.49,1.41-2.23,2.13-3.71,3.56l-4.49-2.49,1.49-1.86,2.62,1.44,2.17-2.07Z"/><path class="cls-3" d="M434.66,362.94c-6.61.56-9.92.75-16.55,1l9.35,72.59c6.05-.37,10.63-.73,16.51-1.32Z"/><path class="cls-3" d="M417,355.34c6.63-.26,9.94-.45,16.55-1-1.52-15.6-5.93-30.45-10.39-45.4q-7.44.93-14.8,1.81C411.89,325.5,415.35,340.22,417,355.34Z"/><path class="cls-3" d="M449.83,610.74c6.57-.92,9.86-1.38,16.44-2.27q-4.9-37.9-9.76-75.81c-6.58.87-9.86,1.32-16.43,2.22Q444.9,572.83,449.83,610.74Z"/><path class="cls-3" d="M467.05,614.45c-6.58.88-9.87,1.33-16.43,2.24q2.42,18.34,4.77,36.7,8.24-1,16.45-1.85Q469.46,633,467.05,614.45Z"/><path class="cls-4" d="M112.69,384.82,114.51,399c3.86-2.19,5.79-3.31,9.65-5.59l7.11,55.19c6.22-1.55,9.33-2.38,15.54-4.12l-9.1-70.68c-5.31,1.42-8,2.11-13.29,3.41C119.73,380.32,117.38,381.84,112.69,384.82Z"/><path class="cls-4" d="M197.73,360.94q-6.94-3.35-19,.19T161,371.75a21.07,21.07,0,0,0-4.43,16.5l4.12,31.95q1.22,9.44,8.19,12.91c4.65,2.33,11,2.32,19-.15s13.86-6.16,17.59-11.07a22,22,0,0,0,4.4-16.77l-4.06-31.5Q204.69,364.29,197.73,360.94ZM194,406.39a13.88,13.88,0,0,1-1.19,8.54c-1.23,2.29-3.42,3.92-6.55,4.9s-5.54.77-7.25-.6-2.78-3.78-3.22-7.2L172.56,387a13.61,13.61,0,0,1,1.21-8.44c1.24-2.25,3.42-3.84,6.56-4.78s5.55-.72,7.26.64,2.77,3.71,3.2,7.08Z"/><path class="cls-4" d="M259.76,346.9c-4.67-2.78-11.06-3.51-19.16-1.9s-14,4.79-17.75,9.24a19.74,19.74,0,0,0-4.48,16l4,31.4c.8,6.23,3.54,10.56,8.22,13.2s11.06,3.06,19.14,1.38,14-4.64,17.73-8.93,5.27-9.45,4.46-15.73l-4-31.19C267.15,354.2,264.42,349.68,259.76,346.9Zm-3.89,43.62q.66,5.06-1.22,8.21c-1.25,2.1-3.45,3.45-6.6,4.11s-5.58.26-7.29-1.22-2.79-3.92-3.22-7.3l-3.18-24.66q-.65-5,1.24-8.13c1.25-2.09,3.45-3.48,6.6-4.12s5.59-.18,7.3,1.31,2.78,3.9,3.2,7.21Z"/><path class="cls-5" d="M415.57,465a10.87,10.87,0,0,1-5.25,1.66,18.66,18.66,0,0,1-6-.33,16.31,16.31,0,0,1-5.37-2.15c-1,2.37-1.54,3.56-2.56,6a19.1,19.1,0,0,0,4.36,2,22.88,22.88,0,0,0,5,1,25.7,25.7,0,0,0,5.33-.08,21,21,0,0,0,7.58-2.16,10.41,10.41,0,0,0,4.44-4.2,9.43,9.43,0,0,0,1-5.83v0a8.82,8.82,0,0,0-2.32-5.33,9.93,9.93,0,0,0-4.38-2.56,37.68,37.68,0,0,0-6.19-1.08l-.31,0-.31,0-.21,0-.21,0a38.62,38.62,0,0,1-4-.59,6.23,6.23,0,0,1-2.48-1.15,3.45,3.45,0,0,1-1.25-2.36v0a2.85,2.85,0,0,1,1.43-2.92,10.1,10.1,0,0,1,5-1.26,15.88,15.88,0,0,1,4.67.5,22.78,22.78,0,0,1,4.84,1.83c.93-2.26,1.39-3.38,2.33-5.61a28.43,28.43,0,0,0-4.11-1.7,27.66,27.66,0,0,0-4.32-1,22.67,22.67,0,0,0-4.22-.26,19.32,19.32,0,0,0-7.41,1.53,8.9,8.9,0,0,0-4.29,3.91,10,10,0,0,0-.88,6v0a10,10,0,0,0,2.52,6,9.79,9.79,0,0,0,4.61,2.66,36.16,36.16,0,0,0,6.46.88l.58,0a.4.4,0,0,0,.15,0l.14,0a30.4,30.4,0,0,1,3.62.38,5.45,5.45,0,0,1,2.39,1,3,3,0,0,1,1.14,2.11v0A3.34,3.34,0,0,1,415.57,465Z"/><path class="cls-5" d="M433.45,442.18l.62,4.82c2.44-.22,4.6-.43,7.13-.7l-.61-4.76C438.17,441.78,435.87,442,433.45,442.18Z"/><path class="cls-5" d="M440.25,438.86l.34,2.68c3.07-.3,6.33-.66,10.31-1.12l-.75-5.86c-2.26.25-4.29.46-6.18.65l.42,3.25Z"/><path class="cls-5" d="M440.25,438.86c-2.54.24-4.7.43-7.15.62l.35,2.7c2.42-.19,4.72-.4,7.14-.64Z"/><path class="cls-5" d="M427.89,439.87l-.43-3.34-5.11.3.78,6.12c4-.27,7.26-.51,10.32-.77l-.35-2.7Z"/><path class="cls-5" d="M437,469.59l7.11-.91L441.2,446.3c-2.53.27-4.69.48-7.13.7Z"/><path class="cls-5" d="M433,438.87l.07.61c2.45-.19,4.61-.38,7.15-.62l-.08-.6C437.31,438.52,435.88,438.64,433,438.87Z"/><path class="cls-5" d="M433.1,439.48l-.07-.61c2.85-.23,4.28-.35,7.14-.61l.08.6,4.14-.4-.42-3.25c-5.88.59-10.46,1-16.51,1.32l.43,3.34Z"/><path class="cls-5" d="M459.21,434.62a11.53,11.53,0,0,0-4.32,4.77,11.31,11.31,0,0,0-.91,6.43l1.18,9.18a11.69,11.69,0,0,0,8,9.92,16.68,16.68,0,0,0,7.46.74,20,20,0,0,0,3.06-.6l1.33-9a5.25,5.25,0,0,1-1.91,2.15,8.45,8.45,0,0,1-6.79.75,5.44,5.44,0,0,1-2.51-1.78,5.78,5.78,0,0,1-1.19-2.94l-1.22-9.48a5.46,5.46,0,0,1,.41-3.05,5.21,5.21,0,0,1,2-2.25,7.59,7.59,0,0,1,3.3-1.11,7.78,7.78,0,0,1,3.48.29,5.37,5.37,0,0,1,.78.33l-2-6.83a19.19,19.19,0,0,0-3,.13A16.87,16.87,0,0,0,459.21,434.62Z"/><path class="cls-5" d="M359.81,501.27l1-2.14c-.32-2.56-.65-5.08-1.08-8.48l-3.16.39c.89,6.9,1.32,10.21,2.2,17.4l3.15-.42c-.18-1.42-.33-2.68-.48-3.86l-.69,1.37C360.37,503.81,360.18,503,359.81,501.27Z"/><path class="cls-5" d="M359.81,501.27c.37,1.69.56,2.54.94,4.26l.69-1.37c-.22-1.83-.43-3.44-.63-5Z"/><path class="cls-5" d="M363.4,500.35c1.73,2.37,2.9,4,4.9,6.84l3.74-.5c-2.8-3.92-4.25-5.92-7-9.56Z"/><path class="cls-5" d="M364.83,496.79l.25.34,4.07-7.66-4,.5c-1.78,3.74-2.84,5.9-4.37,9.16.2,1.59.41,3.2.63,5l2-3.81c-.33-.45-.68-.92-1.06-1.45C363.33,498.05,363.83,497.63,364.83,496.79Z"/><path class="cls-5" d="M364.83,496.79c-1,.84-1.5,1.26-2.49,2.11.38.53.73,1,1.06,1.45l1.68-3.22Z"/><path class="cls-5" d="M380,488.72a7.11,7.11,0,0,0-6.41.8,5.48,5.48,0,0,0-1.86,2.46,7,7,0,0,0-.34,3.38c.25,1.94.38,2.91.62,4.89a7.53,7.53,0,0,0,1.19,3.31,5.51,5.51,0,0,0,2.43,2,6.15,6.15,0,0,0,3.31.4,6.26,6.26,0,0,0,3.1-1.24,5.6,5.6,0,0,0,1.85-2.57,7.3,7.3,0,0,0,.34-3.49c-.25-2-.38-2.95-.63-4.88a6.75,6.75,0,0,0-1.18-3.17A5.32,5.32,0,0,0,380,488.72Zm1,10.45a3.49,3.49,0,0,1-.15,1.66A2.52,2.52,0,0,1,380,502a2.82,2.82,0,0,1-1.44.58,2.85,2.85,0,0,1-1.55-.19,2.52,2.52,0,0,1-1.13-.95,3.67,3.67,0,0,1-.55-1.57c-.26-2-.39-3.05-.64-5.05a3.28,3.28,0,0,1,.15-1.61,2.46,2.46,0,0,1,.86-1.17,3.06,3.06,0,0,1,1.45-.55,3,3,0,0,1,1.54.17,2.56,2.56,0,0,1,1.13.91,3.41,3.41,0,0,1,.55,1.52C380.62,496.12,380.75,497.13,381,499.17Z"/><path class="cls-5" d="M388.13,494.21c.16,1.24.24,1.87.4,3.13l1.89-.25c-.13-1.06-.26-2.09-.4-3.12Z"/><path class="cls-5" d="M394.6,496.55l-2.26.29c1.77,2.46,2.78,3.89,4.66,6.58l3.82-.51c-2-2.76-3.1-4.27-4.92-6.71A4.88,4.88,0,0,1,394.6,496.55Z"/><path class="cls-5" d="M388.13,494.21,390,494c-.16-1.27-.32-2.56-.51-4l-1.89.25-.4-3-1.25.16c.86,6.7,1.3,10.08,2.2,17.22l3.15-.42c-.35-2.79-.63-5-.9-7.07l-1.89.25C388.37,496.08,388.29,495.45,388.13,494.21Z"/><path class="cls-5" d="M395.9,496.2l-.62-.84-3.3,1c.12.18.24.34.36.5l2.26-.29A4.88,4.88,0,0,0,395.9,496.2Z"/><path class="cls-5" d="M395.28,495.36l.62.84a4,4,0,0,0,1-.61,4.37,4.37,0,0,0,1.4-2,6.05,6.05,0,0,0,.23-2.75,5.67,5.67,0,0,0-.92-2.54,4.15,4.15,0,0,0-1.84-1.54,4.74,4.74,0,0,0-2.51-.31l-4.18.52.39,3,3.92-.5a1.59,1.59,0,0,1,.9.13,1.69,1.69,0,0,1,.66.62,2.41,2.41,0,0,1,.33,1,2.55,2.55,0,0,1-.08,1.08,1.55,1.55,0,0,1-.47.77,1.5,1.5,0,0,1-.82.36L390,494c.14,1,.27,2.06.4,3.12l1.92-.25c-.12-.16-.24-.32-.36-.5Z"/><path class="cls-5" d="M387.22,487.2h0l1.32-.16Z"/><path class="cls-5" d="M389.51,490l-.39-3-.58.08-1.32.16.4,3Z"/><path class="cls-5" d="M389.12,487l-.58.08.58-.08Z"/><path class="cls-5" d="M409.72,484.38c.54,4.22.82,6.37,1.39,10.83a3.27,3.27,0,0,1-.48,2.42,3.31,3.31,0,0,1-4.37.57A3.3,3.3,0,0,1,405.2,496c-.58-4.46-.86-6.6-1.4-10.84l-3.16.4c.55,4.21.82,6.34,1.39,10.77a8,8,0,0,0,1.16,3.42,5,5,0,0,0,2.37,2,6.6,6.6,0,0,0,3.4.34,6.72,6.72,0,0,0,3.22-1.2,5.2,5.2,0,0,0,1.81-2.52,7.76,7.76,0,0,0,.27-3.59c-.57-4.42-.85-6.56-1.39-10.74Z"/><path class="cls-5" d="M425.93,482.32c.62,4.81,1,7.46,1.59,12.34l.36.55-.24.35q-.06-.46-.12-.9c-2.95-4.65-4.54-7.08-7.56-11.58l-3.86.49c.84,6.53,1.3,10,2.2,17.05l3-.4c-.66-5.15-1-7.89-1.61-12.46l-.35-.52.24-.33c0,.29.08.57.11.85,2.9,4.33,4.5,6.88,7.55,11.69l3.89-.5c-.9-7.06-1.36-10.53-2.2-17Z"/><path class="cls-5" d="M419.36,487.24l.35.52c0-.28-.07-.56-.11-.85Z"/><path class="cls-5" d="M427.88,495.21l-.36-.55q.06.43.12.9Z"/><path class="cls-5" d="M451.51,493.69a9.67,9.67,0,0,0,.72-3.39l-1.15.14.42,3.26Z"/><path class="cls-5" d="M451.5,484.64a8.25,8.25,0,0,0-1.54-3v0c.13,1.05.27,2.09.4,3.14Z"/><path class="cls-5" d="M441.63,474.44l-1.49,1.86,4.49,2.49c1.48-1.43,2.22-2.15,3.71-3.56l-1.92-1.42-2.17,2.07Z"/><path class="cls-5" d="M447.65,480a6.05,6.05,0,0,0-2.93-.28,6.93,6.93,0,0,0-3.19,1.14,4.87,4.87,0,0,0-1.81,2.36,7.14,7.14,0,0,0-.28,3.46c.24,1.86.36,2.8.6,4.7a8,8,0,0,0,1.17,3.41,5.12,5.12,0,0,0,2.37,2,6.57,6.57,0,0,0,3.39.35,5.51,5.51,0,0,0,2.74-1.08,5.73,5.73,0,0,0,1.79-2.32l-.42-3.26-2.14.28a4.47,4.47,0,0,1-.37,1.55,2.62,2.62,0,0,1-.82,1.05,2.36,2.36,0,0,1-1.21.47,2.84,2.84,0,0,1-1.56-.18,2.45,2.45,0,0,1-1.1-1,4.21,4.21,0,0,1-.55-1.69c-.25-1.89-.37-2.83-.61-4.69a4.08,4.08,0,0,1,.11-1.74,2.41,2.41,0,0,1,.82-1.17,3.12,3.12,0,0,1,1.47-.55,2.55,2.55,0,0,1,1.27.14,2.81,2.81,0,0,1,1.06.77,4.37,4.37,0,0,1,.76,1.35l2.14-.27c-.13-1.05-.27-2.09-.4-3.14A5.52,5.52,0,0,0,447.65,480Z"/><path class="cls-5" d="M455,481.57l2-.26c-.12-.94-.25-1.92-.38-3l-2,.26h0Z"/><path class="cls-5" d="M457,481.31c2.83-.37,4.81-.64,8.13-1l-.38-3c-4.07.49-6.1.79-10.16,1.32l2-.26C456.76,479.39,456.89,480.37,457,481.31Z"/><path class="cls-5" d="M458.83,495.4l-2,.26c-.17-1.28-.25-1.92-.41-3.19l2-.26c-.18-1.4-.35-2.67-.5-3.89l-2,.26c-.17-1.25-.25-1.87-.41-3.11l2-.26c-.16-1.25-.32-2.52-.5-3.9l-2,.26-.38-3h0l-1.15.16c.84,6.52,1.29,10,2.2,17.07l3.18-.41Z"/><path class="cls-5" d="M455.48,485.47c.16,1.24.24,1.86.41,3.11l2-.26c-.14-1.05-.27-2.08-.41-3.11Z"/><path class="cls-5" d="M464.77,487.45l-.4-3.12c-2.81.35-4.52.58-6.86.88.14,1,.27,2.06.41,3.11Z"/><path class="cls-5" d="M467,494.38l-.41-3.19c-3.33.4-5.31.66-8.13,1,.13,1,.26,2,.41,3.19C461.65,495,463.63,494.78,467,494.38Z"/><path class="cls-5" d="M456.8,495.66l2-.26c-.15-1.15-.28-2.2-.41-3.19l-2,.26C456.55,493.74,456.63,494.38,456.8,495.66Z"/><path class="cls-5" d="M468.43,479a5.06,5.06,0,0,0-.37,2.87h0a4.73,4.73,0,0,0,1.15,2.79,4.36,4.36,0,0,0,1.4,1l.63-4.25c0-.06,0-.11-.05-.18h0a1.39,1.39,0,0,1,.23-1l.56-3.82a6.94,6.94,0,0,0-1.64.66A4.47,4.47,0,0,0,468.43,479Z"/><path class="cls-5" d="M469.7,489.27c-.46,1.15-.68,1.73-1.13,2.89a8.05,8.05,0,0,0,1,.56l.48-3.26C469.94,489.39,469.81,489.34,469.7,489.27Z"/><path class="cls-1" d="M731.69,338.88c-18.46-3.2-35.58-8.62-52.84-13.73C695.34,332.21,713.44,335.7,731.69,338.88Z"/><path class="cls-1" d="M569.05,657.28c27.22,7.7,54.53,16.26,81.89,23.87-19.91-5.57-39.7-11.6-59.5-17.52C584,661.4,576.52,659.27,569.05,657.28Z"/><path class="cls-1" d="M895.78,343.54c-50.07.3-100.25,4.16-149.44-2.38,5.26.76,10.59,1.52,15.83,2.1C806.34,348.11,851.1,345.77,895.78,343.54Z"/><path class="cls-1" d="M666.65,685.25l-2.66-.67Z"/><path class="cls-1" d="M896.56,343.54C882,404.44,869,465.69,856.69,527.07l14.09,2.73-6.94,35.75-14.24-2.76c-9.08,46.15-17.88,92.37-26.79,138.55-10.64-.63-21.3-1.09-31.94-1.5,27.49,1.46,54.73,3.48,82,7.67l70.39-362.74C927.71,343.73,912.14,343.46,896.56,343.54Z"/><path class="cls-1" d="M634.83,314.34l0,.15c4,.73,7.79,1.43,11.39,2.12C642.63,315.87,638.79,315.12,634.83,314.34Z"/><path class="cls-1" d="M660,683.54l-1.19-.31Z"/><path class="cls-2" d="M664,684.58l-4-1Z"/><path class="cls-2" d="M896.57,343.5l-.79,0h.78Z"/><path class="cls-2" d="M675.07,323.46c-8.41-4-19.51-5.06-28.87-6.85,11.18,2.32,21.95,5.37,32.65,8.54C677.58,324.61,676.32,324.05,675.07,323.46Z"/><path class="cls-2" d="M658.76,683.23l-6-1.58Z"/><path class="cls-2" d="M520.3,645.25c16.31,3.71,32.62,7.71,48.75,12-16.07-4.55-32.44-8.74-48.77-12.28Z"/><path class="cls-2" d="M677.9,687.92c-3.74-.81-7.5-1.72-11.25-2.67,9.52,2.4,19.14,4.62,28.68,6.3,31.29,5.52,63.34,7,95.4,8.28C752.79,697.93,714.72,696,677.9,687.92Z"/><path class="cls-6" d="M856.91,545.1a3.09,3.09,0,0,0,1.8-.08,1.48,1.48,0,0,0,.84-1.17,1.5,1.5,0,0,0-.34-1.4,3.14,3.14,0,0,0-1.64-.75l-3.66-.71c-.23,1.13-.46,2.26-.68,3.39Z"/><path class="cls-6" d="M860.79,533.16c-.13-.8-.2-1.2-.34-2l3.07.59c.23,1,.35,1.49.59,2.49l-.48,2.47-8.54-1.66c-.2,1-.41,2-.61,3.06l4.39.85a4.29,4.29,0,0,1,3,1.8,5.74,5.74,0,0,1-1.32,6.82,4.32,4.32,0,0,1-3.44.55l-4.43-.86c-.16.77-.31,1.55-.46,2.32l4.44.86a4.36,4.36,0,0,1,3,1.8,5.79,5.79,0,0,1-1.32,6.83,4.36,4.36,0,0,1-3.44.54l-4.47-.86c-.26,1.34-.53,2.69-.79,4l14.24,2.76,6.94-35.75-14.09-2.73-1,5.1Z"/><path class="cls-6" d="M854.68,556.59a3,3,0,0,0,1.8-.08,1.45,1.45,0,0,0,.84-1.17,1.5,1.5,0,0,0-.34-1.4,3.06,3.06,0,0,0-1.64-.74l-3.71-.72c-.22,1.13-.45,2.26-.67,3.39Z"/><path class="cls-6" d="M848.05,552.21a1.71,1.71,0,0,0-.49,2.57,3.06,3.06,0,0,0,1.63.75l1.77.34c.22-1.13.45-2.26.67-3.39l-1.78-.35A3.09,3.09,0,0,0,848.05,552.21Z"/><path class="cls-6" d="M812.06,555.51l37.54,7.28c.26-1.34.53-2.69.79-4l-2.5-.49a4.36,4.36,0,0,1-3-1.8,5.76,5.76,0,0,1,1.33-6.82,4.36,4.36,0,0,1,3.43-.55l2.53.49c.15-.77.3-1.55.46-2.32l-2.54-.49a4.36,4.36,0,0,1-3-1.8,5.78,5.78,0,0,1,1.33-6.83,4.4,4.4,0,0,1,3.43-.55l2.58.51c.2-1,.41-2,.61-3.06l-6.79-1.32.56-2.89,6.81,1.33,1-5.1L819,519.75Z"/><path class="cls-6" d="M850.29,540.72a1.44,1.44,0,0,0-.85,1.17,1.47,1.47,0,0,0,.35,1.4,3,3,0,0,0,1.63.74l1.81.35c.22-1.13.45-2.26.68-3.39l-1.83-.35A3,3,0,0,0,850.29,540.72Z"/><path class="cls-5" d="M558.4,478.67a4.39,4.39,0,0,1,2.32,0,6.49,6.49,0,0,1,1.94.8,8.65,8.65,0,0,1,1.81,1.47l1.84-2.33a11,11,0,0,0-1.51-1.3,10.88,10.88,0,0,0-1.72-1,8.76,8.76,0,0,0-1.79-.6,10.48,10.48,0,0,0-1.68-.22L557.88,479A1.83,1.83,0,0,1,558.4,478.67Z"/><path class="cls-2" d="M557.88,489.75a4.47,4.47,0,0,0,2.49,0,1.67,1.67,0,0,0,1.14-1.34h0a1.62,1.62,0,0,0-.17-1.17,2.44,2.44,0,0,0-.87-.81,11.59,11.59,0,0,0-1.49-.67s0,0-.06,0l-.07,0-.24-.09a15.59,15.59,0,0,1-2.64-1.27,3,3,0,0,1-.57-.43l-1.73,3.43a7.21,7.21,0,0,0,1.7,1.44A8.19,8.19,0,0,0,557.88,489.75Z"/><path class="cls-2" d="M570.3,454.24l-1.49,3,.12-.12A5.78,5.78,0,0,0,570.3,454.24Z"/><path class="cls-2" d="M572.2,444.74a5.79,5.79,0,0,0-.21-3.11,5.29,5.29,0,0,0-1.21-1.86l-.41,14.41Z"/><path class="cls-2" d="M856.69,527.07C869,465.68,882,404.44,896.56,343.54h-.78c-44.68,2.23-89.44,4.57-133.61-.28-5.24-.58-10.58-1.34-15.83-2.09l-3-.44-.25-.05-5.07-.77-3.58-.58-2.76-.46-2.3-.4-5.38-1c-1.79-.32-3.57-.66-5.35-1q-5.16-1-10.27-2.15c-3.33-.76-6.64-1.57-9.92-2.47a3.18,3.18,0,0,1-.38-.11c-4-1.09-7.89-2.31-11.73-3.68-1-.38-2.09-.76-3.13-1.17-1.47-.57-2.92-1.16-4.37-1.77-10.72-3.17-21.48-6.22-32.66-8.54-3.6-.69-11.39-2.12-11.39-2.12l-40.7-8.76,2,26-8.56,15.8,7.63,21.27-23.69,45.37L571,432.62a15.35,15.35,0,0,1,4,2.09,11.51,11.51,0,0,1,4,5.14,11.81,11.81,0,0,1,.48,6.58l-1.78,9.18a12.07,12.07,0,0,1-2.93,6,11.34,11.34,0,0,1-5.62,3.27,15.12,15.12,0,0,1-4.35.39l-5.14,10.22a9.84,9.84,0,0,1,1.68.24,8.52,8.52,0,0,1,1.79.59,10.46,10.46,0,0,1,1.71,1,11,11,0,0,1,1.51,1.3c-.73.92-1.1,1.38-1.84,2.33a8.65,8.65,0,0,0-1.81-1.47,6.55,6.55,0,0,0-1.93-.8,4.57,4.57,0,0,0-2.34,0,1.69,1.69,0,0,0-.51.29l-.55,1.07a1.59,1.59,0,0,0,.21,1.05,2.43,2.43,0,0,0,.9.84,14,14,0,0,0,1.62.78l.09,0,.09,0,.13.06.12.06a13.5,13.5,0,0,1,2.49,1.33,4.27,4.27,0,0,1,1.48,1.84,4.81,4.81,0,0,1,.18,2.92v0a5.09,5.09,0,0,1-1.29,2.66,4.61,4.61,0,0,1-2.52,1.33,8.65,8.65,0,0,1-3.55-.12,11.17,11.17,0,0,1-2.29-.75,10.26,10.26,0,0,1-2-1.19,7.54,7.54,0,0,1-.8-.68l-6.78,13.49L554.78,554l-13.95,23.89-23.68,35.29L520.28,645c16.33,3.54,32.7,7.72,48.77,12.28,7.47,2,15,4.13,22.39,6.34,19.8,5.93,39.59,12,59.51,17.53l1.8.5,6,1.58,1.2.31,4,1.05,2.66.67,6.05,1.49.63.14,4.57,1c36.82,8,74.89,10,112.83,11.9a.31.31,0,0,0,.14,0c10.65.4,21.3.87,31.93,1.51,8.92-46.19,17.72-92.41,26.79-138.57l-37.53-7.28L819,519.76ZM591.86,477.33c.68,1,1,1.53,1.69,2.56-1.55.65-2.31,1-3.85,1.65-.59-.93-.9-1.4-1.49-2.32C589.67,478.45,590.4,478.08,591.86,477.33Zm-16.11,19.56c-1-3.35-1.65-5.29-2.57-8.13l-3,2.88-.73,3.77c-1.26-.3-1.88-.44-3.13-.72l3.29-16.95,3.13.72-1.6,8.24c2.47-2.53,4.16-4.22,7-7l3.93.95c-2.48,2.19-4.37,3.9-6.25,5.64,1.44,4.41,2.21,6.81,3.67,11.46Zm12.88-3.82-1.29,6.66-3.12-.78,1.29-6.65c-1.13-4.7-1.7-7-2.88-11.48l3.27.81c.73,3.1,1.08,4.68,1.78,7.93,1.84-2.61,2.74-3.87,4.55-6.34l3.26.82C592.78,487.53,591.39,489.36,588.63,493.07Zm8.7,4.45a2.58,2.58,0,0,0,.73,1.32,3,3,0,0,0,1.41.76,2.36,2.36,0,0,0,1.29,0,2.5,2.5,0,0,0,1.1-.67,4.25,4.25,0,0,0,.82-1.32l3.23.85a8.61,8.61,0,0,1-1.74,2.9,5.29,5.29,0,0,1-2.42,1.51,5.43,5.43,0,0,1-2.91,0,7.21,7.21,0,0,1-3.09-1.6,5.6,5.6,0,0,1-1.62-2.72,8.28,8.28,0,0,1,0-3.65l.9-4.66a7,7,0,0,1,1.36-3.19,4.53,4.53,0,0,1,2.45-1.56,6.82,6.82,0,0,1,3.36.13,6.34,6.34,0,0,1,2.66,1.39,6.18,6.18,0,0,1,1.65,2.47,9,9,0,0,1,.51,3.4l-3.23-.85a4.89,4.89,0,0,0-.28-1.57,3.06,3.06,0,0,0-.75-1.14,2.79,2.79,0,0,0-1.15-.62,3.08,3.08,0,0,0-1.56,0,2.14,2.14,0,0,0-1.14.81,4,4,0,0,0-.65,1.6l-.9,4.66A4.2,4.2,0,0,0,597.33,497.52Zm22.21,10.66-3.1-.85,1.34-6.92-5.92-1.61-1.35,6.94-3.11-.82L610.68,488l3.11.84-1.34,6.86,5.93,1.61,1.33-6.87,3.1.84Z"/><path class="cls-5" d="M572,441.61a5.59,5.59,0,0,1,.21,3.11l-1.83,9.44A5.78,5.78,0,0,1,569,457l-.12.12-4.1,8.16a14.77,14.77,0,0,0,4.35-.39,11.34,11.34,0,0,0,5.62-3.27,12,12,0,0,0,2.93-6l1.78-9.18a11.64,11.64,0,0,0-.49-6.58,11.47,11.47,0,0,0-4-5.14,15.26,15.26,0,0,0-4-2.09l-.2,7.13A5.18,5.18,0,0,1,572,441.61Z"/><path class="cls-5" d="M556,484.31a15.59,15.59,0,0,0,2.64,1.27l.24.09.07,0s0,0,.06,0a11.59,11.59,0,0,1,1.49.67,2.44,2.44,0,0,1,.87.81,1.62,1.62,0,0,1,.17,1.17h0a1.67,1.67,0,0,1-1.14,1.34,4.47,4.47,0,0,1-2.49,0,8.19,8.19,0,0,1-2.5-1,7.21,7.21,0,0,1-1.7-1.44l-1.48,2.95a6.55,6.55,0,0,0,.79.68,9.7,9.7,0,0,0,2,1.19,11.28,11.28,0,0,0,2.28.75,8.69,8.69,0,0,0,3.56.12,4.67,4.67,0,0,0,2.52-1.33,5.17,5.17,0,0,0,1.29-2.66v0a4.85,4.85,0,0,0-.17-2.91,4.41,4.41,0,0,0-1.49-1.85,14.79,14.79,0,0,0-2.49-1.34l-.13-.05-.12-.06-.09,0-.09,0a16.22,16.22,0,0,1-1.63-.78,2.6,2.6,0,0,1-.9-.84,1.57,1.57,0,0,1-.19-1l-1.93,3.84A3,3,0,0,0,556,484.31Z"/><path class="cls-5" d="M579.46,497.78l-3.71-.89c-1-3.35-1.65-5.29-2.57-8.13l-3,2.88-.73,3.77c-1.26-.3-1.88-.44-3.13-.72l3.29-16.95,3.13.72-1.6,8.24c2.47-2.53,4.16-4.22,7-7l3.93.95c-2.48,2.19-4.37,3.9-6.25,5.64C577.23,490.73,578,493.13,579.46,497.78Z"/><path class="cls-5" d="M587.68,489.55c-.7-3.24-1.06-4.82-1.78-7.92l-3.27-.8c1.18,4.45,1.75,6.77,2.88,11.46L584.22,499l3.12.78,1.29-6.65c2.77-3.72,4.14-5.55,6.86-9l-3.26-.83C590.42,485.69,589.51,487,587.68,489.55Z"/><path class="cls-5" d="M593.54,479.89l-1.67-2.56c-1.47.75-2.2,1.12-3.66,1.89l1.49,2.31Z"/><path class="cls-5" d="M598.89,489.46a2.07,2.07,0,0,1,1.14-.8,3,3,0,0,1,1.56,0,2.79,2.79,0,0,1,1.15.62,3,3,0,0,1,.74,1.13,4.48,4.48,0,0,1,.29,1.57l3.23.86a9,9,0,0,0-.51-3.4,6,6,0,0,0-4.31-3.86,6.81,6.81,0,0,0-3.36-.13,4.47,4.47,0,0,0-2.45,1.56,7.05,7.05,0,0,0-1.36,3.18l-.91,4.67a8.11,8.11,0,0,0,0,3.65,5.46,5.46,0,0,0,1.62,2.72,7,7,0,0,0,3.08,1.6,5.53,5.53,0,0,0,2.91,0,5.36,5.36,0,0,0,2.42-1.5,8.93,8.93,0,0,0,1.74-2.91l-3.23-.85a4.09,4.09,0,0,1-.83,1.32,2.42,2.42,0,0,1-1.09.67,2.46,2.46,0,0,1-1.29,0,3,3,0,0,1-1.42-.76,2.63,2.63,0,0,1-.72-1.32,4.19,4.19,0,0,1,0-1.8l.91-4.66A3.84,3.84,0,0,1,598.89,489.46Z"/><path class="cls-5" d="M622.81,491.31l-3.27,16.87-3.1-.85,1.34-6.92-5.92-1.61-1.35,6.94-3.11-.82L610.68,488l3.11.84-1.34,6.86,5.93,1.61,1.33-6.87Z"/><path class="cls-1" d="M864.11,534.24c-.24-1-.36-1.49-.59-2.49l-3.07-.59c.14.8.21,1.2.34,2l-5.12-1c-.19,1-.39,1.92-.58,2.88l8.54,1.66Z"/><path class="cls-1" d="M848.86,530.84l-.56,2.89,6.79,1.32c.19-1,.39-1.92.58-2.88Z"/><path class="cls-1" d="M860.53,547.58a5.74,5.74,0,0,0,1.32-6.82,4.29,4.29,0,0,0-3-1.8l-4.39-.85-.57,2.88,3.66.71a3.14,3.14,0,0,1,1.64.75,1.5,1.5,0,0,1,.34,1.4,1.48,1.48,0,0,1-.84,1.17,3.09,3.09,0,0,1-1.8.08l-3.68-.72-.57,2.89,4.43.86A4.32,4.32,0,0,0,860.53,547.58Z"/><path class="cls-1" d="M851.42,544a3,3,0,0,1-1.63-.74,1.47,1.47,0,0,1-.35-1.4,1.44,1.44,0,0,1,.85-1.17,3,3,0,0,1,1.79-.08l1.83.35.57-2.88-2.58-.51a4.4,4.4,0,0,0-3.43.55,5.78,5.78,0,0,0-1.33,6.83,4.36,4.36,0,0,0,3,1.8l2.54.49.57-2.89Z"/><path class="cls-1" d="M858.3,559.08a5.79,5.79,0,0,0,1.32-6.83,4.36,4.36,0,0,0-3-1.8l-4.44-.86-.57,2.89,3.71.72a3.06,3.06,0,0,1,1.64.74,1.5,1.5,0,0,1,.34,1.4,1.45,1.45,0,0,1-.84,1.17,3,3,0,0,1-1.8.08l-3.72-.72-.57,2.89,4.47.86A4.36,4.36,0,0,0,858.3,559.08Z"/><path class="cls-1" d="M849.19,555.53a3.06,3.06,0,0,1-1.63-.75,1.71,1.71,0,0,1,.49-2.57,3.09,3.09,0,0,1,1.8-.08l1.78.35.57-2.89-2.53-.49a4.36,4.36,0,0,0-3.43.55,5.76,5.76,0,0,0-1.33,6.82,4.36,4.36,0,0,0,3,1.8l2.5.49.57-2.89Z"/></g></svg>