<svg xmlns="http://www.w3.org/2000/svg" viewBox="0 0 1024 1024"><defs><style>.cls-1{fill:#e8e8e8;}.cls-2{fill:#add4a4;}.cls-3{fill:#86a33c;}.cls-4{fill:#d3c774;}.cls-5{fill:#8cc588;}.cls-6{fill:#8cc589;}</style></defs><g id="Natržená_bankovka" data-name="Natržená bankovka"><path class="cls-1" d="M874.17,316.48V686c-27.53,1.08-54.66,4.28-81.93,8.09l-.14,0c-37.6,5.36-75.36,10.69-113,9.8-8.56-.2-17.28-.8-25.88-1.37l-1.87-.14c-28.31-2.26-56.75-5.47-84.94-7.84-18-1.52-36.31-2.57-54.38-2.84-3.41-.05-6.86-.05-10.29-.07-44.61-.25-89.25,0-133.87,0H355.13c-2.17,0-4.37,0-6.53,0-66.38.62-131.91,19.94-198.77,22.92V348.8c66.7-2.69,132.56-21,198.77-18.42,2.16.08,4.38.23,6.53.39,50.81,3.84,100.69,13.74,151.83,14.32,4.58.06,10.72.14,17.59.17.05.21.08.31.14.52,3.25,11,4.55,16.6,6.94,26.82-3,8-4.17,11.62-7.15,19.1,4.85,7.15,7.29,10.73,11.68,18a473.91,473.91,0,0,0-13.69,45.68c13.42-13.95,27.19-27.17,41.72-40-2-10.15-3.07-15.2-6.54-25,3.13-7.62,3.86-11.19,8.22-19.09-.54-9.89.18-15.24-.24-25.81v-.16c4,0,7.94,0,11.59.07,29.82.38,57.81,6.19,88.16,5.57l2.8-.08c1.21,0,2.42-.07,3.62-.12l5.13-.2h.25c1,0,2-.08,3-.14C745.4,346.56,808.87,324.63,874.17,316.48Z"/><path class="cls-2" d="M823.88,689.46c-10.56,1.4-21.11,3-31.64,4.61l-.14,0c-31.72,4.83-63.46,9.49-95.23,10-14.42.25-29.21-.61-43.68-1.61l-1.87-.14c-20.61-1.68-41.19-3.83-61.75-5.87-7.72-.77-15.48-1.43-23.19-2-21.48-1.5-43.16-2.45-64.67-2.91-44.45-1-89.24-.17-133.87,0h-.28l-12.43,0h0c-.8-120.3,0-240.61,0-360.91,40.08,4,80.55,14.15,120.12,14.65,16.2.21,32.95.13,49.44.36,3.25,11,4.55,16.6,6.94,26.82-3,8-4.17,11.62-7.15,19.1,4.85,7.15,7.29,10.73,11.68,18a473.91,473.91,0,0,0-13.69,45.68c13.42-13.95,27.19-27.17,41.72-40-2-10.15-3.07-15.2-6.54-25,3.13-7.62,3.86-11.19,8.22-19.09-.54-9.89.18-15.24-.24-25.81,4,0,7.92-.08,11.59-.09,9.52,0,20.63-1.06,29.64,1.22,18.72,4.74,38.57,4.74,58.52,4.35l2.8-.08c1.2,0,2.42-.07,3.62-.12,1.7-.07,3.42-.12,5.13-.2h.25l3-.14c5.3-.26,10.68-.53,15.94-1,44.54-3.67,88.29-14.6,132-25.36C822.83,445.84,823.75,567.66,823.88,689.46Z"/><path class="cls-3" d="M838.3,548.34H785.55V511.92H838.3Z"/><path class="cls-4" d="M480.56,345.44c1.6,15.11,3.16,30.16,2.86,45.38,6.61.59,9.92.83,16.55,1.1.49-15.78-2-31.18-4.56-46.69C489.27,345.33,486.36,345.41,480.56,345.44Zm2.8,302.89c6.63-.08,9.95-.11,16.59-.15q0-38.23,0-76.45c-6.64,0-10,0-16.58.11Q483.3,610.09,483.36,648.33Zm0-86c6.62,0,9.93-.06,16.56-.07q0-39,0-78c-6.63-.12-9.94-.23-16.55-.5Q483.44,523,483.4,562.3Zm0-86.25c6.61.37,9.92.52,16.55.71V400.61c-6.63-.28-9.94-.52-16.55-1.12Zm0,215.64H500q0-18.75,0-37.48c-6.64,0-10,0-16.59.11Q483.43,673,483.42,691.69Z"/><path class="cls-5" d="M204.06,444.71c-6.38.93-9.57,1.36-15.94,2.1V391.17c-4.12,1.77-6.17,2.63-10.28,4.31v-14.3c5-2.35,7.56-3.57,12.6-6.05,5.45-.61,8.17-.95,13.62-1.68Z"/><path class="cls-5" d="M227.44,436.26Q221,431.91,221,422.4V390.19a21.06,21.06,0,0,1,6.51-15.8q6.5-6.28,18.87-8.27c8.28-1.33,14.58-.56,18.9,2.24s6.47,7.35,6.47,13.62v31.76a22,22,0,0,1-6.5,16.07c-4.33,4.39-10.62,7.32-18.87,8.73S231.76,439.16,227.44,436.26Zm26-15a14,14,0,0,0,2.27-8.32V387.83q0-5.08-2.27-7.43t-7.12-1.55q-4.84.78-7.12,3.89A13.64,13.64,0,0,0,237,391v25.27q0,5.17,2.27,7.55t7.12,1.52A10.58,10.58,0,0,0,253.46,421.28Z"/><path class="cls-5" d="M291,426c-4.31-3.22-6.46-7.87-6.46-14.15V380.19A19.7,19.7,0,0,1,291,364.93c4.32-3.94,10.59-6.33,18.78-6.9s14.48,1,18.76,4.33,6.4,8.19,6.4,14.37v31.45c0,6.33-2.14,11.25-6.43,15s-10.53,6-18.73,6.59S295.28,429.21,291,426Zm25.88-12.89q2.26-2.88,2.26-8V380.33c0-3.33-.75-5.86-2.26-7.56s-3.86-2.46-7.07-2.23-5.57,1.33-7.07,3.25-2.27,4.55-2.27,7.9v24.86q0,5.11,2.27,7.65c1.51,1.69,3.87,2.39,7.07,2.14S315.36,415,316.86,413.11Z"/><path class="cls-6" d="M457.29,506.21a23.33,23.33,0,0,1-4.86-1.63,18.6,18.6,0,0,1-4.07-2.56c1.32-2.25,2-3.37,3.3-5.58a16.47,16.47,0,0,0,5,2.82,19,19,0,0,0,5.87,1.09,11,11,0,0,0,5.42-1,3.34,3.34,0,0,0,1.92-3.06v0a3,3,0,0,0-.85-2.24,5.57,5.57,0,0,0-2.24-1.28,29.06,29.06,0,0,0-3.54-.85l-.15,0-.14,0-.57-.1a36.42,36.42,0,0,1-6.3-1.69,9.83,9.83,0,0,1-4.23-3.23,10,10,0,0,1-1.74-6.23v0a10,10,0,0,1,1.63-5.86,8.85,8.85,0,0,1,4.76-3.33,19.26,19.26,0,0,1,7.54-.57,22.43,22.43,0,0,1,4.15.79,28.37,28.37,0,0,1,8,3.79c-1.21,2.09-1.82,3.15-3,5.26a22.54,22.54,0,0,0-4.57-2.42,15.89,15.89,0,0,0-4.57-1.1,10.08,10.08,0,0,0-5.07.61,2.85,2.85,0,0,0-1.79,2.72v0a3.44,3.44,0,0,0,.93,2.5,6.06,6.06,0,0,0,2.32,1.45,39.26,39.26,0,0,0,3.87,1.1l.21,0,.21,0,.3.08.3.08a37.85,37.85,0,0,1,6,1.86,9.91,9.91,0,0,1,4,3.11,8.79,8.79,0,0,1,1.62,5.57v.05a9.43,9.43,0,0,1-1.69,5.66,10.47,10.47,0,0,1-4.94,3.6,21.22,21.22,0,0,1-7.8,1.17A25.91,25.91,0,0,1,457.29,506.21Z"/><path class="cls-6" d="M478.31,472.33c11.12.79,16.69,1.09,27.87,1.3v5.91c-11.18-.15-16.75-.39-27.87-1Zm10.34,3.38c2.86.14,4.29.2,7.16.31v30.67h-7.16Z"/><path class="cls-6" d="M515.16,505.4a11.72,11.72,0,0,1-6.62-10.86v-9.26a11.22,11.22,0,0,1,1.73-6.25,11.36,11.36,0,0,1,4.89-4.18,18.51,18.51,0,0,1,14.62.07,11.61,11.61,0,0,1,4.9,4.29,11.75,11.75,0,0,1,1.73,6.36v9.35a12,12,0,0,1-1.73,6.46,11.34,11.34,0,0,1-4.9,4.29,16.3,16.3,0,0,1-7.31,1.41A16.64,16.64,0,0,1,515.16,505.4ZM525.88,500a5.28,5.28,0,0,0,2.28-2,5.81,5.81,0,0,0,.8-3.05v-9.62a5.72,5.72,0,0,0-.8-3,5.41,5.41,0,0,0-2.28-2,8.54,8.54,0,0,0-6.82-.06,5.3,5.3,0,0,0-2.27,2,5.56,5.56,0,0,0-.8,3v9.56a5.87,5.87,0,0,0,.8,3.06,5.47,5.47,0,0,0,2.27,2.09,8.44,8.44,0,0,0,6.82.12Z"/><path class="cls-6" d="M406.16,517.69h3.17c0,6.94,0,10.28,0,17.52h-3.18C406.15,528,406.16,524.65,406.16,517.69Zm1.9,10.56c2.71-4.29,4.06-6.33,6.77-10.53l4,0c-4.14,5.85-6.2,8.72-10.38,14.85C408.29,530.84,408.21,530,408.06,528.25Zm2.81-2,2.74-1.78c2.36,4.2,3.54,6.36,5.89,10.75h-3.78C413.79,531.55,412.82,529.75,410.87,526.22Z"/><path class="cls-6" d="M423.24,534.54a5.46,5.46,0,0,1-2.15-2.31,7.4,7.4,0,0,1-.76-3.43c0-2,0-3,0-4.93a6.84,6.84,0,0,1,.77-3.3,5.35,5.35,0,0,1,2.16-2.21,6.51,6.51,0,0,1,3.23-.77,6.59,6.59,0,0,1,3.22.79,5.41,5.41,0,0,1,2.17,2.2,6.77,6.77,0,0,1,.76,3.29v4.92a7.37,7.37,0,0,1-.78,3.42,5.65,5.65,0,0,1-2.17,2.32,6.33,6.33,0,0,1-3.23.83A6.21,6.21,0,0,1,423.24,534.54ZM428,531.6a2.6,2.6,0,0,0,1-1.1,3.51,3.51,0,0,0,.36-1.62c0-2.06,0-3.08,0-5.09a3.4,3.4,0,0,0-.35-1.57,2.5,2.5,0,0,0-1-1.05,2.93,2.93,0,0,0-1.5-.37,3,3,0,0,0-1.51.37,2.42,2.42,0,0,0-1,1.05,3.28,3.28,0,0,0-.36,1.57v5.09a3.52,3.52,0,0,0,.34,1.63,2.64,2.64,0,0,0,1,1.09,2.9,2.9,0,0,0,1.51.38A3,3,0,0,0,428,531.6Z"/><path class="cls-6" d="M435.78,517.79H439c0,6.74,0,10.16,0,17.34h-3.18C435.79,528,435.78,524.55,435.78,517.79Zm1.27,7.07h5.86a1.47,1.47,0,0,0,.86-.25,1.61,1.61,0,0,0,.58-.7,2.74,2.74,0,0,0,.21-1.06,2.62,2.62,0,0,0-.2-1.05,1.59,1.59,0,0,0-.58-.69,1.51,1.51,0,0,0-.87-.25h-5.86V517.8l6.12,0a4.67,4.67,0,0,1,2.44.63,4.17,4.17,0,0,1,1.64,1.76,5.62,5.62,0,0,1,.58,2.64,6,6,0,0,1-.58,2.69,4.33,4.33,0,0,1-1.64,1.82,4.61,4.61,0,0,1-2.44.65H437C437,526.75,437,526.12,437.05,524.86Zm3.54,2.61,3.4-.55c1.82,3.23,2.72,4.87,4.54,8.2h-3.86C443,532,442.23,530.49,440.59,527.47Z"/><path class="cls-6" d="M453.38,534.51a5.06,5.06,0,0,1-2.1-2.26,8,8,0,0,1-.71-3.54V517.85h3.18v10.93a3.36,3.36,0,0,0,.77,2.35,3.33,3.33,0,0,0,4.41,0,3.31,3.31,0,0,0,.79-2.34c0-4.49,0-6.66,0-10.91h3.19V528.7a7.9,7.9,0,0,1-.73,3.54,5.1,5.1,0,0,1-2.12,2.26,6.82,6.82,0,0,1-3.34.79A6.67,6.67,0,0,1,453.38,534.51Z"/><path class="cls-6" d="M466.15,517.89H470c2.52,5,3.78,7.65,6.3,13l-.28.31V517.9h3.05v17.16h-3.92c-2.51-5.37-3.77-8.1-6.27-13.12l.28-.3v13.43h-3.05C466.16,527.94,466.15,524.47,466.15,517.89Z"/><path class="cls-6" d="M491.72,534.47a5.09,5.09,0,0,1-2.1-2.25,8,8,0,0,1-.72-3.53V524a7,7,0,0,1,.72-3.4,4.84,4.84,0,0,1,2.1-2.1,6.92,6.92,0,0,1,3.31-.73,6.06,6.06,0,0,1,2.86.66,5.54,5.54,0,0,1,2.09,1.94,8.33,8.33,0,0,1,1.14,3.15H497.8a4.3,4.3,0,0,0-.58-1.44,2.68,2.68,0,0,0-1-.89,2.46,2.46,0,0,0-1.24-.31,3,3,0,0,0-1.53.36,2.31,2.31,0,0,0-1,1.06,3.93,3.93,0,0,0-.33,1.7v4.74a4.16,4.16,0,0,0,.33,1.74,2.49,2.49,0,0,0,1,1.1,2.85,2.85,0,0,0,1.53.39,2.56,2.56,0,0,0,1.26-.32,2.73,2.73,0,0,0,.94-.94,4.25,4.25,0,0,0,.56-1.49h3.32a9.41,9.41,0,0,1-1.15,3.28,5.84,5.84,0,0,1-2.08,2.08,5.61,5.61,0,0,1-2.85.72A6.65,6.65,0,0,1,491.72,534.47Zm-.8-20.72,1.72-1.66,2.41,1.76,2.42-1.77,1.72,1.65c-1.66,1.21-2.48,1.83-4.14,3.06C493.4,515.56,492.57,515,490.92,513.75Z"/><path class="cls-6" d="M503.81,517.86H507c0,6.59,0,10.12,0,17.23h-3.21Zm1.15,0c4.1,0,6.15-.05,10.25,0v3c-4.1,0-6.15,0-10.25,0Zm0,6.94h8.95V528H505Zm0,7.06c4.09,0,6.14,0,10.24,0v3.21c-4.1,0-6.15,0-10.24,0Z"/><path class="cls-6" d="M521.11,535.1a10.74,10.74,0,0,1-2.19-.78,9.08,9.08,0,0,1-1.83-1.21c.59-1.1.89-1.64,1.49-2.73a7.23,7.23,0,0,0,2.27,1.33,8.29,8.29,0,0,0,2.65.5,4.58,4.58,0,0,0,2.44-.5,1.72,1.72,0,0,0,.86-1.54h0a1.59,1.59,0,0,0-.38-1.11,2.42,2.42,0,0,0-1-.63,12.31,12.31,0,0,0-1.6-.38h-.06l-.06,0-.26,0a16.31,16.31,0,0,1-2.84-.73,4.37,4.37,0,0,1-1.91-1.47,4.77,4.77,0,0,1-.78-2.91v0a5,5,0,0,1,.73-2.79,4.58,4.58,0,0,1,2.15-1.72,8.53,8.53,0,0,1,3.4-.53,8.82,8.82,0,0,1,1.87.25,10.83,10.83,0,0,1,1.87.63,10.6,10.6,0,0,1,1.73,1c-.54,1-.82,1.57-1.36,2.63a8.88,8.88,0,0,0-2.06-1.09,6.28,6.28,0,0,0-2.05-.41,4.45,4.45,0,0,0-2.29.43,1.47,1.47,0,0,0-.81,1.35h0a1.6,1.6,0,0,0,.43,1.18,2.53,2.53,0,0,0,1,.65c.41.14,1,.29,1.74.46l.1,0,.09,0,.14,0,.13,0a14.47,14.47,0,0,1,2.7.84,4.3,4.3,0,0,1,1.81,1.53,4.79,4.79,0,0,1,.73,2.82v0a5.15,5.15,0,0,1-.76,2.86,4.67,4.67,0,0,1-2.22,1.78,8.69,8.69,0,0,1-3.51.56A11.93,11.93,0,0,1,521.11,535.1Z"/><path class="cls-6" d="M532.69,518.2l3.21.11v17.25l-3.21-.11Zm1.93,10.44c2.73-4.16,4.1-6.22,6.83-10.11l4,.18c-4.18,5.43-6.27,8.35-10.46,14.24C534.87,531.21,534.78,530.35,534.62,528.64Zm2.84-1.91,2.76-1.67c2.4,4.3,3.59,6.5,6,10.93-1.52-.08-2.29-.11-3.81-.17C540.42,532.14,539.43,530.32,537.46,526.73Z"/><path class="cls-6" d="M554.32,529.62v6.77l-3.21-.16v-6.79c-2-4.38-3-6.56-5-10.7l3.37.16c1.3,2.91,1.95,4.39,3.25,7.44,1.31-2.9,2-4.32,3.26-7.09l3.36.2C557.33,523.39,556.32,525.45,554.32,529.62Zm-3.06-13.53c1.29-1,1.94-1.53,3.23-2.55.86.87,1.28,1.31,2.14,2.2-1.39.93-2.08,1.4-3.46,2.34Z"/><path class="cls-6" d="M562.87,536.3a5.58,5.58,0,0,1-2.11-2.37,8.26,8.26,0,0,1-.72-3.58V525.6a7.11,7.11,0,0,1,.72-3.38,4.49,4.49,0,0,1,2.11-2,6.7,6.7,0,0,1,3.33-.51,6.11,6.11,0,0,1,2.87.86,6,6,0,0,1,2.09,2.1,9.05,9.05,0,0,1,1.15,3.25l-3.33-.23a4.78,4.78,0,0,0-.58-1.49,3,3,0,0,0-.95-1,2.57,2.57,0,0,0-1.25-.4,2.84,2.84,0,0,0-1.53.27,2.09,2.09,0,0,0-1,1,3.93,3.93,0,0,0-.33,1.7v4.75a4.29,4.29,0,0,0,.33,1.76,2.58,2.58,0,0,0,1,1.16,3.08,3.08,0,0,0,1.53.48,2.43,2.43,0,0,0,1.27-.24,2.53,2.53,0,0,0,.95-.87,4.26,4.26,0,0,0,.56-1.45l3.33.22a8.72,8.72,0,0,1-1.16,3.19,5.26,5.26,0,0,1-2.08,1.93,5.51,5.51,0,0,1-2.87.53A7,7,0,0,1,562.87,536.3Z"/><path class="cls-6" d="M575,520.47l3.21.22v17.2l-3.21-.22Zm1.49,7.09c4,.28,6,.43,9.93.73v3.13c-4-.3-6-.44-9.93-.72Zm7.84-6.42,3.21.23v17.18l-3.21-.23Z"/><path class="cls-1" d="M817,520.06v-2.94h12.16c-.28-.76-.43-1.14-.72-1.9h3.13l1.05,2.33v2.51Z"/><path class="cls-1" d="M818,524.37a4.34,4.34,0,0,1,3.26-1.19h7.1a4.39,4.39,0,0,1,3.27,1.19,5.76,5.76,0,0,1,0,7,4.36,4.36,0,0,1-3.27,1.19h-7.1a4.36,4.36,0,0,1-3.27-1.2,5.73,5.73,0,0,1,0-7Zm2.27,4.79a3,3,0,0,0,1.74.42h5.6a3,3,0,0,0,1.74-.42,1.71,1.71,0,0,0,0-2.62,3,3,0,0,0-1.74-.42H822a3,3,0,0,0-1.74.42,1.71,1.71,0,0,0,0,2.62Z"/><path class="cls-1" d="M818,536.08a4.35,4.35,0,0,1,3.26-1.2h7.1a4.36,4.36,0,0,1,3.27,1.2,5.76,5.76,0,0,1,0,7,4.36,4.36,0,0,1-3.27,1.19h-7.1A4.36,4.36,0,0,1,818,543a5.73,5.73,0,0,1,0-6.95Zm2.27,4.79a3,3,0,0,0,1.74.42h5.6a3,3,0,0,0,1.74-.42,1.71,1.71,0,0,0,0-2.62,3,3,0,0,0-1.74-.42H822a3,3,0,0,0-1.74.42,1.71,1.71,0,0,0,0,2.62Z"/></g></svg>