<svg xmlns="http://www.w3.org/2000/svg" viewBox="0 0 1024 1024"><defs><style>.cls-1{fill:#e8e8e8;}.cls-2{fill:#add4a4;}.cls-3{fill:#86a33c;}.cls-4{fill:#d3c774;}.cls-5{fill:#8cc588;}.cls-6{fill:#8cc589;}</style></defs><g id="Bankovka"><rect class="cls-1" x="149.83" y="329.1" width="724.34" height="365.81"/><rect class="cls-2" x="353.86" y="329.1" width="469.56" height="365.81"/><rect class="cls-3" x="785.55" y="492.22" width="52.75" height="36.42"/><path class="cls-4" d="M483.33,638.58H500v-80H483.33Zm0-309.48v43.37H500V329.1Zm0,220.78H500v-80H483.33Zm0,145H500V647.29H483.33Zm0-233.72H500v-80H483.33Z"/><path class="cls-5" d="M203.78,429.63H188V373.77l-10.22,3.31V362.72l12.53-4.83h13.5Z"/><path class="cls-5" d="M226.92,425q-6.4-5.4-6.41-15V377.38q0-9.67,6.44-15T245.62,357q12.28,0,18.7,5.33t6.4,15.05V410q0,9.67-6.43,15t-18.67,5.36Q233.32,430.37,226.92,425Zm25.74-10.41c1.5-1.85,2.25-4.53,2.25-8V380.83q0-5.24-2.25-8t-7-2.78c-3.2,0-5.54.93-7,2.78s-2.25,4.53-2.25,8v25.71c0,3.48.75,6.16,2.25,8s3.84,2.79,7,2.79S251.16,416.41,252.66,414.55Z"/><path class="cls-5" d="M289.82,425q-6.4-5.4-6.4-15V377.38q0-9.67,6.43-15T308.52,357q12.28,0,18.7,5.33t6.4,15.05V410q0,9.67-6.43,15t-18.67,5.36Q296.24,430.37,289.82,425Zm25.74-10.41c1.5-1.85,2.25-4.53,2.25-8V380.83q0-5.24-2.25-8t-7-2.78q-4.78,0-7,2.78t-2.25,8v25.71c0,3.48.75,6.16,2.25,8s3.85,2.79,7,2.79S314.06,416.41,315.56,414.55Z"/><path class="cls-6" d="M457,495.36a23,23,0,0,1-4.91-1.62,18.51,18.51,0,0,1-4.11-2.56l3.34-5.93a16.11,16.11,0,0,0,5.09,2.8,18.39,18.39,0,0,0,5.93,1,10.53,10.53,0,0,0,5.46-1.19,3.76,3.76,0,0,0,1.94-3.37v0a3.36,3.36,0,0,0-.86-2.42,5.26,5.26,0,0,0-2.26-1.31,28,28,0,0,0-3.57-.76l-.15,0a.36.36,0,0,1-.14,0l-.58-.08a35.65,35.65,0,0,1-6.35-1.51,9.28,9.28,0,0,1-4.28-3.18,10.32,10.32,0,0,1-1.76-6.44v0a11.56,11.56,0,0,1,1.66-6.32,10.36,10.36,0,0,1,4.8-4,18.92,18.92,0,0,1,7.61-1.38,19.71,19.71,0,0,1,4.19.47,23.44,23.44,0,0,1,4.18,1.36,23.81,23.81,0,0,1,3.89,2.16L473.07,467a19.5,19.5,0,0,0-4.6-2.37,14.21,14.21,0,0,0-4.61-.84,10.07,10.07,0,0,0-5.12,1.09,3.42,3.42,0,0,0-1.81,3.06v0a3.56,3.56,0,0,0,.95,2.61,5.56,5.56,0,0,0,2.33,1.4,35.83,35.83,0,0,0,3.91,1l.21,0,.21,0,.31.06.3.07a31.4,31.4,0,0,1,6.05,1.72,9.38,9.38,0,0,1,4.05,3.25,10.23,10.23,0,0,1,1.63,6.13v.05a11.1,11.1,0,0,1-1.71,6.25,10.62,10.62,0,0,1-5,4,20.36,20.36,0,0,1-7.86,1.37A25.6,25.6,0,0,1,457,495.36Z"/><path class="cls-6" d="M478.19,457.35h28v6.93h-28Zm10.4,3.13h7.19v35h-7.19Z"/><path class="cls-6" d="M515.16,494.16a12,12,0,0,1-4.89-4.93,15.19,15.19,0,0,1-1.73-7.39V471a15.17,15.17,0,0,1,1.73-7.39,12.12,12.12,0,0,1,4.89-4.94,16.23,16.23,0,0,1,14.62,0,12.2,12.2,0,0,1,4.9,4.94,15.28,15.28,0,0,1,1.73,7.39v10.81a15.31,15.31,0,0,1-1.73,7.39,12.12,12.12,0,0,1-4.9,4.93,16.14,16.14,0,0,1-14.62,0Zm10.72-6.27a5.68,5.68,0,0,0,2.28-2.35A7.49,7.49,0,0,0,529,482V470.84a7.45,7.45,0,0,0-.8-3.51,5.68,5.68,0,0,0-2.28-2.35,7.42,7.42,0,0,0-6.82,0,5.59,5.59,0,0,0-2.27,2.35,7.45,7.45,0,0,0-.8,3.51V482a7.49,7.49,0,0,0,.8,3.52,5.59,5.59,0,0,0,2.27,2.35,7.42,7.42,0,0,0,6.82,0Z"/><path class="cls-6" d="M405.31,507.49h3.22v17h-3.22Zm1.94,10.38,6.83-10.38h4L407.66,522Zm2.83-2,2.77-1.74,6,10.37H415Z"/><path class="cls-6" d="M422.62,523.92a5.46,5.46,0,0,1-2.19-2.2,6.87,6.87,0,0,1-.77-3.3v-4.83a6.87,6.87,0,0,1,.77-3.3,5.52,5.52,0,0,1,2.19-2.2,7.2,7.2,0,0,1,6.52,0,5.46,5.46,0,0,1,2.19,2.2,6.76,6.76,0,0,1,.77,3.3v4.83a6.76,6.76,0,0,1-.77,3.3,5.4,5.4,0,0,1-2.19,2.2,7.2,7.2,0,0,1-6.52,0Zm4.78-2.8a2.46,2.46,0,0,0,1-1,3.28,3.28,0,0,0,.36-1.57v-5a3.31,3.31,0,0,0-.36-1.57,2.58,2.58,0,0,0-1-1.05,3.31,3.31,0,0,0-3,0,2.58,2.58,0,0,0-1,1.05,3.43,3.43,0,0,0-.35,1.57v5a3.4,3.4,0,0,0,.35,1.57,2.46,2.46,0,0,0,1,1,3.31,3.31,0,0,0,3,0Z"/><path class="cls-6" d="M435.27,507.48h3.21v17h-3.21Zm1.27,7.1h5.93a1.51,1.51,0,0,0,.87-.25,1.55,1.55,0,0,0,.58-.7,2.71,2.71,0,0,0,.22-1.06,2.49,2.49,0,0,0-.21-1.05,1.5,1.5,0,0,0-.58-.7,1.52,1.52,0,0,0-.88-.25h-5.93v-3.09h6.19a4.81,4.81,0,0,1,2.48.63,4.27,4.27,0,0,1,1.65,1.79,6.46,6.46,0,0,1,0,5.35A4.29,4.29,0,0,1,445.2,517a4.8,4.8,0,0,1-2.47.63h-6.19Zm3.59,2.56,3.43-.53,4.6,7.92h-3.89Z"/><path class="cls-6" d="M453.06,524a4.94,4.94,0,0,1-2.12-2.17,7.39,7.39,0,0,1-.73-3.43V507.49h3.21v11a3.11,3.11,0,0,0,.79,2.27,2.93,2.93,0,0,0,2.21.81,3,3,0,0,0,2.23-.81,3.11,3.11,0,0,0,.79-2.27v-11h3.21v10.87a7.39,7.39,0,0,1-.73,3.43,5,5,0,0,1-2.13,2.17,8,8,0,0,1-6.73,0Z"/><path class="cls-6" d="M465.94,507.49h3.92l6.34,13-.28.31V507.49H479v17H475l-6.32-12.86.29-.3v13.16h-3.07Z"/><path class="cls-6" d="M491.67,524a5,5,0,0,1-2.11-2.17,7.54,7.54,0,0,1-.73-3.44v-4.67a7.54,7.54,0,0,1,.73-3.44,5,5,0,0,1,2.11-2.18,6.88,6.88,0,0,1,3.33-.75,5.89,5.89,0,0,1,2.87.69,5.66,5.66,0,0,1,2.09,2,8.66,8.66,0,0,1,1.14,3.19h-3.32a4.44,4.44,0,0,0-.58-1.45,2.93,2.93,0,0,0-.95-.91,2.5,2.5,0,0,0-1.25-.32,3.08,3.08,0,0,0-1.54.37,2.41,2.41,0,0,0-1,1.08,3.86,3.86,0,0,0-.34,1.71v4.67a3.82,3.82,0,0,0,.34,1.7,2.33,2.33,0,0,0,1,1.07,3,3,0,0,0,1.54.37,2.5,2.5,0,0,0,1.26-.31,2.58,2.58,0,0,0,.95-.91,4.15,4.15,0,0,0,.57-1.45h3.32A8.87,8.87,0,0,1,500,522a5.66,5.66,0,0,1-2.09,2,5.85,5.85,0,0,1-2.86.69A6.88,6.88,0,0,1,491.67,524Zm-.8-20.83,1.73-1.77,2.42,1.89,2.43-1.89,1.72,1.77L495,506.34Z"/><path class="cls-6" d="M503.8,507.49H507v17H503.8Zm1.16,0h10.25v3.09H505Zm0,7h9v3.09h-9Zm0,6.91h10.25v3.1H505Z"/><path class="cls-6" d="M521.11,524.46a11.24,11.24,0,0,1-2.19-.72,8.47,8.47,0,0,1-1.83-1.15l1.49-2.64a7.22,7.22,0,0,0,2.27,1.24,8,8,0,0,0,2.65.44,4.65,4.65,0,0,0,2.44-.53,1.7,1.7,0,0,0,.86-1.51h0a1.53,1.53,0,0,0-.38-1.08,2.34,2.34,0,0,0-1-.58,11.46,11.46,0,0,0-1.6-.34h-.06l-.06,0-.26,0a15.92,15.92,0,0,1-2.84-.67,4.26,4.26,0,0,1-1.91-1.42,4.65,4.65,0,0,1-.78-2.88h0a5.25,5.25,0,0,1,.73-2.83,4.69,4.69,0,0,1,2.15-1.78,8.46,8.46,0,0,1,3.4-.62,8.72,8.72,0,0,1,1.87.21,10.74,10.74,0,0,1,1.87.61,11.22,11.22,0,0,1,1.73,1l-1.36,2.72a8.71,8.71,0,0,0-2.06-1.05,6.2,6.2,0,0,0-2.05-.38,4.4,4.4,0,0,0-2.29.49,1.51,1.51,0,0,0-.81,1.36v0a1.54,1.54,0,0,0,.43,1.16,2.39,2.39,0,0,0,1,.63,17.36,17.36,0,0,0,1.74.42l.1,0,.09,0a.35.35,0,0,1,.14,0l.13,0a14.88,14.88,0,0,1,2.7.77,4.13,4.13,0,0,1,1.81,1.46,4.51,4.51,0,0,1,.73,2.73v0a4.93,4.93,0,0,1-.76,2.78,4.71,4.71,0,0,1-2.22,1.77,9,9,0,0,1-3.51.61A11.89,11.89,0,0,1,521.11,524.46Z"/><path class="cls-6" d="M532.69,507.49h3.21v17h-3.21Zm1.93,10.38,6.83-10.38h4L535,522Zm2.84-2,2.76-1.74,6,10.37H542.4Z"/><path class="cls-6" d="M554.32,518v6.58h-3.21V518l-5-10.46h3.37l3.25,7.33,3.26-7.33h3.36Zm-3.06-13.49,3.23-2.87,2.14,2.2-3.46,2.64Z"/><path class="cls-6" d="M562.87,524a5,5,0,0,1-2.11-2.17,7.54,7.54,0,0,1-.72-3.44v-4.67a7.54,7.54,0,0,1,.72-3.44,5,5,0,0,1,2.11-2.18,6.88,6.88,0,0,1,3.33-.75,5.89,5.89,0,0,1,2.87.69,5.58,5.58,0,0,1,2.09,2,8.67,8.67,0,0,1,1.15,3.19H569a4.44,4.44,0,0,0-.58-1.45,2.84,2.84,0,0,0-.95-.91,2.5,2.5,0,0,0-1.25-.32,3,3,0,0,0-1.53.37,2.37,2.37,0,0,0-1,1.08,4,4,0,0,0-.33,1.71v4.67a4,4,0,0,0,.33,1.7,2.3,2.3,0,0,0,1,1.07,2.94,2.94,0,0,0,1.53.37,2.57,2.57,0,0,0,1.27-.31,2.74,2.74,0,0,0,.95-.91,4.35,4.35,0,0,0,.56-1.45h3.33a8.87,8.87,0,0,1-1.16,3.18,5.63,5.63,0,0,1-2.08,2,5.89,5.89,0,0,1-2.87.69A6.88,6.88,0,0,1,562.87,524Z"/><path class="cls-6" d="M575,507.49h3.21v17H575Zm1.49,7h9.93v3.09h-9.93Zm7.84-7h3.21v17h-3.21Z"/><path class="cls-1" d="M817,500.36v-2.94h12.16l-.72-1.9h3.13l1.05,2.33v2.51Z"/><path class="cls-1" d="M818,504.67a4.35,4.35,0,0,1,3.26-1.2h7.1a4.36,4.36,0,0,1,3.27,1.2,5.76,5.76,0,0,1,0,7,4.36,4.36,0,0,1-3.27,1.19h-7.1a4.36,4.36,0,0,1-3.27-1.2,5.73,5.73,0,0,1,0-6.95Zm2.27,4.79a3,3,0,0,0,1.74.42h5.6a3,3,0,0,0,1.74-.42,1.71,1.71,0,0,0,0-2.62,3,3,0,0,0-1.74-.42H822a3,3,0,0,0-1.74.42,1.71,1.71,0,0,0,0,2.62Z"/><path class="cls-1" d="M818,516.38a4.35,4.35,0,0,1,3.26-1.2h7.1a4.36,4.36,0,0,1,3.27,1.2,5.75,5.75,0,0,1,0,7,4.33,4.33,0,0,1-3.27,1.2h-7.1a4.36,4.36,0,0,1-3.27-1.2,5.73,5.73,0,0,1,0-7Zm2.27,4.79a3.11,3.11,0,0,0,1.74.41h5.6a3.11,3.11,0,0,0,1.74-.41,1.72,1.72,0,0,0,0-2.63,3,3,0,0,0-1.74-.42H822a3,3,0,0,0-1.74.42,1.72,1.72,0,0,0,0,2.63Z"/></g></svg>