<svg xmlns="http://www.w3.org/2000/svg" xmlns:xlink="http://www.w3.org/1999/xlink" viewBox="0 0 1024 1024"><defs><style>.cls-1{opacity:0.31;}.cls-2{fill:#424242;}.cls-3{fill:#646463;}.cls-4{fill:#9c9b9b;}.cls-5{fill:#9d9019;}.cls-6{fill:#d3cb36;}.cls-7{fill:#ceba24;}.cls-8{fill:#ebdc35;}.cls-9{fill:url(#linear-gradient);}.cls-10{fill:#d0b4c0;}.cls-11{fill:#e4e2e3;}.cls-12{fill:#41589a;}.cls-13{fill:#d8d8d8;}</style><linearGradient id="linear-gradient" x1="393.62" y1="629.37" x2="526.01" y2="446.34" gradientUnits="userSpaceOnUse"><stop offset="0" stop-color="#243876" stop-opacity="0.1"/><stop offset="0.04" stop-color="#243876" stop-opacity="0.25"/><stop offset="0.11" stop-color="#243876" stop-opacity="0.48"/><stop offset="0.2" stop-color="#243876" stop-opacity="0.67"/><stop offset="0.3" stop-color="#243876" stop-opacity="0.82"/><stop offset="0.42" stop-color="#243876" stop-opacity="0.92"/><stop offset="0.58" stop-color="#243876" stop-opacity="0.98"/><stop offset="1" stop-color="#243876"/></linearGradient></defs><g id="Klepání_na_dveře" data-name="Klepání na dveře"><rect class="cls-2" x="208.19" y="74.05" width="607.63" height="949.95"/><rect class="cls-3" x="242.3" y="110.21" width="544.33" height="913.79"/><circle class="cls-4" cx="743.02" cy="646.52" r="26.09"/><g id="Efekt"><polygon class="cls-5" points="571.12 354.11 563.63 432.29 623.79 482.79 547.12 499.82 517.69 572.64 477.8 504.99 399.45 499.5 451.46 440.65 432.47 364.44 504.51 395.73 571.12 354.11"/><polygon class="cls-6" points="564.62 363.49 557.8 434.68 612.59 480.66 542.77 496.17 515.97 562.48 479.64 500.87 408.3 495.88 455.66 442.29 438.37 372.89 503.97 401.38 564.62 363.49"/><polygon class="cls-7" points="515.47 326.08 553.51 403.16 638.58 415.52 577.03 475.52 591.56 560.25 515.47 520.24 439.39 560.25 453.92 475.52 392.36 415.52 477.43 403.16 515.47 326.08"/><polygon class="cls-8" points="514.85 338.12 549.6 408.54 627.33 419.84 571.09 474.66 584.36 552.07 514.85 515.52 445.33 552.07 458.61 474.66 402.37 419.84 480.09 408.54 514.85 338.12"/></g><path class="cls-9" d="M434.78,640.65,369.52,594.5l99.9-135a5.36,5.36,0,0,1,7.46-1.28L527.47,494a5.35,5.35,0,0,1,1.28,7.46Z"/><path class="cls-10" d="M516.25,420.42a37.15,37.15,0,0,0-37.07,34.83l50.12,35.44a5.26,5.26,0,0,1,1.2,1.2,37.15,37.15,0,0,0-14.25-71.47Z"/><rect class="cls-2" y="976.03" width="1024" height="47.97"/><path class="cls-11" d="M491.42,436s23.34-21.76,45.89-1.58c0,0,3.62,6.12-17.8-1.58,0,0-9.6-4.52-23.94,3.89C495.57,436.76,491,440.78,491.42,436Z"/><path class="cls-12" d="M474,475.59S408.3,551.92,389,596c0,0-6.63,2.67-4.85-5.44,0,0,51.92-87.63,86.74-120.07C470.85,470.45,479.55,466.3,474,475.59Z"/><path class="cls-13" d="M725.51,635.93s4.7-13.91,22.39-10c0,0,1.64,2.31-2.65,2.18,0,0-13.23-.42-16,6.22C729.21,634.33,725.6,639.55,725.51,635.93Z"/><path class="cls-13" d="M745.94,667.2s6.76,2.9,11.41-5.05c0,0-.29-1.39-1.72.27,0,0-4.41,5.1-7.82,3.92C747.81,666.34,744.64,665.94,745.94,667.2Z"/></g></svg>