<svg xmlns="http://www.w3.org/2000/svg" viewBox="0 0 1024 1024"><defs><style>.cls-1{opacity:0.31;}.cls-2{fill:#376eb0;}.cls-2,.cls-3,.cls-6{stroke:#558baf;}.cls-2,.cls-3,.cls-4,.cls-5,.cls-6{stroke-miterlimit:10;}.cls-2,.cls-4,.cls-5,.cls-6{stroke-width:2px;}.cls-3,.cls-6{fill:none;}.cls-4{fill:#6e6e6d;stroke:#616160;}.cls-5{fill:#55b46e;stroke:#296e39;}</style></defs><g id="Řeka"><g id="Řeka-2" data-name="Řeka"><path class="cls-2" d="M220.38,99.77s50.77,129,265.34,115.52c0,0,112.51,15,161.57,94.15,0,0,55.12,35.08,45.89,134.51,0,0-3.17,42.46,143.2,116.37,0,0,55.39,33.2,58.55,104L728.25,884.38c4.75-48.52-11.07-94.94-11.07-94.94-3.7-6.86-21.63-44.31-21.63-44.31-4.75-15.82-31.12-33.51-31.12-33.51-9.5-28.24-188.31-91-188.31-91-54.33-30.07-73.32-76-73.32-76-7.38-13.18,18.46-63.82,18.46-63.82,19-44.31-8.17-73.4-8.17-73.4-51-74.45-149.54-78.65-149.54-78.65-127-11.86-106.81-92.57-106.81-92.57Z"/><path class="cls-2" d="M646.49,460.3S545.75,446.05,541,472.43c0,0-16,19.16,6.78,22,0,0,85,22.85,119.29,59.78,0,0,26.5,16.74,32.44,17.93,0,0-28.09-18.59-36.8-42.33,0,0-4.74-26.11-13.84-26.11,0,0,10.68-6.06,12-16.09,0,0,1.45-13.84-6.33-21.1C654.54,466.49,651.14,461.48,646.49,460.3Z"/><path class="cls-2" d="M642.63,472s9.8.79,9.21,10.09c0,0,1.78,13.85-11.68,23-5.82,4,8.71-1.48,8.71-1.48"/><path class="cls-3" d="M564.62,470.21c-.88.06-8,4.89-8,4.89C545.22,482,546.7,489,546.7,489c.4,7.22,22.85,9.2,22.85,9.2s54,6.69,62.33-4.22"/></g><path class="cls-3" d="M645.35,536.29s-2.81-11-22.59-22"/><path class="cls-3" d="M679.44,555s-3.67,2.52-23.45-20.82"/><path class="cls-3" d="M406.73,398.86s50.93-11.88,50.14-26.12c0,0,2-26.29,4.75-37.19,0,0-4-23.47-16.1-20.61"/><g id="Kameny_vrch" data-name="Kameny vrch"><path class="cls-4" d="M240.6,157.53s-41.14,10.28-53,26.11c0,0-4,4-14.63,5.54,0,0-19.78,5.14-21.37,9.49,0,0-13.84,19.38-24.13,29.67,0,0-16.22,22.15-13.84,40.35,0,0,2.76,20.18,12.26,26.9,0,0,58.94,1.19,72.39-4.35a74.92,74.92,0,0,0,24.14,4.46s20.17-4.85,27.69-2.08c0,0,15.82,2,16.22,4.74,0,0,22.94-44.7,21.36-47.07,0,0,2.9-7.26,13.32-7s50.64,0,50.64,0-.07-13.78-3.23-16.35c0,0-12.86-11.87-13.65-15.83,0,0-15-19.38-18.2-19.19,0,0-20.77-11.07-24.33-14.44,0,0-12.86-9.09-17.41-9.69,0,0-18.39-4.75-21.75-7.71A17.84,17.84,0,0,0,240.6,157.53Z"/><path class="cls-4" d="M297.57,243s41.67-1.35,45.63,0c0,0,15.82-1.06,20.83,3.16,0,0,12.66,11.08,19.78,12.93,0,0,16.09,24.26,33,34.55a65.61,65.61,0,0,0,19.65,7.91s16.42,22.35,17.41,30.66c0,0,1.58,35.6-8.71,43.71a119.26,119.26,0,0,1-43.71,16.81s-43.72,4.75-66.07,0c0,0-22.55.4-31.25-1.58,0,0-15.23-1.18-22.35,2,0,0-27.89,8.9-48.07,4.55,0,0-14.24-6.53-13.25-20.37,0,0,14-43.72,22.35-47.08,0,0,20.77-29.28,23.14-35.41,0,0,13.65-25.12,20.57-42.13C286.49,252.67,285.51,246,297.57,243Z"/></g><g id="Kámen_střed" data-name="Kámen střed"><path class="cls-4" d="M563.42,444S553.13,493,599.81,493c0,0,22.16,3.16,40.35,0,0,0,5.54-19,0-43.52,0,0-43.25-25.32-63-17.14C577.13,432.34,569.22,433.92,563.42,444Z"/><path class="cls-4" d="M563.42,444s-1.58,8.43,17.14,8.43c0,0,12.13,4.49,19.25,12.4,0,0,3.16,11.8-2.11,28.19"/><path class="cls-4" d="M599.81,464.78s32.24-3.43,40.35-15.3"/></g><g id="Tráva"><path class="cls-5" d="M366.41,230.58c2.37-3.82,5.93-13.32,5.93-13.32,0-6.33-3.16-17-3.16-17-5.15-4.74-17.54-31.65-17.54-31.65-2.11-21.75-25.19-60.52-25.19-60.52-10.68,44.7,12.66,73.58,12.66,73.58,30.86,45.1,21.55,62.76,21.55,62.76s-.19,1.82,3.37,1.72c8.59-.24,40.55-8.3,40.55-8.3,13.06-4.55,18-17.21,18-17.21,6.93-11.08,6.73-20.38,6.73-20.38-.6-11.07-6.53-3.76-6.53-3.76-5.54,11.28-43.91,39-43.91,39l.79-3.76c11.87-21,9.69-46.88,9.69-46.88-1.38-3.95-2.57-15.62-2.57-15.62,1.78-26.9-5.54-23.15-5.54-23.15-3.56,5.54,4.16,25.32,4.16,25.32.19,7.12-13.17,43.69-13.17,43.69"/><path class="cls-5" d="M242.78,330.21s-77.34-16.42-78.92-42.92c0,0-.2-6.93,18.79,11.07,0,0,7.81,9.5,37.73,17.61,0,0,14.84,4.65,17.17,9.12,0,0-18.11-53.23-15.74-101.1,0,0,1.59-2.77,1.39,5.14,0,0,7.71,46.68,13.45,54,0,0,4.54,26.31,3.16,34.22,0,0,10.29-35.6,17.81-55.19,0,0,5.14-9.59,5.14,2.18,0,0-6.33,28.88-11.28,37.78,0,0-7.71,15.63-7.12,21.36,0,0,2.38,3.56,4,4.55S242.78,330.21,242.78,330.21Z"/><path class="cls-5" d="M500,673.45s.61-26.91-55.62-66.74c0,0-4.8-6.62-2.33-11.17,0,0,33.23,25.36,49.75,50.14.92-.72,5.34-4-2.79-40.29,0,0-8.24-38.51-3.49-48.17,0,0,3.46-4.05,5.91,4.73,0,0,6.93,22.5,7.38,39.2,0,0,.59,28.31,4.68,48.62,0,0,23.64-62,42.26-65.46,0,0,7.17-2.27,4.62,5.22,0,0-30,52.23-44.38,73.16C506,662.69,500.59,669.18,500,673.45Z"/><path class="cls-5" d="M592.3,444s5.8-18.2-17-28.62c0,0,19.12,2.77,20.44,21.63,0,0,2.37-20,0-25.19,0,0,5.14,1.49,5.67,18.94,0,0,9.23-14.06,20.57-11.56,0,0,4,.81,4.69,1.6,0,0-17.2-.1-22.15,11.67,0,0-4.5,7.47-3.53,11.23Z"/></g><g id="Kameny_spodek" data-name="Kameny spodek"><path class="cls-4" d="M592,631.91s8.13-19.44,17.89-21.81c0,0,15.29-11.47,21.62-9.89,0,0,17.41,2.77,24.53,2,0,0,18.59-5.05,21.36-2.13A82,82,0,0,0,689,611.81s7.51,10.29,7.12,13.59c0,0,5.4,9.62,14.24,14,0,0,1.84,16,1.45,42.33,0,0-5.14,13.85-3.76,20.57,0,0,1.39,23.35-2.83,33.63,0,0,.66,14.77-19.13,17.8,0,0-24.26,3-43.78-6.72,0,0-17-12-29-11.87,0,0-13.84-7.78-29.93-9,0,0-9.89.06-8.44-14.67C574.89,711.47,619.89,693.48,592,631.91Z"/><path class="cls-4" d="M584.78,623.81s-22.68-15.29-41.14,0c0,0-24.24,13.72-31.64,35.34,0,0-13.2,6.33-25.33,22.69,0,0-6.59,10,15,14.24,0,0,15.56,3.69,19.52,3.69,0,0,20.57.26,23.74,2.9,0,0,15.56,4.75,20.3,8.18,0,0,28.22,2.63,30.86-1.85,0,0,12.4-5.8,13.72-13.71,0,0,0-12.14-5.54-17.15,0,0-.53-14.5.52-19,0,0-1.58-19.78-5.8-23.2A28.55,28.55,0,0,1,584.78,623.81Z"/></g><path class="cls-6" d="M439.74,306.2s22,1.86,25.17,14.42c0,0,3.17,14.14,5.14,15.33,0,0-5.93,30.85-3.16,41.14,0,0-17.85,26.14-55.41,28.1"/></g></svg>