<svg xmlns="http://www.w3.org/2000/svg" viewBox="0 0 1024 1024"><defs><style>.cls-1{opacity:0.31;}.cls-2{fill:#eaeaea;stroke:#d7d7d7;stroke-miterlimit:10;stroke-width:3px;}</style></defs><g id="Vítr"><path class="cls-2" d="M165.05,460.8s197.67,57.7,354.4-13.08c0,0,27-.38,23-89,0,0,15-38,57-31.65S620,369.81,620,369.81s6.33-37.19,53.8-4c0,0-24.53,1.58-39.56,57.76,0,0,6.33-77.54,91.78-60.92,0,0,41.93,10.28,38,67.25,0,0,1.58,3.16,68.83,16.61,0,0,9.5,51.43-53.8,95.74,0,0-29.28,15.82-49.85-17.41,0,0,19.78,45.1,69.63,7.92,0,0,60.92,10.28,60.13,40.35,0,0-5.54,53.8-49.05,82.28,0,0-28.49,3.17-32.44,0,0,0-12.66,40.62-69.63,30.07,0,0-13.71-2.64-21.63-11.08,0,0-82.28,19.52-89.67,23.21,0,0-26.9-16.35-29-48.53,0,0-9.49-10-22.68,2.64,0,0-12.66,17.41-58.55,11.08,0,0-21.1-1.06-22.15-22.68,0,0-2.34-10.9-7.39-13.72,0,0-27.95,12.66-53.8-21.1,0,0-2.11-35.87-83.34-17.93Z"/><path class="cls-2" d="M686.19,674.42s-35.86-30.06-10.55-53.8c0,0,20.58-21.63,47-5.8,0,0,17.93,19-11.6,26.9"/><path class="cls-2" d="M456.74,626.42S442,608,441.45,587.39c0,0,16.35-28.48-27.43-26.9,0,0-15.3,0-11.61-26.38"/><path class="cls-2" d="M476.26,564.71s-12.13,38,25.85,41.67c0,0,23.73,4.22,45.89-13.72"/><path class="cls-2" d="M689.23,436.66s35.21-2,35.21,20.18c0,0,2.76,17.8-28.88,28.88,0,0-18.36,3.16-29,0"/><path class="cls-2" d="M218.85,499.3s82.82,11.08,97.06,9.5c0,0,29.54-7.61,43.25.15,0,0,31.65,11.23,58,0"/><path class="cls-2" d="M304.83,513.94s13.57,9,45.89,4.35c0,0,32.7-4.22,44.31,6.33"/><path class="cls-2" d="M298,440.62s28.09-11.47,50.25,0c0,0,47.86,11.87,110.37-28.48"/><path class="cls-2" d="M205.67,451.83s59.07,0,74.37,10c0,0,5.8,5.26,51.16,3.67,0,0,25.06,7.39,47.08,5.28,0,0,55.78-11,66.86-8.95"/></g></svg>